<svg xmlns="http://www.w3.org/2000/svg" width="46" height="35.5" viewBox="0 0 46 35.5">
  <g id="Group_2" data-name="Group 2" transform="translate(-764 -5716.5)">
    <circle id="Oval_Copy_2" data-name="Oval Copy 2" cx="9.5" cy="9.5" r="9.5" transform="translate(791 5733)" fill="#75bd29" opacity="0.241"/>
    <g id="api" transform="translate(763.932 5716.501)">
      <path id="Shape" d="M36.174,24.84H9.295a9.226,9.226,0,1,1,0-18.453h.181a10.791,10.791,0,0,1,19.706,0A8.268,8.268,0,0,1,36.6,11.367a6.8,6.8,0,0,1,4.611,2.187,6.7,6.7,0,0,1-.294,9.382,6.809,6.809,0,0,1-4.744,1.9ZM9.331,7.807H9.295a7.806,7.806,0,1,0,0,15.613H36.169a5.323,5.323,0,0,0,0-10.646H36.1a.718.718,0,0,1-.676-.473,6.805,6.805,0,0,0-6.413-4.494h-.3a.718.718,0,0,1-.673-.457,9.366,9.366,0,0,0-8.7-5.938h-.007a9.362,9.362,0,0,0-8.7,5.961.721.721,0,0,1-.67.46H9.878C9.7,7.816,9.516,7.807,9.331,7.807Z" transform="translate(0 0)" fill="#75bd29"/>
      <path id="Shape-2" data-name="Shape" d="M1.986,10.1a.717.717,0,0,1-.558-.265A6.338,6.338,0,0,1,3.7.068a.719.719,0,0,1,.954.339.707.707,0,0,1-.342.945,4.986,4.986,0,0,0-2.879,4.49,4.849,4.849,0,0,0,1.109,3.1.7.7,0,0,1,.09.752.717.717,0,0,1-.645.4Z" transform="translate(2.846 9.773)" fill="#75bd29"/>
      <path id="Shape-3" data-name="Shape" d="M.718,9.936a.719.719,0,0,1-.584-.294A.7.7,0,0,1,.034,9L2.9.485A.718.718,0,0,1,3.811.037a.709.709,0,0,1,.453.9L1.4,9.451a.717.717,0,0,1-.68.485Z" transform="translate(11.444 10.646)" fill="#75bd29"/>
      <path id="Shape-4" data-name="Shape" d="M3.583,9.936a.717.717,0,0,1-.68-.485L.037.934A.709.709,0,0,1,.49.037.718.718,0,0,1,1.4.486L4.263,9a.7.7,0,0,1-.1.64.719.719,0,0,1-.582.3Z" transform="translate(14.311 10.646)" fill="#75bd29"/>
      <path id="Shape-5" data-name="Shape" d="M4.062,1.419H.723A.71.71,0,1,1,.723,0h3.34a.71.71,0,1,1,0,1.419Z" transform="translate(12.635 15.614)" fill="#75bd29"/>
      <path id="Shape-6" data-name="Shape" d="M.717,9.937A.713.713,0,0,1,0,9.227V.712a.717.717,0,1,1,1.433,0V9.227a.713.713,0,0,1-.717.71Z" transform="translate(19.329 10.645)" fill="#75bd29"/>
      <path id="Shape-7" data-name="Shape" d="M3.577,5.678H.717A.714.714,0,0,1,0,4.968V.709A.714.714,0,0,1,.717,0h2.86A2.856,2.856,0,0,1,6.45,2.839,2.856,2.856,0,0,1,3.577,5.678ZM1.433,1.419V4.258H3.577a1.42,1.42,0,1,0,0-2.839Z" transform="translate(19.329 10.646)" fill="#75bd29"/>
      <path id="Shape-8" data-name="Shape" d="M.717,9.937A.713.713,0,0,1,0,9.227V.712a.717.717,0,1,1,1.433,0V9.227a.713.713,0,0,1-.717.71Z" transform="translate(27.928 10.645)" fill="#75bd29"/>
      <path id="Shape-9" data-name="Shape" d="M5.023,1.419H.723A.71.71,0,1,1,.723,0h4.3a.71.71,0,1,1,0,1.419Z" transform="translate(25.772 10.646)" fill="#75bd29"/>
      <path id="Shape-10" data-name="Shape" d="M5.023,1.419H.723A.71.71,0,1,1,.723,0h4.3a.71.71,0,1,1,0,1.419Z" transform="translate(25.772 19.162)" fill="#75bd29"/>
      <path id="Shape-11" data-name="Shape" d="M10.085,7.816A10.8,10.8,0,0,1,.049.968a.7.7,0,0,1,.11-.7.719.719,0,0,1,1.229.2,9.308,9.308,0,0,0,8.7,5.93,9.308,9.308,0,0,0,8.7-5.931.719.719,0,0,1,1.229-.2.7.7,0,0,1,.11.7A10.8,10.8,0,0,1,10.085,7.816Z" transform="translate(11.392 23.414)" fill="#75bd29"/>
      <path id="Shape-12" data-name="Shape" d="M.718,5.678a.719.719,0,0,1-.584-.3.7.7,0,0,1-.1-.64A6.319,6.319,0,0,1,5.734,0a.71.71,0,1,1,0,1.419A4.94,4.94,0,0,0,1.4,5.193a.717.717,0,0,1-.68.485Z" transform="translate(12.878 2.839)" fill="#75bd29"/>
    </g>
  </g>
</svg>
