<svg xmlns="http://www.w3.org/2000/svg" width="214" height="65" viewBox="0 0 214 65">
  <g id="Page-1" transform="translate(-44.5 -42.5)">
    <g id="Landing-Slide-1" transform="translate(-91 -356)">
      <g id="Group-24" transform="translate(136 399)">
        <g id="button">
          <rect id="Rectangle_3" data-name="Rectangle 3" width="213" height="64" rx="9" stroke="#fff" stroke-width="1"/>
          <rect id="Rectangle_4" data-name="Rectangle 4" width="212" height="63" rx="9" transform="translate(0.5 0.5)" fill="#fff" stroke="#fff" stroke-width="1"/>
        </g>
        <g id="Group-3" transform="translate(68 14)">
          <path id="Downloadonthe" d="M1.087.4H4.229C6.946.4,8.552,2.095,8.552,4.977S6.952,9.56,4.229,9.56H1.087ZM2.229,1.428v7.1H4.153c2.076,0,3.231-1.27,3.231-3.542,0-2.292-1.149-3.561-3.231-3.561ZM13.686,9.623c-1.923,0-3.155-1.365-3.155-3.485s1.231-3.485,3.155-3.485S16.84,4.012,16.84,6.138,15.609,9.623,13.686,9.623Zm0-.984c1.276,0,2.031-.933,2.031-2.5s-.755-2.5-2.031-2.5-2.031.933-2.031,2.5S12.416,8.639,13.686,8.639ZM27.7,2.717,25.783,9.56H24.666L23.1,4.24h-.025L21.518,9.56H20.4L18.484,2.717h1.092l1.39,5.592h.025l1.568-5.592h1.066l1.568,5.592h.025l1.39-5.592ZM29.68,9.56V2.717h1.041V3.828h.025a2.452,2.452,0,0,1,4.545,1.346V9.56h-1.1v-4.2c0-1.117-.521-1.727-1.6-1.727a1.752,1.752,0,0,0-1.8,1.949V9.56Zm8.181,0V0h1.1V9.56Zm6.524.063c-1.923,0-3.155-1.365-3.155-3.485s1.232-3.485,3.155-3.485S47.54,4.012,47.54,6.138,46.309,9.623,44.385,9.623Zm0-.984c1.276,0,2.031-.933,2.031-2.5s-.755-2.5-2.031-2.5-2.031.933-2.031,2.5S43.116,8.639,44.385,8.639Zm7.591.025a1.778,1.778,0,0,0,1.936-1.708V6.4l-1.79.114c-1.028.063-1.562.438-1.562,1.1C50.561,8.252,51.113,8.665,51.976,8.665Zm-.235.958a2.051,2.051,0,0,1-2.311-2.012c0-1.174.9-1.866,2.564-1.968l1.917-.114V4.958c0-.851-.559-1.32-1.568-1.32a1.418,1.418,0,0,0-1.517,1.054h-1.06a2.36,2.36,0,0,1,2.59-2.038c1.619,0,2.66.863,2.66,2.209v4.7H53.969V8.373h-.025A2.439,2.439,0,0,1,51.741,9.623Zm8.378,0c-1.72,0-2.933-1.4-2.933-3.485s1.206-3.485,2.907-3.485a2.387,2.387,0,0,1,2.184,1.174H62.3V0h1.1V9.56H62.354V8.4h-.019A2.414,2.414,0,0,1,60.119,9.623Zm.2-5.986c-1.2,0-2,.99-2,2.5s.8,2.5,2,2.5,1.993-1.009,1.993-2.5S61.5,3.637,60.316,3.637ZM72.977,9.623c-1.923,0-3.155-1.365-3.155-3.485s1.231-3.485,3.155-3.485,3.155,1.358,3.155,3.485S74.9,9.623,72.977,9.623Zm0-.984c1.276,0,2.031-.933,2.031-2.5s-.755-2.5-2.031-2.5-2.031.933-2.031,2.5S71.708,8.639,72.977,8.639Zm5.356.92V2.717h1.041V3.828H79.4a2.452,2.452,0,0,1,4.545,1.346V9.56h-1.1v-4.2c0-1.117-.521-1.727-1.6-1.727a1.752,1.752,0,0,0-1.8,1.949V9.56Zm12.63-8.385h1.1V2.717H93.4v.914H92.068V7.738c0,.628.267.914.851.914a4.578,4.578,0,0,0,.476-.032v.933a4,4,0,0,1-.711.057c-1.238,0-1.72-.514-1.72-1.828V3.631h-.952V2.717h.952ZM95.73,9.56V0h1.1V3.828h.025a2.256,2.256,0,0,1,2.171-1.174,2.315,2.315,0,0,1,2.412,2.539V9.56h-1.105V5.389A1.534,1.534,0,0,0,98.7,3.637a1.8,1.8,0,0,0-1.866,1.987V9.56Zm10.948-5.935a1.916,1.916,0,0,0-1.923,1.936h3.764A1.813,1.813,0,0,0,106.678,3.625Zm1.816,3.98h1.092a2.7,2.7,0,0,1-2.838,2.019c-1.923,0-3.136-1.339-3.136-3.459s1.219-3.51,3.085-3.51c1.829,0,2.971,1.289,2.971,3.358v.432h-4.913v.063a1.959,1.959,0,0,0,2.019,2.146A1.676,1.676,0,0,0,108.494,7.6Z" fill="#4a4a4a" opacity="0.524"/>
          <path id="AppStore" d="M12.166,29.26H5.016l-1.364,3.3H0l6.864-15.4h3.52l6.886,15.4H13.53Zm-1.122-2.706L8.6,20.658l-2.442,5.9ZM25.63,20.548a6.032,6.032,0,0,1,3,.759,5.45,5.45,0,0,1,2.123,2.134,6.443,6.443,0,0,1,.77,3.2,6.443,6.443,0,0,1-.77,3.2,5.45,5.45,0,0,1-2.123,2.134,6.032,6.032,0,0,1-3,.759,4.571,4.571,0,0,1-3.564-1.43v5.522H18.634v-16.1h3.278v1.364A4.552,4.552,0,0,1,25.63,20.548Zm-.594,9.372a2.859,2.859,0,0,0,2.167-.891,3.321,3.321,0,0,0,.847-2.387,3.321,3.321,0,0,0-.847-2.387,3.081,3.081,0,0,0-4.334,0,3.321,3.321,0,0,0-.847,2.387,3.321,3.321,0,0,0,.847,2.387A2.859,2.859,0,0,0,25.036,29.92ZM40.81,20.548a6.032,6.032,0,0,1,3,.759,5.45,5.45,0,0,1,2.123,2.134,6.443,6.443,0,0,1,.77,3.2,6.443,6.443,0,0,1-.77,3.2,5.45,5.45,0,0,1-2.123,2.134,6.032,6.032,0,0,1-3,.759,4.571,4.571,0,0,1-3.564-1.43v5.522H33.814v-16.1h3.278v1.364A4.552,4.552,0,0,1,40.81,20.548Zm-.594,9.372a2.859,2.859,0,0,0,2.167-.891,3.321,3.321,0,0,0,.847-2.387,3.321,3.321,0,0,0-.847-2.387,3.081,3.081,0,0,0-4.334,0,3.321,3.321,0,0,0-.847,2.387,3.321,3.321,0,0,0,.847,2.387A2.859,2.859,0,0,0,40.216,29.92Zm20.306,2.9a12.6,12.6,0,0,1-3.531-.495,8.281,8.281,0,0,1-2.739-1.287l1.21-2.684a8.213,8.213,0,0,0,2.354,1.166,8.843,8.843,0,0,0,2.728.44,4.359,4.359,0,0,0,2.244-.451,1.363,1.363,0,0,0,.726-1.2,1.146,1.146,0,0,0-.429-.913,3.251,3.251,0,0,0-1.1-.583q-.671-.22-1.815-.484a25.113,25.113,0,0,1-2.882-.836,4.683,4.683,0,0,1-1.925-1.342,3.624,3.624,0,0,1-.8-2.464,4.286,4.286,0,0,1,.726-2.431,4.884,4.884,0,0,1,2.189-1.727A8.931,8.931,0,0,1,61.05,16.9a11.836,11.836,0,0,1,2.882.352A8.512,8.512,0,0,1,66.4,18.26l-1.1,2.706a8.587,8.587,0,0,0-4.268-1.21,4,4,0,0,0-2.211.484,1.477,1.477,0,0,0-.715,1.276,1.248,1.248,0,0,0,.825,1.177,12.963,12.963,0,0,0,2.519.759,25.072,25.072,0,0,1,2.882.836,4.771,4.771,0,0,1,1.925,1.32,3.539,3.539,0,0,1,.8,2.442,4.205,4.205,0,0,1-.737,2.409,4.952,4.952,0,0,1-2.211,1.727A9.014,9.014,0,0,1,60.522,32.824Zm16.368-.836a3.529,3.529,0,0,1-1.243.561,6.287,6.287,0,0,1-1.551.187,4.608,4.608,0,0,1-3.267-1.078,4.125,4.125,0,0,1-1.155-3.168V23.628H67.848v-2.64h1.826V18.106h3.432v2.882h2.948v2.64H73.106v4.818a1.616,1.616,0,0,0,.385,1.155,1.427,1.427,0,0,0,1.089.407,2.206,2.206,0,0,0,1.386-.44Zm7.568.748a7.1,7.1,0,0,1-3.355-.781,5.806,5.806,0,0,1-2.321-2.167,6.337,6.337,0,0,1,0-6.292A5.805,5.805,0,0,1,81.1,21.329a7.573,7.573,0,0,1,6.7,0,5.823,5.823,0,0,1,2.31,2.167,6.337,6.337,0,0,1,0,6.292,5.824,5.824,0,0,1-2.31,2.167A7.033,7.033,0,0,1,84.458,32.736Zm0-2.816a2.859,2.859,0,0,0,2.167-.891,3.321,3.321,0,0,0,.847-2.387,3.321,3.321,0,0,0-.847-2.387,2.859,2.859,0,0,0-2.167-.891,2.894,2.894,0,0,0-2.178.891,3.3,3.3,0,0,0-.858,2.387,3.3,3.3,0,0,0,.858,2.387A2.894,2.894,0,0,0,84.458,29.92Zm12.056-7.634a3.816,3.816,0,0,1,1.661-1.3,6.164,6.164,0,0,1,2.409-.44v3.168q-.571-.044-.77-.044a3.146,3.146,0,0,0-2.31.825,3.335,3.335,0,0,0-.836,2.475V32.56H93.236V20.724h3.278Zm17.8,4.4q0,.066-.066.924h-8.954a2.789,2.789,0,0,0,1.144,1.738,3.788,3.788,0,0,0,2.244.638,4.546,4.546,0,0,0,1.639-.275,3.971,3.971,0,0,0,1.331-.869l1.826,1.98a6.138,6.138,0,0,1-4.884,1.914,7.727,7.727,0,0,1-3.542-.781,5.721,5.721,0,0,1-2.376-2.167,5.974,5.974,0,0,1-.836-3.146,6.048,6.048,0,0,1,.825-3.135,5.777,5.777,0,0,1,2.266-2.178A7.016,7.016,0,0,1,111.3,21.3a5.455,5.455,0,0,1,2.211,2.145A6.4,6.4,0,0,1,114.312,26.686Zm-6.138-3.542a2.956,2.956,0,0,0-1.958.66,2.808,2.808,0,0,0-.968,1.8h5.83a2.836,2.836,0,0,0-.968-1.793A2.892,2.892,0,0,0,108.174,23.144Z" fill="#4a4a4a"/>
        </g>
        <path id="logo" d="M48.108,47.786c-1.742,2.56-3.544,5.1-6.389,5.158-2.8.053-3.7-1.667-6.893-1.667s-4.2,1.613-6.843,1.72c-2.747.1-4.835-2.765-6.591-5.314-3.588-5.212-6.327-14.735-2.644-21.163a10.207,10.207,0,0,1,8.634-5.265c2.7-.05,5.245,1.828,6.893,1.828s4.743-2.254,7.994-1.924A9.731,9.731,0,0,1,49.9,25.319a9.517,9.517,0,0,0-4.506,8A9.26,9.26,0,0,0,51,41.811,23.17,23.17,0,0,1,48.108,47.786Zm-11.945-33.6A9.357,9.357,0,0,1,42.313,11a9.3,9.3,0,0,1-2.174,6.708,7.72,7.72,0,0,1-6.192,2.972A8.826,8.826,0,0,1,36.163,14.181Z" fill="#78c029"/>
      </g>
    </g>
  </g>
</svg>
