<svg id="icon-2" xmlns="http://www.w3.org/2000/svg" width="48" height="45" viewBox="0 0 48 45">
  <circle id="Oval" cx="10.5" cy="10.5" r="10.5" transform="translate(27 24)" fill="#c8102e" opacity="0.241"/>
  <g id="transfer">
    <path id="Path" d="M27.312,30.1a.728.728,0,0,0-.738.717v2.15H3.691a.717.717,0,1,0,0,1.433H26.574v5.017a2.183,2.183,0,0,1-2.214,2.15H3.691a2.183,2.183,0,0,1-2.214-2.15V3.583a2.183,2.183,0,0,1,2.214-2.15H24.359a2.183,2.183,0,0,1,2.214,2.15v4.3a.738.738,0,0,0,1.476,0v-4.3A3.638,3.638,0,0,0,24.359,0H3.691A3.638,3.638,0,0,0,0,3.583V39.417A3.638,3.638,0,0,0,3.691,43H24.359a3.638,3.638,0,0,0,3.691-3.583v-8.6A.728.728,0,0,0,27.312,30.1Z" fill="#c8102e"/>
    <path id="Path-2" data-name="Path" d="M7.382,1.433A.728.728,0,0,0,8.12.717.728.728,0,0,0,7.382,0H1.476A1.455,1.455,0,0,0,0,1.433V2.867A1.455,1.455,0,0,0,1.476,4.3H7.382a.717.717,0,1,0,0-1.433H1.476V1.433Z" transform="translate(9.596 35.833)" fill="#c8102e"/>
    <path id="Path-3" data-name="Path" d="M2.953,10.033A1.455,1.455,0,0,1,1.476,8.6a.728.728,0,0,0-.738-.717A.728.728,0,0,0,0,8.6a2.883,2.883,0,0,0,2.214,2.766v.817a.738.738,0,0,0,1.476,0v-.817A2.87,2.87,0,0,0,5.846,8.238a2.923,2.923,0,0,0-2.894-2.5A1.455,1.455,0,0,1,1.476,4.3,1.455,1.455,0,0,1,2.953,2.867,1.455,1.455,0,0,1,4.429,4.3a.738.738,0,0,0,1.476,0A2.883,2.883,0,0,0,3.691,1.534V.717a.738.738,0,0,0-1.476,0v.817A2.87,2.87,0,0,0,.059,4.662a2.923,2.923,0,0,0,2.894,2.5,1.434,1.434,0,1,1,0,2.867Z" transform="translate(24.359 12.9)" fill="#c8102e"/>
    <path id="Path-4" data-name="Path" d="M9.6,0a9.686,9.686,0,0,0-7.84,3.938,9.09,9.09,0,0,0-1.21,8.489.746.746,0,0,0,.945.437.713.713,0,0,0,.45-.918,7.6,7.6,0,0,1-.465-2.63,7.946,7.946,0,0,1,6.538-7.73A8.173,8.173,0,0,1,17.1,6.3a7.757,7.757,0,0,1-2.993,9.571,8.3,8.3,0,0,1-10.252-.983.755.755,0,0,0-1,.038.7.7,0,0,0-.039.973A9.813,9.813,0,0,0,14.4,17.385,9.206,9.206,0,0,0,18.872,6.9,9.554,9.554,0,0,0,9.6,0Z" transform="translate(17.711 10.033)" fill="#c8102e"/>
    <path id="Path-5" data-name="Path" d="M4.425,2.864H9.592a.728.728,0,0,0,.738-.717.728.728,0,0,0-.738-.717H5.163V.714A.715.715,0,0,0,4.742.069a.756.756,0,0,0-.775.086L.276,3.022a.7.7,0,0,0,0,1.118L3.967,7.006a.752.752,0,0,0,.458.158.688.688,0,0,0,.318-.072.715.715,0,0,0,.421-.645V5.731H9.592a.717.717,0,1,0,0-1.433H4.425a.73.73,0,0,0-.738.659L1.915,3.581,3.686,2.2A.73.73,0,0,0,4.425,2.864Z" transform="translate(5.91 10.753)" fill="#c8102e"/>
    <path id="Path-6" data-name="Path" d="M5.588,7.092a.688.688,0,0,0,.318.072.752.752,0,0,0,.458-.158L10.054,4.14a.7.7,0,0,0,0-1.118L6.363.155A.756.756,0,0,0,5.588.069a.715.715,0,0,0-.421.645v.717H.738A.728.728,0,0,0,0,2.147a.728.728,0,0,0,.738.717H5.905A.73.73,0,0,0,6.643,2.2L8.415,3.581,6.643,4.957A.73.73,0,0,0,5.905,4.3H.738a.717.717,0,1,0,0,1.433H5.167v.717A.715.715,0,0,0,5.588,7.092Z" transform="translate(5.905 19.353)" fill="#c8102e"/>
    <path id="Path-7" data-name="Path" d="M1.476.717a.728.728,0,0,1-.738.717A.728.728,0,0,1,0,.717.728.728,0,0,1,.738,0,.728.728,0,0,1,1.476.717Z" transform="translate(4.429 3.583)" fill="#c8102e"/>
    <path id="Path-8" data-name="Path" d="M1.476.717a.728.728,0,0,1-.738.717A.728.728,0,0,1,0,.717.728.728,0,0,1,.738,0,.728.728,0,0,1,1.476.717Z" transform="translate(7.382 3.583)" fill="#c8102e"/>
    <path id="Path-9" data-name="Path" d="M5.905.717A.728.728,0,0,0,5.167,0H.738A.728.728,0,0,0,0,.717a.728.728,0,0,0,.738.717H5.167A.728.728,0,0,0,5.905.717Z" transform="translate(14.763 8.6)" fill="#c8102e"/>
    <path id="Path-10" data-name="Path" d="M.738,1.433H5.905A.728.728,0,0,0,6.643.717.728.728,0,0,0,5.905,0H.738A.728.728,0,0,0,0,.717.728.728,0,0,0,.738,1.433Z" transform="translate(12.549 28.667)" fill="#c8102e"/>
  </g>
</svg>
