<svg xmlns="http://www.w3.org/2000/svg" width="44" height="46" viewBox="0 0 44 46">
  <g id="icon-3" transform="translate(0 0)">
    <circle id="Oval_Copy" data-name="Oval Copy" cx="13" cy="13" r="13" transform="translate(18 20)" fill="#c8102e" opacity="0.241"/>
    <g id="protect">
      <path id="Shape" d="M19,46a.893.893,0,0,1-.288-.047,26.67,26.67,0,0,1-9.4-6.259A30.426,30.426,0,0,1,2.171,28.307,39.8,39.8,0,0,1,0,14.914V8.086A.9.9,0,0,1,.756,7.2l1.932-.32A36.478,36.478,0,0,0,18.457.18a.907.907,0,0,1,1.085,0,36.485,36.485,0,0,0,15.769,6.7l1.932.32A.9.9,0,0,1,38,8.086v6.828a39.8,39.8,0,0,1-2.17,13.392A30.427,30.427,0,0,1,28.69,39.694a26.751,26.751,0,0,1-9.4,6.259A.912.912,0,0,1,19,46ZM19,2.014A38.376,38.376,0,0,1,2.986,8.653L1.81,8.847v6.067c0,9.729,2.934,17.619,8.721,23.451A26.085,26.085,0,0,0,19,44.141a26.1,26.1,0,0,0,8.469-5.776c5.787-5.832,8.722-13.723,8.722-23.451V8.847l-1.177-.194A38.383,38.383,0,0,1,19,2.014Z" fill="#c8102e"/>
      <path id="Path" d="M1.049,1.452A.752.752,0,0,0,.889.011.747.747,0,0,0,.76,0a.754.754,0,1,0,0,1.508A.769.769,0,0,0,1.049,1.452Z" transform="translate(3.8 18.852)" fill="#c8102e"/>
      <path id="Path-2" data-name="Path" d="M29.677,5.839A39.758,39.758,0,0,1,15.688.146a.892.892,0,0,0-.977,0A39.3,39.3,0,0,1,.722,5.84.9.9,0,0,0,0,6.72s0,4.417.009,4.71a.9.9,0,0,0,.894.878H.922a.9.9,0,0,0,.875-.916c-.006-.28-.009-3.94-.009-3.94A41.032,41.032,0,0,0,15.2,1.963,41.617,41.617,0,0,0,28.612,7.452v3.062c0,13.445-6.6,22.04-13.416,25.307C9.6,33.132,4.4,26.8,2.572,18.306a.894.894,0,1,0-1.748.379c2.022,9.385,7.94,16.254,14.011,18.943a.893.893,0,0,0,.726,0C23.294,34.164,30.4,24.719,30.4,10.514V6.72A.9.9,0,0,0,29.677,5.839Z" transform="translate(3.8 4.525)" fill="#c8102e"/>
      <path id="Shape-2" data-name="Shape" d="M2.66,5.279A2.653,2.653,0,0,1,0,2.64a2.66,2.66,0,0,1,5.32,0A2.652,2.652,0,0,1,2.66,5.279Zm0-3.519a.88.88,0,1,0,.887.88A.885.885,0,0,0,2.66,1.76Z" transform="translate(16.72 21.869)" fill="#c8102e"/>
      <path id="Shape-3" data-name="Shape" d="M12,18.1H.923a.915.915,0,0,1-.923-.9V6.334a.915.915,0,0,1,.923-.9h.923V4.524A4.575,4.575,0,0,1,6.46,0a4.575,4.575,0,0,1,4.614,4.524V5.43H12a.915.915,0,0,1,.923.9V17.194A.915.915,0,0,1,12,18.1ZM1.846,7.24v9.049h9.229V7.24ZM6.46,1.81A2.745,2.745,0,0,0,3.692,4.524V5.43H9.229V4.524A2.745,2.745,0,0,0,6.46,1.81Z" transform="translate(12.92 12.82)" fill="#c8102e"/>
    </g>
  </g>
</svg>
