<svg id="icon-4" xmlns="http://www.w3.org/2000/svg" width="54" height="47" viewBox="0 0 54 47">
  <circle id="Oval_Copy_3" data-name="Oval Copy 3" cx="11" cy="11" r="11" transform="translate(32 25)" fill="#c8102e" opacity="0.241"/>
  <g id="database">
    <path id="Shape" d="M13.636,18H6.364a.9.9,0,1,1,0-1.8H9.091V14.4H2.727A2.717,2.717,0,0,1,0,11.7v-9A2.717,2.717,0,0,1,2.727,0H17.273A2.717,2.717,0,0,1,20,2.7v9a2.717,2.717,0,0,1-2.727,2.7H10.909v1.8h2.727a.9.9,0,1,1,0,1.8ZM1.818,10.8v.9a.906.906,0,0,0,.909.9H17.273a.906.906,0,0,0,.909-.9v-.9Zm.909-9a.906.906,0,0,0-.909.9V9H18.182V2.7a.906.906,0,0,0-.909-.9Z" transform="translate(23 25)" fill="#c8102e"/>
    <path id="Shape-2" data-name="Shape" d="M18,43C7.907,43,0,39.458,0,34.937V8.062C0,3.541,7.907,0,18,0S36,3.541,36,8.062V22.4a.9.9,0,0,1-1.8,0V20.622a13.722,13.722,0,0,1-4.631,2.634.9.9,0,1,1-.623-1.68c3.29-1.208,5.254-2.91,5.254-4.555V11.614C31.216,14.4,25.008,16.125,18,16.125S4.784,14.4,1.8,11.614v5.407c0,2.966,6.653,6.271,16.2,6.271.9,0,1.865-.064,2.64-.115h.036a.9.9,0,0,1,.922.836.9.9,0,0,1-.839.953c-.76.05-1.8.118-2.759.118-7.009,0-13.217-1.728-16.2-4.511v5.407c0,2.966,6.653,6.27,16.2,6.27.878,0,1.75-.054,2.641-.114h.039a.9.9,0,0,1,.919.836.9.9,0,0,1-.839.953c-.98.064-1.865.118-2.759.118-7.009,0-13.216-1.729-16.2-4.512v5.407c0,2.966,6.653,6.271,16.2,6.271.892,0,1.777-.029,2.63-.086h.016a.9.9,0,0,1,.106,1.788C19.849,42.97,18.923,43,18,43ZM18,1.792c-9.547,0-16.2,3.3-16.2,6.27S8.453,14.333,18,14.333s16.2-3.305,16.2-6.271S27.547,1.792,18,1.792Z" fill="#c8102e"/>
  </g>
</svg>
