<svg xmlns="http://www.w3.org/2000/svg" width="48" height="35.335" viewBox="0 0 48 35.335">
  <g id="Hybrid_Architecture" data-name="Hybrid Architecture" transform="translate(0 -0.665)">
    <ellipse id="Oval_Copy_2" data-name="Oval Copy 2" cx="10.605" cy="10.688" rx="10.605" ry="10.688" transform="translate(26.791 14.625)" fill="#75bd29" opacity="0.241"/>
    <g id="random">
      <path id="Shape" d="M2.21,26.223H.737a.75.75,0,0,1,0-1.5H2.21a8.187,8.187,0,0,0,8.1-8.25,9.676,9.676,0,0,1,9.578-9.75h6.631V0L36.617,7.473,26.523,14.946V8.223H19.892a8.187,8.187,0,0,0-8.1,8.249A9.676,9.676,0,0,1,2.21,26.223ZM28,2.946V12l6.115-4.527Z" transform="translate(0 0.664)" fill="#75bd29"/>
      <path id="Path" d="M.737,1.5H2.21a8.014,8.014,0,0,1,5.4,2.1.728.728,0,0,0,1.04-.059A.76.76,0,0,0,8.6,2.482,9.47,9.47,0,0,0,2.21,0H.737A.743.743,0,0,0,0,.75.743.743,0,0,0,.737,1.5Z" transform="translate(0 7.387)" fill="#75bd29"/>
      <path id="Shape-2" data-name="Shape" d="M13.217,14.946V8.223H6.586A9.474,9.474,0,0,1,.249,5.787.76.76,0,0,1,.185,4.729a.726.726,0,0,1,1.04-.067A8.01,8.01,0,0,0,6.585,6.723h6.631V0L23.311,7.473,13.219,14.945Zm1.472-12V12l6.115-4.527L14.69,2.946Z" transform="translate(13.306 18.664)" fill="#75bd29"/>
    </g>
  </g>
</svg>
