<svg id="arrow-to-bottom" xmlns="http://www.w3.org/2000/svg" width="13" height="15" viewBox="0 0 13 15">
  <path id="Shape" d="M12.594,15H.406A.4.4,0,0,1,0,14.6v-.267a.4.4,0,0,1,.406-.4H12.594a.4.4,0,0,1,.406.4V14.6A.4.4,0,0,1,12.594,15ZM6.5,12.858a.408.408,0,0,1-.288-.117L1.2,7.768a.4.4,0,0,1,0-.569l.24-.238a.412.412,0,0,1,.576,0l3.907,3.884V.4A.4.4,0,0,1,6.331,0h.338a.4.4,0,0,1,.407.4V10.845l3.907-3.881a.409.409,0,0,1,.575,0l.24.238a.389.389,0,0,1,.119.279.4.4,0,0,1-.119.287L6.788,12.74A.408.408,0,0,1,6.5,12.858Z" fill="#fff"/>
</svg>
