<?xml version="1.0" encoding="UTF-8"?>
<svg width="13px" height="15px" viewBox="0 0 13 15" version="1.1" xmlns="http://www.w3.org/2000/svg" xmlns:xlink="http://www.w3.org/1999/xlink">
    <!-- Generator: Sketch 55.2 (78181) - https://sketchapp.com -->
    <title>download</title>
    <desc>Created with Sketch.</desc>
    <g id="Page-1" stroke="none" stroke-width="1" fill="none" fill-rule="evenodd">
        <g id="BDAM-Slide-2" transform="translate(-1062.000000, -52.000000)" fill="#FE5354" fill-rule="nonzero">
            <g id="download" transform="translate(1062.000000, 52.000000)">
                <path d="M11.7981771,7.76785714 L6.78776042,12.7399554 C6.62864583,12.8973214 6.37135417,12.8973214 6.21223958,12.7399554 L1.20182292,7.76785714 C1.04270833,7.61049107 1.04270833,7.35602679 1.20182292,7.19866071 L1.4421875,6.9609375 C1.60130208,6.80357143 1.85859375,6.80357143 2.01770833,6.9609375 L5.92447917,10.8448661 L5.92447917,0.401785714 C5.92447917,0.180803571 6.10729167,0 6.33072917,0 L6.66927083,0 C6.89270833,0 7.07552083,0.180803571 7.07552083,0.401785714 L7.07552083,10.8448661 L10.9822917,6.96428571 C11.1414063,6.80691964 11.3986979,6.80691964 11.5578125,6.96428571 L11.7981771,7.20200893 C11.9572917,7.35602679 11.9572917,7.61049107 11.7981771,7.76785714 Z M13,14.5982143 L13,14.3303571 C13,14.109375 12.8171875,13.9285714 12.59375,13.9285714 L0.40625,13.9285714 C0.1828125,13.9285714 0,14.109375 0,14.3303571 L0,14.5982143 C0,14.8191964 0.1828125,15 0.40625,15 L12.59375,15 C12.8171875,15 13,14.8191964 13,14.5982143 Z" id="Shape"></path>
            </g>
        </g>
    </g>
</svg>