<svg id="envelope" xmlns="http://www.w3.org/2000/svg" width="16" height="12" viewBox="0 0 16 12">
  <path id="Shape" d="M14.5,12H1.5A1.5,1.5,0,0,1,0,10.5v-9A1.5,1.5,0,0,1,1.5,0h13A1.5,1.5,0,0,1,16,1.5v9A1.5,1.5,0,0,1,14.5,12ZM1,4.094V10.5a.5.5,0,0,0,.5.5h13a.5.5,0,0,0,.5-.5V4.094c-.774.634-2.034,1.643-4.085,3.271-.1.078-.208.171-.324.269A4.546,4.546,0,0,1,8.014,9H7.991A4.624,4.624,0,0,1,5.4,7.631c-.115-.1-.223-.189-.319-.265C2.943,5.665,1.76,4.717,1,4.094ZM8,8h.014c.6,0,1.421-.7,1.965-1.155.115-.1.223-.189.314-.261C13.33,4.175,14.319,3.37,15,2.794V1.5a.5.5,0,0,0-.5-.5H1.5a.5.5,0,0,0-.5.5V2.794c.687.581,1.678,1.387,4.706,3.791.089.071.2.161.307.256C6.56,7.3,7.385,8,7.987,8Z" fill="#fb2335"/>
</svg>
