<svg xmlns="http://www.w3.org/2000/svg" width="16.261" height="12.565" viewBox="0 0 16.261 12.565">
  <path id="Fill_22" data-name="Fill 22" d="M7.744,12.565A17.6,17.6,0,0,1,3.7,12.23,4.364,4.364,0,0,1,.617,10.118,6.86,6.86,0,0,1-.067,7.008,5.505,5.505,0,0,1,1.338,3.291a4.928,4.928,0,0,1-.261-1.6,3.158,3.158,0,0,1,.5-1.7A5.4,5.4,0,0,1,5.258,1.178,13.434,13.434,0,0,1,8.263.851a12.076,12.076,0,0,1,2.724.3A5.326,5.326,0,0,1,14.639,0a3.152,3.152,0,0,1,.494,1.7,4.906,4.906,0,0,1-.26,1.577,5.481,5.481,0,0,1,1.321,3.736,7,7,0,0,1-.593,3.109c-1.254,2.447-4.71,2.447-7,2.447H7.744ZM4.64,5.913A2.475,2.475,0,0,0,2.15,8.569c0,2.919,2.907,3.257,5.094,3.257H8.877c2.189,0,5.1-.338,5.1-3.257a2.475,2.475,0,0,0-2.489-2.656A10.629,10.629,0,0,0,10,6.05l-.413.056a10.465,10.465,0,0,1-1.527.1,10.548,10.548,0,0,1-1.527-.1l-.383-.053A10.915,10.915,0,0,0,4.64,5.913Zm6.75,4.435c-.756,0-1.109-1.1-1.109-1.849s.352-1.848,1.109-1.848S12.5,7.754,12.5,8.5,12.146,10.348,11.39,10.348Zm-6.652,0c-.756,0-1.109-1.1-1.109-1.849s.352-1.848,1.109-1.848S5.846,7.754,5.846,8.5,5.493,10.348,4.738,10.348Z" transform="translate(0.068 0)" fill="#fff"/>
</svg>
