<svg xmlns="http://www.w3.org/2000/svg" width="214" height="65" viewBox="0 0 214 65">
  <g id="Page-1" transform="translate(-44.5 -42.5)">
    <g id="Landing-Slide-1" transform="translate(-325 -356)">
      <g id="Group-23" transform="translate(370 399)">
        <g id="button">
          <rect id="Rectangle_1" data-name="Rectangle 1" width="213" height="64" rx="9" stroke="#fff" stroke-width="1"/>
          <rect id="Rectangle_2" data-name="Rectangle 2" width="212" height="63" rx="9" transform="translate(0.5 0.5)" fill="#fff" stroke="#fff" stroke-width="1"/>
        </g>
        <g id="Group-4" transform="translate(67 14)">
          <path id="Downloadon" d="M3.07.4H6.212c2.717,0,4.323,1.7,4.323,4.577S8.935,9.56,6.212,9.56H3.07ZM4.212,1.428v7.1H6.136c2.076,0,3.231-1.27,3.231-3.542,0-2.292-1.149-3.561-3.231-3.561Zm11.457,8.2c-1.923,0-3.155-1.365-3.155-3.485s1.231-3.485,3.155-3.485,3.155,1.358,3.155,3.485S17.592,9.623,15.669,9.623Zm0-.984c1.276,0,2.031-.933,2.031-2.5s-.755-2.5-2.031-2.5-2.031.933-2.031,2.5S14.4,8.639,15.669,8.639ZM29.683,2.717,27.766,9.56H26.649L25.088,4.24h-.025L23.5,9.56H22.384L20.467,2.717h1.092l1.39,5.592h.025l1.568-5.592h1.066l1.568,5.592H27.2l1.39-5.592Zm1.98,6.843V2.717H32.7V3.828h.025A2.452,2.452,0,0,1,37.27,5.174V9.56h-1.1V5.36c0-1.117-.521-1.727-1.6-1.727a1.752,1.752,0,0,0-1.8,1.949V9.56Zm8.181,0V0h1.1V9.56Zm6.524.063c-1.923,0-3.155-1.365-3.155-3.485s1.231-3.485,3.155-3.485,3.155,1.358,3.155,3.485-1.231,3.485-3.155,3.485Zm0-.984c1.276,0,2.031-.933,2.031-2.5s-.755-2.5-2.031-2.5-2.031.933-2.031,2.5.763,2.5,2.031,2.5Zm7.591.025A1.778,1.778,0,0,0,55.9,6.957V6.4l-1.79.114c-1.028.063-1.562.438-1.562,1.1,0,.638.552,1.051,1.411,1.051Zm-.235.958A2.051,2.051,0,0,1,51.413,7.61c0-1.174.9-1.866,2.564-1.968L55.9,5.529V4.958c0-.851-.559-1.32-1.568-1.32A1.418,1.418,0,0,0,52.81,4.691H51.75a2.36,2.36,0,0,1,2.59-2.038c1.619,0,2.66.863,2.66,2.209v4.7H55.952V8.373h-.025a2.439,2.439,0,0,1-2.2,1.25Zm8.378,0c-1.72,0-2.933-1.4-2.933-3.485s1.206-3.485,2.907-3.485A2.387,2.387,0,0,1,64.26,3.828h.025V0h1.1V9.56H64.337V8.4h-.019A2.414,2.414,0,0,1,62.1,9.623Zm.2-5.986c-1.2,0-2,.99-2,2.5s.8,2.5,2,2.5S64.3,7.627,64.3,6.136s-.809-2.5-2-2.5ZM74.96,9.623c-1.923,0-3.155-1.365-3.155-3.485s1.231-3.485,3.155-3.485,3.155,1.358,3.155,3.485S76.884,9.623,74.96,9.623Zm0-.984c1.276,0,2.031-.933,2.031-2.5s-.755-2.5-2.031-2.5-2.031.933-2.031,2.5S73.691,8.639,74.96,8.639Zm5.356.92V2.717h1.041V3.828h.025a2.452,2.452,0,0,1,4.545,1.346V9.56h-1.1V5.36c0-1.117-.521-1.727-1.6-1.727a1.752,1.752,0,0,0-1.8,1.949V9.56Z" fill="#4a4a4a" opacity="0.524"/>
          <path id="GooglePlay" d="M10.857,23.979h3.108v5.964a8.88,8.88,0,0,1-2.772,1.386,10.762,10.762,0,0,1-3.171.483,8.593,8.593,0,0,1-4.116-.976A7.269,7.269,0,0,1,1.04,28.127a7.9,7.9,0,0,1,0-7.833,7.234,7.234,0,0,1,2.888-2.709,8.762,8.762,0,0,1,4.158-.977,9.1,9.1,0,0,1,3.507.651,6.949,6.949,0,0,1,2.646,1.89l-2.184,2.016a5.051,5.051,0,0,0-3.8-1.659,5.188,5.188,0,0,0-2.5.588,4.218,4.218,0,0,0-1.7,1.659,5.219,5.219,0,0,0,0,4.893,4.308,4.308,0,0,0,1.691,1.67,5.01,5.01,0,0,0,2.468.6,5.514,5.514,0,0,0,2.646-.63Zm11.4,7.749a6.775,6.775,0,0,1-3.2-.746,5.542,5.542,0,0,1-2.216-2.068,6.049,6.049,0,0,1,0-6.006,5.542,5.542,0,0,1,2.216-2.069,7.219,7.219,0,0,1,6.392,0,5.559,5.559,0,0,1,2.2,2.069,6.049,6.049,0,0,1,0,6.006,5.559,5.559,0,0,1-2.2,2.068,6.712,6.712,0,0,1-3.189.746Zm0-2.688a2.729,2.729,0,0,0,2.069-.851,3.17,3.17,0,0,0,.808-2.278,3.17,3.17,0,0,0-.808-2.279,2.729,2.729,0,0,0-2.069-.85,2.762,2.762,0,0,0-2.079.85,3.146,3.146,0,0,0-.819,2.279,3.146,3.146,0,0,0,.819,2.278,2.762,2.762,0,0,0,2.082.851Zm13.755,2.688a6.775,6.775,0,0,1-3.2-.746A5.542,5.542,0,0,1,30.6,28.914a6.049,6.049,0,0,1,0-6.006,5.542,5.542,0,0,1,2.215-2.069,7.229,7.229,0,0,1,6.4,0,5.559,5.559,0,0,1,2.2,2.069,6.049,6.049,0,0,1,0,6.006,5.559,5.559,0,0,1-2.2,2.068,6.712,6.712,0,0,1-3.195.746Zm0-2.688a2.729,2.729,0,0,0,2.069-.851,3.17,3.17,0,0,0,.808-2.278,3.17,3.17,0,0,0-.808-2.279,2.729,2.729,0,0,0-2.069-.85,2.762,2.762,0,0,0-2.079.85,3.146,3.146,0,0,0-.819,2.279,3.146,3.146,0,0,0,.819,2.278,2.762,2.762,0,0,0,2.082.851Zm20.034-8.778V29.67a6.038,6.038,0,0,1-1.617,4.62,6.676,6.676,0,0,1-4.722,1.51,11.817,11.817,0,0,1-3.108-.4,6.8,6.8,0,0,1-2.436-1.155l1.3-2.352a5.358,5.358,0,0,0,1.806.935,7.186,7.186,0,0,0,2.184.347,3.542,3.542,0,0,0,2.509-.767,3.055,3.055,0,0,0,.808-2.32v-.483a4.584,4.584,0,0,1-3.57,1.407,6,6,0,0,1-2.846-.682,5.2,5.2,0,0,1-2.044-1.92,5.773,5.773,0,0,1,0-5.712,5.2,5.2,0,0,1,2.047-1.921,6,6,0,0,1,2.846-.683,4.484,4.484,0,0,1,3.738,1.617V20.262Zm-6.195,8.064a3.017,3.017,0,0,0,2.132-.767,2.839,2.839,0,0,0,0-4.011,3.017,3.017,0,0,0-2.132-.766,3.055,3.055,0,0,0-2.142.766,2.814,2.814,0,0,0,0,4.011,3.055,3.055,0,0,0,2.145.767Zm9.24-12.348H62.37V31.56H59.094Zm17.388,9.975q0,.063-.063.882H67.872a2.662,2.662,0,0,0,1.092,1.659,3.617,3.617,0,0,0,2.142.609,4.337,4.337,0,0,0,1.564-.263,3.789,3.789,0,0,0,1.271-.83l1.743,1.89a5.858,5.858,0,0,1-4.662,1.827,7.375,7.375,0,0,1-3.381-.746,5.465,5.465,0,0,1-2.268-2.068,5.7,5.7,0,0,1-.8-3,5.773,5.773,0,0,1,.788-2.993,5.517,5.517,0,0,1,2.163-2.079,6.7,6.7,0,0,1,6.08-.031,5.211,5.211,0,0,1,2.11,2.048,6.1,6.1,0,0,1,.768,3.095ZM70.62,22.572a2.821,2.821,0,0,0-1.869.63,2.682,2.682,0,0,0-.924,1.722h5.565a2.709,2.709,0,0,0-.924-1.712,2.762,2.762,0,0,0-1.845-.64ZM91.2,16.86a8.166,8.166,0,0,1,3.391.651,5.039,5.039,0,0,1,2.215,1.848,5.091,5.091,0,0,1,.777,2.835,5.1,5.1,0,0,1-.777,2.825,4.949,4.949,0,0,1-2.215,1.848,8.283,8.283,0,0,1-3.391.64H88.242V31.56h-3.4V16.86Zm-.189,7.875a3.573,3.573,0,0,0,2.331-.662,2.3,2.3,0,0,0,.8-1.879,2.328,2.328,0,0,0-.8-1.9,3.573,3.573,0,0,0-2.331-.662H88.242v5.1Zm8.967-8.757h3.276V31.56H99.981Zm10.878,4.116a5.88,5.88,0,0,1,4.032,1.25,4.782,4.782,0,0,1,1.407,3.77V31.56h-3.066V30.153a3.651,3.651,0,0,1-3.444,1.575,5.343,5.343,0,0,1-2.257-.441,3.362,3.362,0,0,1-1.46-1.218,3.17,3.17,0,0,1-.5-1.764,2.942,2.942,0,0,1,1.187-2.478,6.045,6.045,0,0,1,3.664-.9h2.6a2.088,2.088,0,0,0-.651-1.648,2.867,2.867,0,0,0-1.953-.578,5.7,5.7,0,0,0-1.774.284,4.7,4.7,0,0,0-1.481.767l-1.176-2.289a7.093,7.093,0,0,1,2.215-1.008,9.934,9.934,0,0,1,2.66-.361Zm-.252,9.429a2.853,2.853,0,0,0,1.491-.389,2.126,2.126,0,0,0,.924-1.145V26.835h-2.247q-2.016,0-2.016,1.323a1.179,1.179,0,0,0,.494,1,2.221,2.221,0,0,0,1.357.365Zm19.866-9.261-5.1,11.991A5.9,5.9,0,0,1,123.449,35a4.71,4.71,0,0,1-2.762.8,5.735,5.735,0,0,1-1.743-.273,3.848,3.848,0,0,1-1.407-.756l1.2-2.331a2.81,2.81,0,0,0,.871.525,2.723,2.723,0,0,0,.977.189,1.732,1.732,0,0,0,1.092-.326,2.763,2.763,0,0,0,.756-1.082l.042-.1-4.893-11.382h3.381l3.171,7.665,3.192-7.665Z" fill="#4a4a4a"/>
        </g>
        <path id="logo" d="M18,49.264V14.74A3.047,3.047,0,0,1,19.712,12l19.97,20L19.7,52A3.046,3.046,0,0,1,18,49.264ZM46.018,38.34,24.182,50.963,41.4,33.719Zm6.787-8.758a3.049,3.049,0,0,1,.033,4.815L48.2,37.078,43.124,32,48.2,26.917ZM24.194,13.042l21.82,12.614L41.4,30.273Z" fill="#78c029"/>
      </g>
    </g>
  </g>
</svg>
