<?xml version="1.0" encoding="UTF-8"?>
<svg width="303px" height="154px" viewBox="0 0 303 154" version="1.1" xmlns="http://www.w3.org/2000/svg" xmlns:xlink="http://www.w3.org/1999/xlink">
    <!-- Generator: Sketch 55.2 (78181) - https://sketchapp.com -->
    <title>Group 24</title>
    <desc>Created with Sketch.</desc>
    <defs>
        <rect id="path-1" x="0" y="0" width="213" height="64" rx="9"></rect>
        <filter x="-32.2%" y="-103.9%" width="164.3%" height="314.1%" filterUnits="objectBoundingBox" id="filter-2">
            <feOffset dx="0" dy="2" in="SourceAlpha" result="shadowOffsetOuter1"></feOffset>
            <feGaussianBlur stdDeviation="22.5" in="shadowOffsetOuter1" result="shadowBlurOuter1"></feGaussianBlur>
            <feComposite in="shadowBlurOuter1" in2="SourceAlpha" operator="out" result="shadowBlurOuter1"></feComposite>
            <feColorMatrix values="0 0 0 0 0   0 0 0 0 0   0 0 0 0 0  0 0 0 0.07 0" type="matrix" in="shadowBlurOuter1"></feColorMatrix>
        </filter>
    </defs>
    <g id="Page-1" stroke="none" stroke-width="1" fill="none" fill-rule="evenodd">
        <g id="Landing-Slide-1" transform="translate(-91.000000, -356.000000)">
            <g id="Group-24" transform="translate(136.000000, 399.000000)">
                <g id="button">
                    <use fill="black" fill-opacity="1" filter="url(#filter-2)" xlink:href="#path-1"></use>
                    <rect stroke="#FFFFFF" stroke-width="1" stroke-linejoin="square" fill="#FFFFFF" fill-rule="evenodd" x="0.5" y="0.5" width="212" height="63" rx="9"></rect>
                </g>
                <g id="Group-3" transform="translate(68.000000, 14.000000)" fill="#4A4A4A" fill-rule="nonzero">
                    <path d="M1.08667187,0.399902344 L4.22876172,0.399902344 C6.94555859,0.399902344 8.55151562,2.09472656 8.55151562,4.9765625 C8.55151562,7.86474609 6.95190625,9.55957031 4.22876172,9.55957031 L1.08667187,9.55957031 L1.08667187,0.399902344 Z M2.22925,1.42822266 L2.22925,8.53125 L4.15258984,8.53125 C6.22827344,8.53125 7.38354687,7.26171875 7.38354687,4.98925781 C7.38354687,2.69775391 6.23462109,1.42822266 4.15258984,1.42822266 L2.22925,1.42822266 Z M13.6857539,9.62304688 C11.7624141,9.62304688 10.5309688,8.25830078 10.5309688,6.13818359 C10.5309688,4.01171875 11.7624141,2.65332031 13.6857539,2.65332031 C15.6090938,2.65332031 16.8405391,4.01171875 16.8405391,6.13818359 C16.8405391,8.25830078 15.6090938,9.62304688 13.6857539,9.62304688 Z M13.6857539,8.63916016 C14.9616329,8.63916016 15.7170039,7.70605469 15.7170039,6.13818359 C15.7170039,4.56396484 14.9616329,3.63720703 13.6857539,3.63720703 C12.409875,3.63720703 11.6545039,4.5703125 11.6545039,6.13818359 C11.6545039,7.70605469 12.4162227,8.63916016 13.6857539,8.63916016 Z M27.7003634,2.71679688 L25.7833712,9.55957031 L24.6661837,9.55957031 L23.1046602,4.24023438 L23.0792696,4.24023438 L21.5177462,9.55957031 L20.4005587,9.55957031 L18.4835665,2.71679688 L19.5753634,2.71679688 L20.9655001,8.30908203 L20.9908907,8.30908203 L22.5587618,2.71679688 L23.6251681,2.71679688 L25.1930391,8.30908203 L25.2184298,8.30908203 L26.6085665,2.71679688 L27.7003634,2.71679688 Z M29.6798165,9.55957031 L29.6798165,2.71679688 L30.7208322,2.71679688 L30.7208322,3.82763672 L30.7462228,3.82763672 C31.1778634,3.05322266 31.8570626,2.65332031 32.9171212,2.65332031 C34.4215157,2.65332031 35.2911447,3.61816406 35.2911447,5.17333984 L35.2911447,9.55957031 L34.1866525,9.55957031 L34.1866525,5.36376953 C34.1866525,4.24658203 33.6661447,3.63720703 32.5870431,3.63720703 C31.4635079,3.63720703 30.7843087,4.41162109 30.7843087,5.5859375 L30.7843087,9.55957031 L29.6798165,9.55957031 Z M37.8609299,9.55957031 L37.8609299,0 L38.965422,0 L38.965422,9.55957031 L37.8609299,9.55957031 Z M44.3853049,9.62304688 C42.4619651,9.62304688 41.2305197,8.25830078 41.2305197,6.13818359 C41.2305197,4.01171875 42.4619651,2.65332031 44.3853049,2.65332031 C46.3086447,2.65332031 47.5400901,4.01171875 47.5400901,6.13818359 C47.5400901,8.25830078 46.3086447,9.62304688 44.3853049,9.62304688 Z M44.3853049,8.63916016 C45.6611838,8.63916016 46.4165549,7.70605469 46.4165549,6.13818359 C46.4165549,4.56396484 45.6611838,3.63720703 44.3853049,3.63720703 C43.109426,3.63720703 42.3540549,4.5703125 42.3540549,6.13818359 C42.3540549,7.70605469 43.1157736,8.63916016 44.3853049,8.63916016 Z M51.9760862,8.66455078 C53.0932737,8.66455078 53.9121213,7.94091797 53.9121213,6.95703125 L53.9121213,6.40478516 L52.1220823,6.51904297 C51.093762,6.58251953 50.5605588,6.95703125 50.5605588,7.6171875 C50.5605588,8.25195312 51.1128049,8.66455078 51.9760862,8.66455078 Z M51.7412229,9.62304688 C50.3510862,9.62304688 49.430676,8.82324219 49.430676,7.61083984 C49.430676,6.43652344 50.3320432,5.74462891 51.9951292,5.64306641 L53.9121213,5.52880859 L53.9121213,4.95751953 C53.9121213,4.10693359 53.3535276,3.63720703 52.3442502,3.63720703 C51.5507932,3.63720703 50.9604612,4.04345703 50.8271604,4.69091797 L49.7671018,4.69091797 C49.7988401,3.53564453 50.9223752,2.65332031 52.3569456,2.65332031 C53.9755979,2.65332031 55.0166135,3.51660156 55.0166135,4.86230469 L55.0166135,9.55957031 L53.9692502,9.55957031 L53.9692502,8.37255859 L53.9438596,8.37255859 C53.5566526,9.13427734 52.699719,9.62304688 51.7412229,9.62304688 Z M60.1191136,9.62304688 C58.3988987,9.62304688 57.1864964,8.2265625 57.1864964,6.13818359 C57.1864964,4.04980469 58.3925511,2.65332031 60.0937229,2.65332031 C61.071262,2.65332031 61.8583714,3.07861328 62.2773167,3.82763672 L62.3027073,3.82763672 L62.3027073,0 L63.4071995,0 L63.4071995,9.55957031 L62.3534886,9.55957031 L62.3534886,8.40429688 L62.3344456,8.40429688 C61.8901097,9.19140625 61.1093479,9.62304688 60.1191136,9.62304688 Z M60.3158909,3.63720703 C59.1161839,3.63720703 58.3163792,4.62744141 58.3163792,6.13818359 C58.3163792,7.65527344 59.1161839,8.63916016 60.3158909,8.63916016 C61.5029026,8.63916016 62.309055,7.62988281 62.309055,6.13818359 C62.309055,4.65283203 61.5029026,3.63720703 60.3158909,3.63720703 Z M72.977434,9.62304688 C71.0540941,9.62304688 69.8226488,8.25830078 69.8226488,6.13818359 C69.8226488,4.01171875 71.0540941,2.65332031 72.977434,2.65332031 C74.9007738,2.65332031 76.1322191,4.01171875 76.1322191,6.13818359 C76.1322191,8.25830078 74.9007738,9.62304688 72.977434,9.62304688 Z M72.977434,8.63916016 C74.2533129,8.63916016 75.008684,7.70605469 75.008684,6.13818359 C75.008684,4.56396484 74.2533129,3.63720703 72.977434,3.63720703 C71.7015551,3.63720703 70.946184,4.5703125 70.946184,6.13818359 C70.946184,7.70605469 71.7079027,8.63916016 72.977434,8.63916016 Z M78.3338403,9.55957031 L78.3338403,2.71679688 L79.3748559,2.71679688 L79.3748559,3.82763672 L79.4002465,3.82763672 C79.8318871,3.05322266 80.5110864,2.65332031 81.5711449,2.65332031 C83.0755395,2.65332031 83.9451684,3.61816406 83.9451684,5.17333984 L83.9451684,9.55957031 L82.8406762,9.55957031 L82.8406762,5.36376953 C82.8406762,4.24658203 82.3201684,3.63720703 81.2410668,3.63720703 C80.1175317,3.63720703 79.4383324,4.41162109 79.4383324,5.5859375 L79.4383324,9.55957031 L78.3338403,9.55957031 Z M90.963645,1.17431641 L92.0681372,1.17431641 L92.0681372,2.71679688 L93.401145,2.71679688 L93.401145,3.63085938 L92.0681372,3.63085938 L92.0681372,7.73779297 C92.0681372,8.36621094 92.3347388,8.65185547 92.9187232,8.65185547 C93.0520239,8.65185547 93.3186255,8.6328125 93.3947974,8.62011719 L93.3947974,9.55322266 C93.2614966,9.58496094 92.9441138,9.61035156 92.6838599,9.61035156 C91.4460669,9.61035156 90.963645,9.09619141 90.963645,7.78222656 L90.963645,3.63085938 L90.0114966,3.63085938 L90.0114966,2.71679688 L90.963645,2.71679688 L90.963645,1.17431641 Z M95.7297193,9.55957031 L95.7297193,0 L96.8342115,0 L96.8342115,3.82763672 L96.8596021,3.82763672 C97.2848951,3.05322266 97.9831373,2.65332031 99.0305005,2.65332031 C100.528547,2.65332031 101.44261,3.66894531 101.44261,5.19238281 L101.44261,9.55957031 L100.338118,9.55957031 L100.338118,5.38916016 C100.338118,4.29736328 99.7858716,3.63720703 98.7004224,3.63720703 C97.545149,3.63720703 96.8342115,4.42431641 96.8342115,5.62402344 L96.8342115,9.55957031 L95.7297193,9.55957031 Z M106.678411,3.62451172 C105.605657,3.62451172 104.831243,4.40527344 104.755071,5.56054688 L108.519231,5.56054688 C108.49384,4.39892578 107.757512,3.62451172 106.678411,3.62451172 Z M108.49384,7.60449219 L109.585637,7.60449219 C109.395208,8.77880859 108.208196,9.62304688 106.748235,9.62304688 C104.824895,9.62304688 103.612493,8.28369141 103.612493,6.16357422 C103.612493,4.04345703 104.831243,2.65332031 106.697454,2.65332031 C108.525579,2.65332031 109.668157,3.94189453 109.668157,6.01123047 L109.668157,6.44287109 L104.755071,6.44287109 L104.755071,6.50634766 C104.755071,7.80761719 105.554876,8.65185547 106.773626,8.65185547 C107.630559,8.65185547 108.297063,8.24560547 108.49384,7.60449219 Z" id="Downloadonthe" opacity="0.523507254"></path>
                    <path d="M12.166,29.2595703 L5.016,29.2595703 L3.652,32.5595703 L7.10542736e-15,32.5595703 L6.864,17.1595703 L10.384,17.1595703 L17.27,32.5595703 L13.53,32.5595703 L12.166,29.2595703 Z M11.044,26.5535703 L8.602,20.6575703 L6.16,26.5535703 L11.044,26.5535703 Z M25.63,20.5475703 C26.7300055,20.5475703 27.7309955,20.8005678 28.633,21.3065703 C29.5350045,21.8125728 30.2426641,22.5238991 30.756,23.4405703 C31.2693359,24.3572416 31.526,25.4242309 31.526,26.6415703 C31.526,27.8589097 31.2693359,28.9258991 30.756,29.8425703 C30.2426641,30.7592416 29.5350045,31.4705678 28.633,31.9765703 C27.7309955,32.4825728 26.7300055,32.7355703 25.63,32.7355703 C24.1193258,32.7355703 22.9313377,32.2589084 22.066,31.3055703 L22.066,36.8275703 L18.634,36.8275703 L18.634,20.7235703 L21.912,20.7235703 L21.912,22.0875703 C22.7626709,21.0608985 24.0019919,20.5475703 25.63,20.5475703 Z M25.036,29.9195703 C25.9160044,29.9195703 26.6383305,29.6225733 27.203,29.0285703 C27.7676695,28.4345673 28.05,27.6389086 28.05,26.6415703 C28.05,25.644232 27.7676695,24.8485733 27.203,24.2545703 C26.6383305,23.6605673 25.9160044,23.3635703 25.036,23.3635703 C24.1559956,23.3635703 23.4336695,23.6605673 22.869,24.2545703 C22.3043305,24.8485733 22.022,25.644232 22.022,26.6415703 C22.022,27.6389086 22.3043305,28.4345673 22.869,29.0285703 C23.4336695,29.6225733 24.1559956,29.9195703 25.036,29.9195703 Z M40.81,20.5475703 C41.9100055,20.5475703 42.9109955,20.8005678 43.813,21.3065703 C44.7150045,21.8125728 45.4226641,22.5238991 45.936,23.4405703 C46.4493359,24.3572416 46.706,25.4242309 46.706,26.6415703 C46.706,27.8589097 46.4493359,28.9258991 45.936,29.8425703 C45.4226641,30.7592416 44.7150045,31.4705678 43.813,31.9765703 C42.9109955,32.4825728 41.9100055,32.7355703 40.81,32.7355703 C39.2993258,32.7355703 38.1113377,32.2589084 37.246,31.3055703 L37.246,36.8275703 L33.814,36.8275703 L33.814,20.7235703 L37.092,20.7235703 L37.092,22.0875703 C37.9426709,21.0608985 39.1819919,20.5475703 40.81,20.5475703 Z M40.216,29.9195703 C41.0960044,29.9195703 41.8183305,29.6225733 42.383,29.0285703 C42.9476695,28.4345673 43.23,27.6389086 43.23,26.6415703 C43.23,25.644232 42.9476695,24.8485733 42.383,24.2545703 C41.8183305,23.6605673 41.0960044,23.3635703 40.216,23.3635703 C39.3359956,23.3635703 38.6136695,23.6605673 38.049,24.2545703 C37.4843305,24.8485733 37.202,25.644232 37.202,26.6415703 C37.202,27.6389086 37.4843305,28.4345673 38.049,29.0285703 C38.6136695,29.6225733 39.3359956,29.9195703 40.216,29.9195703 Z M60.522,32.8235703 C59.3046606,32.8235703 58.1276723,32.658572 56.991,32.3285703 C55.8543276,31.9985687 54.9413368,31.569573 54.252,31.0415703 L55.462,28.3575703 C56.1220033,28.8415727 56.9066621,29.2302355 57.816,29.5235703 C58.7253379,29.8169051 59.6346621,29.9635703 60.544,29.9635703 C61.5560051,29.9635703 62.3039976,29.8132385 62.788,29.5125703 C63.2720024,29.2119021 63.514,28.8122395 63.514,28.3135703 C63.514,27.9469018 63.3710014,27.6425715 63.085,27.4005703 C62.7989986,27.1585691 62.4323356,26.9642377 61.985,26.8175703 C61.5376644,26.6709029 60.9326705,26.5095712 60.17,26.3335703 C58.9966608,26.0549023 58.0360037,25.7762384 57.288,25.4975703 C56.5399963,25.2189023 55.898336,24.7715734 55.363,24.1555703 C54.827664,23.5395672 54.56,22.7182421 54.56,21.6915703 C54.56,20.7968992 54.8019976,19.9865739 55.286,19.2605703 C55.7700024,18.5345667 56.4996618,17.9589058 57.475,17.5335703 C58.4503382,17.1082349 59.641993,16.8955703 61.05,16.8955703 C62.0326716,16.8955703 62.9933286,17.0129025 63.932,17.2475703 C64.8706714,17.4822382 65.6919965,17.8195681 66.396,18.2595703 L65.296,20.9655703 C63.8733262,20.1588996 62.4506738,19.7555703 61.028,19.7555703 C60.0306617,19.7555703 59.293669,19.916902 58.817,20.2395703 C58.3403309,20.5622386 58.102,20.9875677 58.102,21.5155703 C58.102,22.043573 58.3769973,22.4359024 58.927,22.6925703 C59.4770028,22.9492383 60.316661,23.2022357 61.446,23.4515703 C62.6193392,23.7302384 63.5799963,24.0089023 64.328,24.2875703 C65.0760037,24.5662384 65.717664,25.006234 66.253,25.6075703 C66.788336,26.2089067 67.056,27.0228985 67.056,28.0495703 C67.056,28.9295747 66.8103358,29.7325667 66.319,30.4585703 C65.8276642,31.1845739 65.0906716,31.7602349 64.108,32.1855703 C63.1253284,32.6109058 61.930007,32.8235703 60.522,32.8235703 Z M76.89,31.9875703 C76.552665,32.2369049 76.1383358,32.423903 75.647,32.5485703 C75.1556642,32.6732376 74.6386694,32.7355703 74.096,32.7355703 C72.687993,32.7355703 71.5990039,32.3762406 70.829,31.6575703 C70.0589962,30.9389001 69.674,29.8829106 69.674,28.4895703 L69.674,23.6275703 L67.848,23.6275703 L67.848,20.9875703 L69.674,20.9875703 L69.674,18.1055703 L73.106,18.1055703 L73.106,20.9875703 L76.054,20.9875703 L76.054,23.6275703 L73.106,23.6275703 L73.106,28.4455703 C73.106,28.9442395 73.2343321,29.3292356 73.491,29.6005703 C73.7476679,29.871905 74.1106643,30.0075703 74.58,30.0075703 C75.1226694,30.0075703 75.5846648,29.8609051 75.966,29.5675703 L76.89,31.9875703 Z M84.458,32.7355703 C83.2113271,32.7355703 82.0930049,32.4752396 81.103,31.9545703 C80.1129951,31.433901 79.3393361,30.7115749 78.782,29.7875703 C78.2246639,28.8635657 77.946,27.8149095 77.946,26.6415703 C77.946,25.4682311 78.2246639,24.4195749 78.782,23.4955703 C79.3393361,22.5715657 80.1129951,21.8492396 81.103,21.3285703 C82.0930049,20.807901 83.2113271,20.5475703 84.458,20.5475703 C85.7046729,20.5475703 86.8193284,20.807901 87.802,21.3285703 C88.7846716,21.8492396 89.5546639,22.5715657 90.112,23.4955703 C90.6693361,24.4195749 90.948,25.4682311 90.948,26.6415703 C90.948,27.8149095 90.6693361,28.8635657 90.112,29.7875703 C89.5546639,30.7115749 88.7846716,31.433901 87.802,31.9545703 C86.8193284,32.4752396 85.7046729,32.7355703 84.458,32.7355703 Z M84.458,29.9195703 C85.3380044,29.9195703 86.0603305,29.6225733 86.625,29.0285703 C87.1896695,28.4345673 87.472,27.6389086 87.472,26.6415703 C87.472,25.644232 87.1896695,24.8485733 86.625,24.2545703 C86.0603305,23.6605673 85.3380044,23.3635703 84.458,23.3635703 C83.5779956,23.3635703 82.8520029,23.6605673 82.28,24.2545703 C81.7079971,24.8485733 81.422,25.644232 81.422,26.6415703 C81.422,27.6389086 81.7079971,28.4345673 82.28,29.0285703 C82.8520029,29.6225733 83.5779956,29.9195703 84.458,29.9195703 Z M96.514,22.2855703 C96.9246687,21.7135675 97.4783298,21.2809051 98.175,20.9875703 C98.8716701,20.6942355 99.6746621,20.5475703 100.584,20.5475703 L100.584,23.7155703 C100.202665,23.6862368 99.9460007,23.6715703 99.814,23.6715703 C98.8313284,23.6715703 98.0613361,23.9465676 97.504,24.4965703 C96.9466639,25.0465731 96.668,25.8715648 96.668,26.9715703 L96.668,32.5595703 L93.236,32.5595703 L93.236,20.7235703 L96.514,20.7235703 L96.514,22.2855703 Z M114.312,26.6855703 C114.312,26.7295705 114.29,27.0375675 114.246,27.6095703 L105.292,27.6095703 C105.453334,28.3429073 105.834664,28.9222349 106.436,29.3475703 C107.037336,29.7729058 107.785329,29.9855703 108.68,29.9855703 C109.296003,29.9855703 109.842331,29.8939046 110.319,29.7105703 C110.795669,29.5272361 111.239331,29.2375723 111.65,28.8415703 L113.476,30.8215703 C112.361328,32.0975767 110.733344,32.7355703 108.592,32.7355703 C107.257327,32.7355703 106.076672,32.4752396 105.05,31.9545703 C104.023328,31.433901 103.231336,30.7115749 102.674,29.7875703 C102.116664,28.8635657 101.838,27.8149095 101.838,26.6415703 C101.838,25.4828979 102.112997,24.4379083 102.663,23.5065703 C103.213003,22.5752323 103.968329,21.8492396 104.929,21.3285703 C105.889671,20.807901 106.963994,20.5475703 108.152,20.5475703 C109.310672,20.5475703 110.359329,20.7969012 111.298,21.2955703 C112.236671,21.7942395 112.973664,22.5092323 113.509,23.4405703 C114.044336,24.3719083 114.312,25.4535642 114.312,26.6855703 Z M108.174,23.1435703 C107.396663,23.1435703 106.744003,23.3635681 106.216,23.8035703 C105.687997,24.2435725 105.365334,24.8448998 105.248,25.6075703 L111.078,25.6075703 C110.960666,24.8595666 110.638003,24.2619059 110.11,23.8145703 C109.581997,23.3672347 108.93667,23.1435703 108.174,23.1435703 Z" id="AppStore"></path>
                </g>
                <path d="M48.1082422,47.7856457 C46.3662295,50.3460053 44.5642774,52.890616 41.7192555,52.9439524 C38.9192928,52.9972889 38.0216701,51.2770833 34.8266528,51.2770833 C31.6282823,51.2770833 30.6277567,52.890616 27.9841183,52.9972889 C25.2375352,53.100602 23.149069,50.2319829 21.3927002,47.6831725 C17.8044936,42.4717394 15.0658325,32.9478233 18.7490409,26.520529 C20.5729567,23.3285945 23.8412005,21.3090329 27.3828389,21.2557174 C30.0801293,21.2058247 32.6281791,23.0834148 34.2756721,23.0834148 C35.9256801,23.0834148 39.0184233,20.8291518 42.269817,21.1597958 C43.6308168,21.2163031 47.4505863,21.7109881 49.9036973,25.318758 C49.7098376,25.4468285 45.3443269,27.9995026 45.3975597,33.3176086 C45.4510021,39.6703158 50.9362883,41.7819353 51,41.8107034 C50.95033,41.9600034 50.1231255,44.8252627 48.1082422,47.7856457 Z M36.1629224,14.1812253 C37.6687407,12.4077463 40.2130181,11.0886351 42.3127805,11 C42.5810404,13.463451 41.5949757,15.9303039 40.1386179,17.7078776 C38.679326,19.4822595 36.2905554,20.8644715 33.9462154,20.6799148 C33.6276568,18.2697792 34.8092578,15.7562044 36.1629224,14.1812253 Z" id="logo" fill="#78C029" fill-rule="nonzero"></path>
            </g>
        </g>
    </g>
</svg>