<?xml version="1.0" encoding="UTF-8"?>
<svg width="54px" height="47px" viewBox="0 0 54 47" version="1.1" xmlns="http://www.w3.org/2000/svg" xmlns:xlink="http://www.w3.org/1999/xlink">
    <!-- Generator: Sketch 55.2 (78181) - https://sketchapp.com -->
    <title>icon-4</title>
    <desc>Created with Sketch.</desc>
    <g id="Page-1" stroke="none" stroke-width="1" fill="none" fill-rule="evenodd">
        <g id="Landing-Slide-1" transform="translate(-182.000000, -3110.000000)" fill="#C8102E">
            <g id="icon-4" transform="translate(182.000000, 3110.000000)">
                <circle id="Oval-Copy-3" opacity="0.240676153" cx="43" cy="36" r="11"></circle>
                <g id="database" fill-rule="nonzero">
                    <path d="M40.2727311,25 L25.7272689,25 C24.2236062,25 23,26.2113681 23,27.6999916 L23,36.6999916 C23,38.188615 24.2236062,39.3999831 25.7272689,39.3999831 L32.0909246,39.3999831 L32.0909246,41.1999494 L29.3636557,41.1999494 C28.8618383,41.1999494 28.4545377,41.6031762 28.4545377,42.0999747 C28.4545377,42.5967731 28.8618383,43 29.3636557,43 L36.6363443,43 C37.1381617,43 37.5454623,42.5967731 37.5454623,42.0999747 C37.5454623,41.6031762 37.1381617,41.1999494 36.6363443,41.1999494 L33.9090754,41.1999494 L33.9090754,39.3999831 L40.2727311,39.3999831 C41.7763938,39.3999831 43,38.188615 43,36.6999916 L43,27.6999916 C43,26.2113681 41.7763938,25 40.2727311,25 Z M41.1818492,36.6999072 C41.1818492,37.1967056 40.7745486,37.5999325 40.2727311,37.5999325 L25.7272689,37.5999325 C25.2254514,37.5999325 24.8181508,37.1967056 24.8181508,36.6999072 L24.8181508,35.7998819 L41.1818492,35.7998819 L41.1818492,36.6999072 L41.1818492,36.6999072 Z M41.1818492,33.9999156 L24.8182361,33.9999156 L24.8182361,27.6999072 C24.8182361,27.2031087 25.2255366,26.7998819 25.7273541,26.7998819 L40.2727311,26.7998819 C40.7745486,26.7998819 41.1818492,27.2031087 41.1818492,27.6999072 L41.1818492,33.9999156 Z" id="Shape"></path>
                    <path d="M17.9999578,25.0833613 C18.919729,25.0833613 19.8791563,25.0224727 20.7593557,24.9651113 C21.2561553,24.9328613 21.6305269,24.5064727 21.5981269,24.0119727 C21.5657269,23.5174727 21.1373554,23.1591113 20.6405557,23.177084 C19.7981564,23.2325977 18.8783853,23.2917227 17.9999578,23.2917227 C8.45276527,23.2917227 1.79997047,19.9860977 1.79997047,17.0208613 L1.79997047,11.6136113 C4.68542446,14.3046387 10.7729916,16.125 17.9999578,16.125 C25.226924,16.125 31.3145755,14.3046387 34.1999452,11.6136113 L34.1999452,17.0208613 C34.1999452,18.6656113 32.2361186,20.3677227 28.9457493,21.57525 C28.4795778,21.74725 28.2419779,22.2614863 28.4129216,22.7255 C28.5461496,23.0873887 28.8898931,23.311375 29.2570928,23.311375 C29.3614646,23.311375 29.4659207,23.2934863 29.5685206,23.2558613 C31.562891,22.5248613 33.114546,21.629 34.1999452,20.6221113 L34.1999452,22.3958613 C34.1999452,22.8903613 34.603173,23.2917227 35.0999726,23.2917227 C35.5967722,23.2917227 36,22.8903613 36,22.3958613 L36,8.0625 C36,3.542125 28.0926343,0 18.0000422,0 C7.90745007,0 0,3.542125 0,8.0625 L0,34.9375 C0,39.457875 7.9073657,43 17.9999578,43 C18.935929,43 19.8539282,42.9695137 20.7521838,42.9103887 C21.2472115,42.876375 21.623355,42.4499023 21.5891831,41.9554023 C21.5550113,41.462666 21.1554116,41.1151387 20.6297558,41.1222773 C19.7729283,41.1796387 18.8963571,41.2082773 17.9999578,41.2082773 C8.45276527,41.2082773 1.79997047,37.9026523 1.79997047,34.937416 L1.79997047,29.530166 C4.68534009,32.2212773 10.7729916,34.0415547 17.9999578,34.0415547 C18.9287571,34.0415547 19.8701282,33.9824297 20.7593557,33.9233047 C21.2561553,33.8910547 21.6305269,33.4628184 21.5981269,32.970166 C21.5657269,32.475666 21.1373554,32.115541 20.6405557,32.1352773 C19.7891283,32.1926387 18.8891852,32.249916 17.9999578,32.249916 C8.45276527,32.249916 1.79997047,28.944291 1.79997047,25.9790547 L1.79997047,20.5718047 C4.68542446,23.263 10.7729916,25.0833613 17.9999578,25.0833613 Z M17.9999578,1.79163867 C27.5471504,1.79163867 34.1999452,5.09726367 34.1999452,8.0625 C34.1999452,11.0277363 27.5471504,14.3333613 17.9999578,14.3333613 C8.45276527,14.3333613 1.79997047,11.0277363 1.79997047,8.0625 C1.79997047,5.09726367 8.45276527,1.79163867 17.9999578,1.79163867 Z" id="Shape"></path>
                </g>
            </g>
        </g>
    </g>
</svg>