<?xml version="1.0" encoding="UTF-8"?>
<svg width="49px" height="43px" viewBox="0 0 49 43" version="1.1" xmlns="http://www.w3.org/2000/svg" xmlns:xlink="http://www.w3.org/1999/xlink">
    <!-- Generator: Sketch 55.2 (78181) - https://sketchapp.com -->
    <title>icon-1</title>
    <desc>Created with Sketch.</desc>
    <g id="Page-1" stroke="none" stroke-width="1" fill="none" fill-rule="evenodd">
        <g id="Landing-Slide-1" transform="translate(-176.000000, -2956.000000)" fill="#C8102E">
            <g id="icon-1" transform="translate(176.000000, 2956.000000)">
                <circle id="Oval-Copy-2" opacity="0.240676153" cx="38" cy="32" r="11"></circle>
                <g id="nodes" fill-rule="nonzero">
                    <path d="M35.7734375,22.9227578 L35.7734375,15.0772422 C37.0443594,14.8037461 38,13.6717617 38,12.3203125 C38,10.0876641 35.5229492,8.75462109 33.6646602,9.94338281 L28.0566172,4.33533984 C29.24575,2.47638281 27.911668,0 25.6796875,0 C22.9295117,0 21.8012383,3.56480078 24.0793086,5.14083594 L21.566707,11.2269961 L17.2897773,6.95006641 L21.7321406,5.103875 C22.0349531,4.978 22.178418,4.63050781 22.052543,4.32769531 C21.926668,4.02488281 21.57925,3.88141797 21.2763633,4.00729297 L16.3812656,6.04162891 L14.6886328,4.34884766 C15.8900859,2.49382422 14.5625352,0 12.3203125,0 C10.0876641,0 8.75462109,2.47705078 9.94338281,4.33533984 L4.33541406,9.94338281 C2.47638281,8.75425 -5.68434189e-14,10.088332 -5.68434189e-14,12.3203125 C-5.68434189e-14,14.0779609 1.59681641,15.4114492 3.32989844,15.0936445 L4.95328516,19 L3.32982422,22.9063555 C1.59971094,22.5891445 -5.68434189e-14,23.9193672 -5.68434189e-14,25.6796875 C-5.68434189e-14,27.9123359 2.47705078,29.2453789 4.33533984,28.0566172 L9.94338281,33.6645859 C8.75417578,35.523543 10.088332,38 12.3203125,38 C13.6717617,38 14.8036719,37.0443594 15.077168,35.7734375 L22.9227578,35.7734375 C23.1962539,37.0443594 24.3282383,38 25.6796133,38 C27.2347187,38 28.4999258,36.734793 28.4999258,35.1796875 C28.4999258,33.624582 27.2347187,32.359375 25.6796133,32.359375 C24.3281641,32.359375 23.1962539,33.3150156 22.9227578,34.5859375 L15.2963359,34.5859375 L32.8630977,27.2854844 C34.4501914,29.5682305 38,28.4078945 38,25.6796875 C38,24.3282383 37.0443594,23.1963281 35.7734375,22.9227578 L35.7734375,22.9227578 Z M32.4052422,12.8233672 L30.7618164,13.501875 L27.3614102,5.31955469 L32.820125,10.7781953 C32.4358203,11.3642266 32.2719453,12.0872656 32.4052422,12.8233672 Z M32.8592383,13.9206914 C33.2606875,14.5009336 33.8736602,14.9239062 34.5859375,15.0772422 L34.5859375,22.7038125 L31.2175195,14.5985312 L32.8592383,13.9206914 Z M33.4822305,23.1425195 L26.7730039,16.433293 L30.1198242,15.0516367 L33.4822305,23.1425195 Z M36.8125,12.3203125 C36.8125,13.2206602 36.0800352,13.953125 35.1796875,13.953125 C34.2793398,13.953125 33.546875,13.2206602 33.546875,12.3203125 C33.546875,11.4199648 34.2793398,10.6875 35.1796875,10.6875 C36.0800352,10.6875 36.8125,11.4199648 36.8125,12.3203125 Z M25.6796875,1.1875 C26.5800352,1.1875 27.3125,1.91996484 27.3125,2.8203125 C27.3125,3.72066016 26.5800352,4.453125 25.6796875,4.453125 C24.7793398,4.453125 24.046875,3.72066016 24.046875,2.8203125 C24.046875,1.91996484 24.7793398,1.1875 25.6796875,1.1875 Z M25.1766328,5.59475781 C25.5136602,5.65576563 25.8469766,5.65635938 26.1892734,5.59357031 L29.6641211,13.9549805 L25.86375,15.5239648 L22.4760352,12.1361758 L25.1766328,5.59475781 Z M24.6749883,16.0147734 L20.0939844,17.9060156 L21.9852266,13.3250117 L24.6749883,16.0147734 Z M11.8108008,5.59364453 C12.5296094,5.72538281 13.2516094,5.57538672 13.8488477,5.18863281 L15.1948789,6.53466406 L10.6316133,8.43110156 L11.8108008,5.59364453 Z M9.07710156,9.07710156 L5.31962891,10.6386641 L10.6386641,5.31955469 L9.07710156,9.07710156 Z M12.3203125,1.1875 C13.2206602,1.1875 13.953125,1.91996484 13.953125,2.8203125 C13.953125,3.72066016 13.2206602,4.453125 12.3203125,4.453125 C11.4199648,4.453125 10.6875,3.72066016 10.6875,2.8203125 C10.6875,1.91996484 11.4199648,1.1875 12.3203125,1.1875 Z M1.1875,12.3203125 C1.1875,11.4199648 1.91996484,10.6875 2.8203125,10.6875 C3.72066016,10.6875 4.453125,11.4199648 4.453125,12.3203125 C4.453125,13.2206602 3.72066016,13.953125 2.8203125,13.953125 C1.91996484,13.953125 1.1875,13.2206602 1.1875,12.3203125 Z M4.42610937,14.6369023 C5.32905469,14.0090859 5.79626172,12.9156953 5.59364453,11.8107266 L8.43110156,10.6315391 L5.59631641,17.4527617 L4.42610937,14.6369023 Z M5.59631641,20.5472383 L6.78255469,23.401543 L5.14083594,24.0793086 C4.94749609,23.799875 4.70509766,23.5570312 4.42610937,23.3630977 L5.59631641,20.5472383 Z M5.59475781,25.1765586 L7.23818359,24.498125 L10.6386641,32.6804453 L5.179875,27.2218047 C5.56336328,26.6369609 5.72827734,25.9142188 5.59475781,25.1765586 L5.59475781,25.1765586 Z M1.1875,25.6796875 C1.1875,24.7793398 1.91996484,24.046875 2.8203125,24.046875 C3.72066016,24.046875 4.453125,24.7793398 4.453125,25.6796875 C4.453125,26.5800352 3.72066016,27.3125 2.8203125,27.3125 C1.91996484,27.3125 1.1875,26.5800352 1.1875,25.6796875 Z M12.3203125,36.8125 C11.4199648,36.8125 10.6875,36.0800352 10.6875,35.1796875 C10.6875,34.2793398 11.4199648,33.546875 12.3203125,33.546875 C13.2206602,33.546875 13.953125,34.2793398 13.953125,35.1796875 C13.953125,36.0800352 13.2206602,36.8125 12.3203125,36.8125 Z M25.6796875,33.546875 C26.5800352,33.546875 27.3125,34.2793398 27.3125,35.1796875 C27.3125,36.0800352 26.5800352,36.8125 25.6796875,36.8125 C24.7793398,36.8125 24.046875,36.0800352 24.046875,35.1796875 C24.046875,34.2793398 24.7793398,33.546875 25.6796875,33.546875 Z M14.6369766,33.5739648 C14.0103477,32.6726523 12.9179961,32.2035156 11.8108008,32.4063555 L8.33587891,24.0449453 L10.6497969,23.0896758 C10.9529062,22.964543 11.0971875,22.6174219 10.9720547,22.3143125 C10.8469219,22.0111289 10.4997266,21.8669961 10.1966914,21.9920547 L7.88025,22.9483633 L6.23927344,19 L9.98553906,9.98553906 L16.1033164,7.44310156 L21.0758984,12.4156836 L18.5452617,18.5453359 L14.5084297,20.211918 C14.2053203,20.3370508 14.0610391,20.6841719 14.1861719,20.9872812 C14.3118984,21.2919492 14.6599102,21.4340781 14.9615352,21.3095391 L17.9058672,20.0939844 L13.6700547,30.3540586 C13.508332,30.7456367 13.7980078,31.1745469 14.2186797,31.1745469 C14.4519492,31.1745469 14.6731953,31.0362031 14.7676758,30.8072383 L19.4545156,19.4546641 L25.584168,16.9240273 L32.8112187,24.1510781 C32.4249102,24.7475742 32.2742461,25.4695742 32.406207,26.1891992 L14.6369766,33.5739648 Z M35.1796875,27.3125 C34.2793398,27.3125 33.546875,26.5800352 33.546875,25.6796875 C33.546875,24.7793398 34.2793398,24.046875 35.1796875,24.046875 C36.0800352,24.046875 36.8125,24.7793398 36.8125,25.6796875 C36.8125,26.5800352 36.0800352,27.3125 35.1796875,27.3125 Z" id="Shape"></path>
                    <path d="M12.3543789,21.1012812 C12.0294492,21.2343555 11.9026094,21.5865234 12.0223242,21.8789453 C12.1468633,22.1828711 12.4938359,22.3274492 12.7968711,22.2033555 C13.1218008,22.0702812 13.2486406,21.7181133 13.1289258,21.4256914 C13.0046094,21.1223594 12.6578594,20.9770391 12.3543789,21.1012812 Z" id="Path"></path>
                </g>
            </g>
        </g>
    </g>
</svg>