<?xml version="1.0" encoding="UTF-8"?>
<svg width="57px" height="49px" viewBox="0 0 57 49" version="1.1" xmlns="http://www.w3.org/2000/svg" xmlns:xlink="http://www.w3.org/1999/xlink">
    <!-- Generator: Sketch 55.2 (78181) - https://sketchapp.com -->
    <title>icon-5</title>
    <desc>Created with Sketch.</desc>
    <g id="Page-1" stroke="none" stroke-width="1" fill="none" fill-rule="evenodd">
        <g id="Landing-Slide-1" transform="translate(-580.000000, -3112.000000)">
            <g id="icon-5" transform="translate(580.000000, 3112.000000)">
                <circle id="Oval-Copy-4" fill="#C8102E" opacity="0.240676153" cx="46" cy="34" r="11"></circle>
                <g id="altcoin" fill-rule="nonzero">
                    <path d="M7.92619582,12 C8.19658573,12 8.35215252,11.8911667 8.51373827,11.8008913 C8.96377077,11.5495809 9.13160697,10.9685378 8.88864961,10.5030328 C8.64557649,10.0375278 8.0840776,9.86380158 7.63381359,10.1152317 C7.58161075,10.1444455 7.52952365,10.1738988 7.47743655,10.2037112 C6.64242253,10.6809496 6.97277047,12 7.92619582,12 Z" id="Path" fill="#75BD29"></path>
                    <path d="M15.5097987,14.5096988 C18.9702485,14.5096988 22.1607837,16.5352429 23.638152,19.6701325 C23.8158019,20.0472742 24.2649686,20.2087176 24.641756,20.0306675 C25.0182606,19.8528061 25.1795121,19.4029158 25.0018622,19.0259629 C23.2767264,15.3653206 19.5507913,13 15.5097044,13 C7.30746382,13 2.4540882,21.9842178 6.39084704,28.6969993 C10.4820717,35.8876005 20.8916002,35.733045 24.7752997,28.4319528 C25.5764676,26.925462 26,25.2209177 26,23.5027861 C26,23.0859205 25.6624181,22.7479367 25.2460483,22.7479367 C24.8296785,22.7479367 24.4920966,23.0859205 24.4920966,23.5027861 C24.4920966,24.9131279 24.158473,26.3115808 23.5273211,27.5601017 L21.4707294,27.5601017 L21.4707294,19.4454705 C21.4707294,18.8192285 20.7490091,18.4641662 20.2537571,18.8497999 L15.5097987,22.5462975 L10.7658403,18.8497999 C10.2714365,18.4644493 9.548868,18.8184737 9.548868,19.4454705 L9.548868,27.5601017 L7.49208775,27.5601017 C4.48853264,21.617644 8.80811045,14.5096988 15.5097987,14.5096988 Z M10.3028197,29.0698949 C10.7191895,29.0698949 11.0567714,28.7319111 11.0567714,28.3150455 L11.0567714,20.9896093 L15.0467781,24.0986453 C15.3190489,24.3108524 15.7006427,24.3108524 15.9728193,24.0986453 L19.962826,20.9896093 L19.962826,28.3150455 C19.962826,28.7319111 20.3004078,29.0698949 20.7167777,29.0698949 L22.565373,29.0698949 C18.9756204,33.6332427 12.0488776,33.6394702 8.45413013,29.0698949 L10.3028197,29.0698949 Z" id="Shape" fill="#C8102E"></path>
                    <path d="M36.0122022,19.2489028 L37.3665905,17.1931957 C37.5992279,16.8401462 37.5015221,16.3652663 37.1484988,16.1326116 C36.7954755,15.8997654 36.320631,15.9975742 36.0879936,16.3507194 L34.440105,18.8521169 C33.9599972,18.7582319 33.4731906,18.6874115 32.9808337,18.6395598 L31.4737142,16.3509108 C31.2410768,15.9977656 30.7663279,15.8999568 30.413209,16.1326116 C30.0601857,16.3651706 29.9623842,16.8399548 30.1949259,17.1931 L31.1027001,18.5717062 C30.568811,18.585009 30.0351133,18.6255872 29.506966,18.694015 C28.6212019,16.2823873 27.1091063,14.0996818 25.159679,12.4106141 C26.3545418,8.68239586 29.885253,6.09448261 33.8168357,6.09448261 C40.3263782,6.09448261 44.705819,12.7569644 42.1993442,18.711433 C42.0352252,19.1011369 42.2181007,19.5500812 42.6078713,19.7141166 C42.999173,19.878822 43.4472226,19.6937318 43.610576,19.3055592 C46.5442387,12.3368268 41.4092764,4.56322962 33.8168357,4.56322962 C29.2538495,4.56322962 25.4055226,7.42418442 23.8837616,11.4207547 C23.0276634,10.8257672 22.1159657,10.3231334 21.1621617,9.91782992 C23.2824067,4.87282983 28.2618627,1.53125299 33.7807582,1.53125299 C44.7602702,1.53125299 51.1418669,13.8075953 45.1919557,22.7736558 C44.8521385,23.2859556 45.2263107,23.9627695 45.829101,23.9627695 C46.0770499,23.9627695 46.3204053,23.8424704 46.4677775,23.6204387 C53.0878491,13.6437513 45.9833633,0 33.7807582,0 C27.6212724,0 22.0645769,3.74276512 19.722221,9.38801638 C16.8020515,8.48381149 13.6495316,8.48457712 10.7436209,9.37710621 C10.3394001,9.5012334 10.1124087,9.92950572 10.2365267,10.3337565 C10.3606447,10.7380073 10.7890765,10.9648242 11.1931059,10.8408884 C15.2421078,9.59741523 19.7765765,10.2769087 23.3416426,12.914492 C31.4868246,18.9345175 30.6030702,31.6561673 21.1991005,36.2369106 C12.1772456,40.632468 1.53113918,34.0486544 1.53113918,23.925828 C1.53113918,20.1166448 3.13778266,16.4496767 5.93909749,13.8650173 C6.24982305,13.5782902 6.26934508,13.0939357 5.98263926,12.7830914 C5.69593345,12.472247 5.21161499,12.4529149 4.90079374,12.7395464 C1.78626525,15.6132297 0,19.6904779 0,23.925828 C0,35.1767093 11.8323565,42.5036592 21.8697394,37.6135071 C26.7483316,35.2370981 30.1116702,30.3727859 30.40785,24.7311713 C35.9322958,24.0596212 40.6586354,28.3916316 40.6586354,33.7967633 C40.6586354,38.83382 36.5610199,42.9317401 31.5242418,42.9317401 C28.6933569,42.9317401 26.0685058,41.6503685 24.3228158,39.4161746 C24.0624264,39.0831271 23.5812659,39.0237911 23.2482432,39.2842955 C22.9151247,39.5446085 22.8559844,40.0258047 23.1163738,40.358948 C25.1542244,42.9670546 28.2187994,44.4628974 31.5242418,44.4628974 C37.4052517,44.4628974 42.1897746,39.6780189 42.1897746,33.7966676 C42.1897746,27.5371925 36.7709773,22.5307608 30.4116778,23.1904437 C30.3634469,22.1719691 30.213491,21.164596 29.9646809,20.1814359 C31.6794611,19.9923262 33.5474509,20.1620081 34.5870944,20.4494052 C40.6243762,21.8409313 45.1686059,27.276688 45.1686059,33.7832691 C45.1686059,41.329571 39.0297904,47.4688427 31.4840494,47.4688427 C26.9868066,47.4688427 22.7739728,45.2559907 20.214865,41.5494015 C19.9745719,41.2014242 19.4979091,41.1140471 19.149862,41.3543581 C18.8019107,41.5945734 18.7146357,42.071463 18.9549289,42.4193446 C21.7998812,46.5399464 26.4836359,49 31.4840494,49 C39.8740223,49 46.699745,42.1737699 46.699745,33.7831734 C46.699745,26.9297635 42.1653721,21.1574183 36.0122022,19.2489028 Z" id="Path" fill="#C8102E"></path>
                    <path d="M28.7753003,39 L35.2253371,39 C35.6531447,39 36,38.6640905 36,38.2497834 C36,37.8354762 35.6531447,37.4995667 35.2253371,37.4995667 L29.8549867,37.4995667 L31.3337213,33.2633748 L33.9185777,32.7374729 C34.337283,32.6522296 34.6053163,32.2544272 34.5173921,31.8489351 C34.4294678,31.443443 34.0187029,31.1838681 33.5999007,31.2690177 L31.90978,31.6128982 L33.1742235,27.9906648 C33.3111452,27.598114 33.0936585,27.172366 32.6883162,27.0396715 C32.2826833,26.9070707 31.8433527,27.117694 31.7063342,27.5102448 L30.1490681,31.9710329 L28.700158,32.265868 C28.2815496,32.3510176 28.0132257,32.7487262 28.10115,33.1542183 C28.1890742,33.5599917 28.5998392,33.8192853 29.0184477,33.7344171 L29.5730094,33.6216032 L28.0413073,38.0095265 C27.8717529,38.495198 28.2453341,39 28.7753003,39 L28.7753003,39 Z" id="Path" fill="#C8102E"></path>
                    <path d="M32.8774721,8.35477132 L30.0993529,13.0715687 C29.9057237,13.4003778 30.0031699,13.8226957 30.3215844,14.0342593 L33.0997036,15.879259 C33.3417853,16.0399322 33.6573125,16.0405616 33.9002964,15.879259 L36.6784156,14.0342593 C36.9968301,13.8227857 37.0942763,13.4004677 36.9006471,13.0715687 L34.1225279,8.35477132 C33.8438137,7.88174289 33.1560961,7.88174289 32.8774721,8.35477132 L32.8774721,8.35477132 Z M33.4999549,14.4162965 L31.6894404,13.2138998 L33.4999549,10.1398894 L35.3104693,13.2138099 L33.4999549,14.4162965 Z" id="Shape" fill="#C8102E"></path>
                </g>
            </g>
        </g>
    </g>
</svg>