<?xml version="1.0" encoding="UTF-8"?>
<svg width="15px" height="14px" viewBox="0 0 15 14" version="1.1" xmlns="http://www.w3.org/2000/svg" xmlns:xlink="http://www.w3.org/1999/xlink">
    <!-- Generator: Sketch 55.2 (78181) - https://sketchapp.com -->
    <title>linkediin</title>
    <desc>Created with Sketch.</desc>
    <g id="Page-1" stroke="none" stroke-width="1" fill="none" fill-rule="evenodd">
        <g id="BDAM-Slide-2" transform="translate(-1376.000000, -503.000000)" fill="#7775A5">
            <path d="M1390.44845,516.83871 L1387.64584,516.83871 L1387.64584,512.435247 C1387.64584,511.386051 1387.62463,510.040373 1386.18543,510.040373 C1384.72502,510.040373 1384.50124,511.180274 1384.50124,512.359885 L1384.50124,516.83871 L1381.69547,516.83871 L1381.69547,507.793064 L1384.38935,507.793064 L1384.38935,509.026828 L1384.4286,509.026828 C1384.80352,508.316082 1385.71983,507.566528 1387.0864,507.566528 C1389.92872,507.566528 1390.45161,509.438383 1390.45161,511.869809 L1390.45161,516.83871 L1390.44845,516.83871 Z M1378.52966,506.5593 C1377.63185,506.5593 1376.90323,505.815161 1376.90323,504.91714 C1376.90323,504.019119 1377.63185,503.290323 1378.52966,503.290323 C1379.42793,503.290323 1380.15655,504.019119 1380.15655,504.91714 C1380.15655,505.815161 1379.42793,506.5593 1378.52966,506.5593 L1378.52966,506.5593 Z M1377.12655,516.83871 L1379.93594,516.83871 L1379.93594,507.793064 L1377.12655,507.793064 L1377.12655,516.83871 Z" id="linkediin"></path>
        </g>
    </g>
</svg>