<svg xmlns="http://www.w3.org/2000/svg" width="17" height="23" viewBox="0 0 17 23">
  <g id="map-marker-alt" transform="translate(17) rotate(180)">
    <path id="Shape" d="M-8.5,23a1.044,1.044,0,0,0,.873-.464c1.148-1.688,2.114-3.085,2.966-4.317C-.8,12.642,0,11.482,0,8.625A8.573,8.573,0,0,0-8.5,0,8.573,8.573,0,0,0-17,8.625c0,2.857.8,4.018,4.66,9.594.853,1.232,1.818,2.629,2.966,4.317A1.044,1.044,0,0,0-8.5,23Zm0-21.562A6.988,6.988,0,0,1-3.491,3.542,7.2,7.2,0,0,1-1.417,8.625c0,2.395-.661,3.35-4.326,8.654C-6.534,18.423-7.43,19.72-8.5,21.29c-1.067-1.566-1.963-2.862-2.753-4-3.67-5.309-4.331-6.265-4.331-8.66a7.2,7.2,0,0,1,2.075-5.082A6.989,6.989,0,0,1-8.5,1.437Zm0,11.5A4.286,4.286,0,0,0-4.25,8.625,4.286,4.286,0,0,0-8.5,4.313,4.286,4.286,0,0,0-12.75,8.625,4.287,4.287,0,0,0-8.5,12.938Zm0-7.187A2.857,2.857,0,0,1-5.666,8.625,2.858,2.858,0,0,1-8.5,11.5a2.858,2.858,0,0,1-2.834-2.876A2.858,2.858,0,0,1-8.5,5.75Z" transform="rotate(-180)" fill="#fb2335"/>
  </g>
</svg>
