<?xml version="1.0" encoding="UTF-8"?>
<svg width="521px" height="509px" viewBox="0 0 521 509" version="1.1" xmlns="http://www.w3.org/2000/svg" xmlns:xlink="http://www.w3.org/1999/xlink">
    <!-- Generator: Sketch 55.2 (78181) - https://sketchapp.com -->
    <title>Group 6</title>
    <desc>Created with Sketch.</desc>
    <defs>
        <polygon id="path-1" points="0.030597553 0.0598822771 110.882784 0.0598822771 110.882784 110.956462 0.030597553 110.956462"></polygon>
        <path d="M68.7505711,0.0822291678 L67.7986492,0.0822291678 L53.5198216,0.0822291678 L47.8082906,32.4606604 L0.212198638,39.1277603 C26.075915,65.001936 63.6377989,64.1267661 68.2736582,63.9134494 L68.2736582,63.9134494 C72.9104695,64.1267661 110.472353,65.001936 136.337022,39.1277603 L136.337022,39.1277603 L88.7399778,32.4606604 L83.0293987,0.0822291678 L68.7505711,0.0822291678 Z" id="path-3"></path>
        <path d="M0.468345545,35.3185331 C0.468345545,41.9837284 3.32411106,65.7913984 9.0356421,83.8852276 L9.0356421,83.8852276 C12.3283397,94.3196532 21.9522695,100.637256 29.5114809,104.115081 L29.5114809,104.115081 C35.8389053,107.027235 43.1534727,107.027235 49.4818491,104.115081 L49.4818491,104.115081 C57.0401085,100.637256 66.6649903,94.3196532 69.9586398,83.8852276 L69.9586398,83.8852276 C75.6701709,65.7913984 78.5259364,41.9837284 78.5259364,35.3185331 L78.5259364,35.3185331 C78.5259364,16.2714448 57.5836559,0.0822291678 39.496189,0.0822291678 L39.496189,0.0822291678 C21.4096741,0.0822291678 0.468345545,16.2714448 0.468345545,35.3185331" id="path-5"></path>
        <path d="M84.0527946,34.5563569 C28.5329052,50.6122495 0.265586193,65.1206436 0.265586193,65.1206436 L0.265586193,65.1206436 L3.52972618,80.3261263 C3.52972618,80.3261263 81.4807018,94.5164499 165.115603,78.2453359 L165.115603,78.2453359 C248.750504,61.9742219 258.091713,25.9932141 250.895183,17.3376976 L250.895183,17.3376976 C240.41262,4.7329648 225.621659,0.0466630332 208.629854,0.0466630332 L208.629854,0.0466630332 C170.218856,0.04761534 120.566613,23.9952744 84.0527946,34.5563569 L84.0527946,34.5563569 Z" id="path-7"></path>
        <path d="M1.96286283,18.3814259 C-5.12419526,27.1264592 4.67203239,62.9865241 88.5068369,78.1967683 L88.5068369,78.1967683 C172.341641,93.4051079 250.10604,78.2291467 250.10604,78.2291467 L250.10604,78.2291467 L253.17694,62.9836671 C253.17694,62.9836671 224.728756,48.8342927 169.009915,33.4831071 L169.009915,33.4831071 C132.742645,23.4905518 83.4416608,0.548528717 45.1972489,0.548528717 L45.1972489,0.548528717 C27.7037813,0.548528717 12.5244356,5.34720268 1.96286283,18.3814259" id="path-9"></path>
    </defs>
    <g id="Page-1" stroke="none" stroke-width="1" fill="none" fill-rule="evenodd">
        <g id="Landing-Slide-1" transform="translate(-137.000000, -7099.000000)">
            <g id="Group-6" transform="translate(137.000000, 7100.000000)">
                <g id="Group-16" transform="translate(61.314256, 66.128803)">
                    <g id="Group-2" transform="translate(55.823222, 0.000000)">
                        <g id="Group-3" transform="translate(0.376045, 0.000000)">
                            <mask id="mask-2" fill="white">
                                <use xlink:href="#path-1"></use>
                            </mask>
                            <g id="Clip-2"></g>
                            <path d="M49.6695681,0.367096451 C80.1110766,-2.82979748 107.37983,19.2656249 110.575431,49.7184917 C113.771033,80.1723109 91.6845424,107.452091 61.2430338,110.648985 C30.8024773,113.845879 3.53372425,91.750457 0.338122637,61.2966378 C-2.8584309,30.843771 19.2280596,3.56399038 49.6695681,0.367096451" id="Fill-1" fill="#E1E6ED" mask="url(#mask-2)"></path>
                        </g>
                        <path d="M51.1453689,10.8438997 C75.8020484,8.25362521 97.8894908,26.1512792 100.478718,50.8188823 C103.067946,75.4864853 85.1775266,97.58286 60.5198952,100.172182 C35.8622638,102.761504 13.7748213,84.8648027 11.1865458,60.1971996 C8.59827035,35.5295966 26.4886894,13.4332219 51.1453689,10.8438997" id="Fill-4" fill="#F0F3FA"></path>
                        <path d="M20.8278958,59.1846118 L55.8319657,55.5077552" id="Stroke-6" stroke="#E1E6ED" stroke-width="5.04833471"></path>
                        <path d="M55.8324416,55.5079457 L35.7954388,20.8020767" id="Stroke-8" stroke="#E1E6ED" stroke-width="2.01883967"></path>
                        <path d="M54.8953698,46.574927 C59.8272768,46.0578244 64.2441942,49.6365934 64.7620396,54.5704949 C65.2798851,59.5034441 61.7016109,63.9231 56.7706558,64.4411549 C51.8387488,64.9592098 47.4208795,61.3794885 46.903034,56.445587 C46.3861405,51.5126378 49.9634627,47.0929819 54.8953698,46.574927" id="Fill-10" fill="#FFFFFF"></path>
                    </g>
                    <path d="M376.22104,387.142863 C376.22104,396.346908 292.048303,403.808232 188.216476,403.808232 C84.3846498,403.808232 0.211913061,396.346908 0.211913061,387.142863 C0.211913061,377.938817 84.3846498,370.477494 188.216476,370.477494 C292.048303,370.477494 376.22104,377.938817 376.22104,387.142863" id="Fill-12" fill="#DDE2E9" opacity="0.673814174"></path>
                    <path d="M247.140819,263.613624 C245.457821,240.761118 243.567304,218.220968 242.000441,207.632269 C241.964268,207.39324 241.943326,207.157068 241.911912,206.918039 L274.919802,254.729554 L247.140819,263.613624 Z M101.513912,254.729554 L134.519898,206.918039 C134.488485,207.157068 134.468494,207.39324 134.433273,207.632269 C132.864506,218.220968 130.973989,240.761118 129.291943,263.613624 L101.513912,254.729554 Z M320.458791,261.829954 C314.864346,231.094252 256.350663,162.018678 256.350663,162.018678 L252.945638,166.252634 C254.879944,163.470946 256.279269,161.921543 256.279269,161.921543 L120.154446,161.921543 C120.154446,161.921543 121.551867,163.470946 123.488076,166.252634 L120.081148,162.018678 C120.081148,162.018678 61.5693679,231.094252 55.9739713,261.829954 C52.6555718,280.059963 93.2179133,292.683742 126.776966,299.939367 C125.652746,317.078033 124.914055,329.527539 124.914055,329.527539 L187.740896,329.527539 L188.692818,329.527539 L251.519659,329.527539 C251.519659,329.527539 250.779064,317.078033 249.655796,299.939367 C283.214849,292.683742 323.777191,280.059963 320.458791,261.829954 L320.458791,261.829954 Z" id="Fill-14" fill="#75BD29"></path>
                </g>
                <g id="Group-28" transform="translate(175.544877, 91.055108)">
                    <path d="M48.9755372,19.6177105 C48.9755372,19.6177105 48.7594509,3.67228548 75.4132624,0.815365082 C102.067074,-2.04155532 119.201667,18.9091943 123.961276,62.7153071 C128.720885,106.52142 148.711244,113.187567 148.711244,113.187567 C148.711244,113.187567 120.153589,136.042931 77.3171061,136.042931 C34.4806233,136.042931 0.2114371,115.092181 0.2114371,115.092181 C0.2114371,115.092181 19.2498739,103.664499 18.2979521,83.6660567 C17.3460302,63.6676139 18.7301246,7.9462384 48.9755372,19.6177105" id="Fill-24" fill="#2E3A5B"></path>
                    <path d="M142.048267,136.995523 L94.4521752,130.329376 L88.7406441,97.9509444 L74.4618165,97.9509444 L73.5098947,97.9509444 L59.2310671,97.9509444 L53.5195361,130.329376 L5.9234441,136.995523 C31.7871605,162.870651 69.3499963,161.994529 73.9858556,161.781212 C78.621715,161.994529 116.183599,162.870651 142.048267,136.995523" id="Fill-26" fill="#F4C5BE"></path>
                </g>
                <g id="Group-31" transform="translate(181.256408, 188.923347)">
                    <mask id="mask-4" fill="white">
                        <use xlink:href="#path-3"></use>
                    </mask>
                    <g id="Clip-30"></g>
                    <path d="M47.3320441,4.84423932 C47.3320441,4.84423932 53.0435752,32.4611365 94.9281361,27.6996025 C126.197817,24.1455935 92.0723706,-1.82190828 92.0723706,-1.82190828 L47.3320441,4.84423932 Z" id="Fill-29" fill="#C96A54" opacity="0.332984561" mask="url(#mask-4)"></path>
                </g>
                <path d="M249.530732,103.29844 C231.444217,103.29844 210.501937,119.487656 210.501937,138.533792 C210.501937,145.199939 213.357702,169.007609 219.069233,187.101438 C222.362883,197.534912 231.985861,203.852515 239.545072,207.331292 C245.872496,210.243446 253.188016,210.243446 259.51544,207.331292 C267.074652,203.852515 276.698581,197.534912 279.992231,187.101438 C285.703762,169.007609 288.559528,145.199939 288.559528,138.533792 C288.559528,119.487656 267.617247,103.29844 249.530732,103.29844" id="Fill-32" fill="#F4C5BE"></path>
                <g id="Group-36" transform="translate(210.033877, 103.215735)">
                    <mask id="mask-6" fill="white">
                        <use xlink:href="#path-5"></use>
                    </mask>
                    <g id="Clip-35"></g>
                    <path d="M18.078614,7.70115972 C18.078614,7.70115972 18.078614,60.0780337 76.0963463,57.0925519 C124.662447,54.5936989 18.078614,7.70115972 18.078614,7.70115972" id="Fill-34" fill="#C96A54" opacity="0.333844866" mask="url(#mask-6)"></path>
                </g>
                <path d="M224.306612,110.603014 C224.306612,110.603014 243.014732,159.553488 285.961638,156.49944 C310.929596,154.723388 275.708488,101.394207 275.708488,101.394207 L232.872005,99.4895937 L224.306612,110.603014 Z" id="Fill-37" fill="#2E3A5B"></path>
                <path d="M228.112491,110.916894 C228.112491,110.916894 230.452315,123.992067 212.14781,156.499059 C193.843305,189.006052 208.122132,120.439962 208.122132,120.439962 L219.545194,110.916894 L228.112491,110.916894 Z" id="Fill-39" fill="#2E3A5B"></path>
                <polygon id="Fill-41" fill="#7A4CB6" points="170.045544 421.369387 328.064569 421.369387 328.064569 361.374059 170.045544 361.374059"></polygon>
                <polygon id="Fill-60" fill="#F0F3FA" points="165.761896 403.580227 333.30014 403.580227 333.30014 293.112638 165.761896 293.112638"></polygon>
                <path d="M261.429755,348.346051 C261.429755,354.920777 256.101849,360.249886 249.530732,360.249886 C242.958664,360.249886 237.631709,354.920777 237.631709,348.346051 C237.631709,341.772278 242.958664,336.442216 249.530732,336.442216 C256.101849,336.442216 261.429755,341.772278 261.429755,348.346051" id="Fill-61" fill="#CAD5E5"></path>
                <path d="M179.564477,370.249108 C174.245138,368.918735 169.680672,368.559715 165.76161,368.940638 L165.76161,403.579846 L333.299854,403.579846 L333.299854,293.112257 L310.024413,293.112257 C298.523293,296.851966 285.088821,304.520892 269.997052,318.824541 C254.32937,333.672908 221.449038,380.724483 179.564477,370.249108" id="Fill-62" fill="#BEC9DA" opacity="0.145856585" style="mix-blend-mode: multiply;"></path>
                <path d="M279.320079,180.804976 C283.375266,182.182964 295.125789,180.87259 297.678844,169.361105 C300.231898,157.850573 285.725561,157.313472 282.122537,167.911695 C278.074965,179.818386 279.320079,180.804976 279.320079,180.804976" id="Fill-63" fill="#F4C5BE"></path>
                <path d="M219.740433,180.804976 C215.685246,182.182964 203.934723,180.87259 201.381669,169.361105 C198.828614,157.850573 213.334951,157.313472 216.938927,167.911695 C220.985547,179.818386 219.740433,180.804976 219.740433,180.804976" id="Fill-64" fill="#F4C5BE"></path>
                <path d="M172.376705,429.817396 C172.649907,429.570749 161.033605,436.526398 148.483467,429.136497 C148.039872,428.875565 147.580093,428.693674 147.114604,428.550828 C144.11129,430.954451 140.506362,433.511394 136.526377,436.095955 C137.094674,436.607344 137.534462,436.975886 137.583962,436.93589 C136.947127,436.811137 136.211291,436.779711 135.39835,436.821613 C123.943874,444.142947 109.649816,451.572845 97.5803989,456.222007 C96.4552273,457.730461 96.8017268,458.6342 99.3024255,458.495163 C111.688832,457.806645 141.035631,457.281924 176.504239,444.356264 C172.659426,440.248965 171.727495,435.175074 172.376705,429.817396" id="Fill-65" fill="#2E3A5B"></path>
                <path d="M97.5802085,456.221626 C109.650577,451.572464 123.943684,444.142566 135.399111,436.822184 C125.029827,437.36976 101.653482,450.760146 97.5802085,456.221626" id="Fill-66" fill="#75BD29"></path>
                <path d="M133.617494,433.342074 C133.732677,433.466826 135.389021,435.071463 136.526567,436.096145 C140.505601,433.511585 144.110529,430.954641 147.114794,428.551019 C142.653136,427.173983 137.299528,430.830841 133.617494,433.342074" id="Fill-67" fill="#9560D9"></path>
                <path d="M418.092482,383.609661 C425.289963,392.264225 415.947802,428.247138 332.312901,444.517299 C248.678001,460.787461 170.727025,446.59809 170.727025,446.59809 L167.462885,431.392607 C167.462885,431.392607 195.730204,416.884213 251.249141,400.82832 C303.918025,385.596173 383.915632,342.510956 418.092482,383.609661" id="Fill-68" fill="#232D47"></path>
                <g id="Group-72" transform="translate(167.197394, 366.271773)">
                    <mask id="mask-8" fill="white">
                        <use xlink:href="#path-7"></use>
                    </mask>
                    <g id="Clip-71"></g>
                    <path d="M9.16548424,82.8243127 C9.16548424,82.8243127 214.982409,74.6297127 252.86985,9.06910335 C290.755387,-56.4905537 269.253377,97.1660531 269.253377,97.1660531 L107.466645,123.799217 L9.16548424,82.8243127 Z" id="Fill-70" fill="#17233D" mask="url(#mask-8)"></path>
                </g>
                <g id="Group-81" transform="translate(77.716741, 367.224080)">
                    <path d="M285.295354,68.0542247 C284.482413,68.0218463 283.746577,68.0637478 283.111645,68.1951661 C283.161145,68.235163 283.598077,67.8609064 284.159711,67.3418992 C280.147361,64.8087631 276.510067,62.2975301 273.476293,59.932 C273.012707,60.0815122 272.554832,60.2681643 272.114092,60.5348102 C259.658195,68.0827939 247.955268,61.2757049 248.231325,61.5194954 C248.949074,66.8676504 248.081874,71.953921 244.289417,76.1088356 C279.9189,88.5840547 309.269506,88.7364238 321.663528,89.267811 C324.166131,89.3754216 324.501207,88.4678733 323.356997,86.9727516 C311.229513,82.4778635 296.843118,75.2289041 285.295354,68.0542247" id="Fill-73" fill="#2E3A5B"></path>
                    <path d="M285.295354,68.0542247 C296.843118,75.2289041 311.229513,82.4778635 323.356997,86.9727516 C319.215185,81.563649 295.67035,68.4703828 285.295354,68.0542247" id="Fill-75" fill="#9560D9"></path>
                    <path d="M287.032802,64.5528783 C283.319355,62.087356 277.920054,58.5000163 273.476483,59.9313334 C276.510258,62.2978158 280.147551,64.8090488 284.15895,67.3421849 C285.28317,66.3041705 286.918571,64.6776305 287.032802,64.5528783" id="Fill-77" fill="#9560D9"></path>
                    <path d="M1.96286283,18.3813306 C-5.12419526,27.126364 4.67298431,62.9864288 88.5068369,78.196673 C172.340689,93.4059649 250.10604,78.2290515 250.10604,78.2290515 L253.17694,62.9826196 C253.17694,62.9826196 224.728756,48.8341975 169.009915,33.4830119 C116.153503,18.9203363 35.6171075,-23.1478166 1.96286283,18.3813306" id="Fill-79" fill="#232D47"></path>
                </g>
                <g id="Group-84" transform="translate(77.716741, 367.224080)">
                    <mask id="mask-10" fill="white">
                        <use xlink:href="#path-9"></use>
                    </mask>
                    <g id="Clip-83"></g>
                    <path d="M-5.7984415,12.2145727 C-5.7984415,12.2145727 -5.06355784,12.7145338 -3.65280967,13.6344621 C11.831151,23.7336758 108.649217,84.4337112 207.186455,90.0666059 C314.702219,96.2137463 48.4715745,111.579217 48.4715745,111.579217 L-18.0858486,54.2141595" id="Fill-82" fill="#17233D" mask="url(#mask-10)"></path>
                </g>
                <g id="Group-95" transform="translate(210.676969, 157.497222)" fill="#2E3A5B">
                    <path d="M17.7404223,22.0489949 C23.3748477,22.0566133 29.2815227,22.5384806 32.8893065,17.2446071 C35.8288411,12.9306573 34.8255155,6.81018148 34.8293232,1.87247072 C34.8293232,1.17157292 34.2362759,0.579238087 33.5356614,0.57828578 C25.0254802,0.565905791 16.5152989,0.55447811 8.00511768,0.54209698 C7.30545512,0.541145815 6.71240782,1.13633756 6.7114559,1.83628306 C6.70955205,5.33696286 6.31736026,9.07381474 6.8247346,12.5497346 C7.64338738,18.1435847 12.2916217,21.7023552 17.7404223,22.0489949 C19.4034298,22.1547009 19.3967663,19.5663311 17.7404223,19.4615773 C7.97180041,18.8406733 9.29306793,8.82335805 9.29877946,1.83628306 C8.86755886,2.26767804 8.43729019,2.69907302 8.00511768,3.1295157 C16.5152989,3.14189569 25.0254802,3.15427567 33.5356614,3.16570336 C33.1053927,2.73430838 32.6741721,2.3038657 32.2419996,1.87247072 C32.2391439,5.4264797 32.8559892,9.59377426 31.9802211,13.0763602 C30.2410599,19.988203 23.3034536,19.4691958 17.7404223,19.4615773 C16.076463,19.4587204 16.0736072,22.0470903 17.7404223,22.0489949" id="Fill-85"></path>
                    <path d="M53.9134522,22.0489949 C59.5478776,22.0566133 65.4545526,22.5384806 69.0623364,17.2446071 C72.001871,12.9306573 70.9985454,6.81018148 71.0023531,1.87247072 C71.0023531,1.17157292 70.4093058,0.579238087 69.7086913,0.57828578 C61.1985101,0.565905791 52.6883288,0.55447811 44.1781476,0.54209698 C43.478485,0.541145815 42.8854377,1.13633756 42.8844858,1.83628306 C42.882582,5.33696286 42.4903902,9.07381474 42.9977645,12.5497346 C43.8164173,18.1435847 48.4646516,21.7023552 53.9134522,22.0489949 C55.5764597,22.1547009 55.5697962,19.5663311 53.9134522,19.4615773 C44.1448303,18.8406733 45.4660978,8.82335805 45.4718094,1.83628306 C45.0405888,2.26767804 44.6103201,2.69907302 44.1781476,3.1295157 C52.6883288,3.14189569 61.1985101,3.15427567 69.7086913,3.16570336 C69.2784226,2.73430838 68.847202,2.3038657 68.4150295,1.87247072 C68.4121738,5.4264797 69.0290191,9.59377426 68.153251,13.0763602 C66.4140898,19.988203 59.4764835,19.4691958 53.9134522,19.4615773 C52.2494929,19.4587204 52.2466371,22.0470903 53.9134522,22.0489949" id="Fill-87"></path>
                    <path d="M1.72881141,2.80525523 L75.9787149,2.80525523 C77.6426743,2.80525523 77.64553,0.217837656 75.9787149,0.217837656 L1.72881141,0.217837656 C0.0639001151,0.217837656 0.0610443496,2.80525523 1.72881141,2.80525523" id="Fill-89"></path>
                </g>
                <polygon id="Fill-28" fill="#2A3551" transform="translate(111.677184, 156.615078) rotate(133.000000) translate(-111.677184, -156.615078) " points="116.554132 161.500916 105.809335 160.264815 106.800235 151.729241 117.545033 152.964864"></polygon>
                <polygon id="Fill-28" fill="#2A3551" transform="translate(392.623562, 188.681442) rotate(133.000000) translate(-392.623562, -188.681442) " points="397.500511 193.56728 386.755713 192.331178 387.746614 183.795604 398.491412 185.031228"></polygon>
                <polygon id="Fill-30" fill="#E0E0E0" transform="translate(58.569401, 245.428187) rotate(133.000000) translate(-58.569401, -245.428187) " points="63.487305 246.805026 56.1096523 249.908355 53.6514973 244.051826 61.0286723 240.94802"></polygon>
                <polygon id="Fill-30" fill="#E0E0E0" transform="translate(141.846666, 271.997460) rotate(133.000000) translate(-141.846666, -271.997460) " points="146.76457 273.374299 139.386918 276.477627 136.928763 270.621099 144.305938 267.517293"></polygon>
                <polygon id="Fill-30" fill="#E0E0E0" transform="translate(378.866575, 311.393278) rotate(133.000000) translate(-378.866575, -311.393278) " points="383.784479 312.770117 376.406827 315.873445 373.948672 310.016917 381.325847 306.913111"></polygon>
                <polygon id="Fill-36" fill="#75BD29" transform="translate(136.647835, 226.497141) rotate(133.000000) translate(-136.647835, -226.497141) " points="141.443086 234.25822 128.108665 229.731377 131.852585 218.736063 145.187006 223.262905"></polygon>
                <polygon id="Fill-36" fill="#75BD29" transform="translate(433.069184, 244.856686) rotate(181.000000) translate(-433.069184, -244.856686) " points="437.866084 252.625344 424.537138 248.087857 428.272284 237.088029 441.60123 241.625516"></polygon>
                <g id="Group-33" transform="translate(0.000000, 395.576754)">
                    <path d="M30.5867349,52.2476895 C41.853025,53.2695277 43.2582195,61.3722401 34.8610615,61.2468327 C32.9055378,61.2174162 16.4737279,60.4827764 14.0652647,60.7630078 C5.74926478,61.7306576 0.383555013,59.8216781 0.336974516,55.906954 C0.291575833,51.9914558 7.88333633,52.4280594 15.0314325,52.3444544 C22.1795288,52.2608495 29.0578709,52.109122 30.5867349,52.2476895" id="Fill-148" fill="#DDE2E9" opacity="0.673814174"></path>
                    <polygon id="Fill-185" fill="#EEEFF2" points="36.9853941 7.24670913 36.9382451 7.77930359 36.9289699 7.83581433 36.8362178 8.85455606 36.7612431 9.70531377 35.4634865 23.9638273 33.858102 41.4937713 32.4289465 57.15499 8.97966631 57.15499 7.70046008 41.4937713 6.26280232 23.9638273 4.93722003 7.77930359 4.89084397 7.24670913"></polygon>
                    <polygon id="Fill-186" fill="#FFFFFF" points="36.9385543 7.77969065 36.9285061 7.83542727 36.835754 8.85494312 36.7615523 9.70492671 35.4637956 23.9634402 33.8584111 41.4941584 32.4292557 57.154603 29.1249616 57.154603 30.272769 41.4941584 31.5612505 23.9634402 32.671957 8.84565368 32.7562069 7.77969065"></polygon>
                    <polygon id="Fill-190" fill="#75BD29" points="36.013893 23.9635951 34.296433 41.4943132 7.22440986 41.4943132 5.74965125 23.9635951"></polygon>
                    <polygon id="Fill-187" fill="#E2E6E9" style="mix-blend-mode: multiply;" points="36.9853941 7.24670913 36.9382451 7.77930359 36.9289699 7.83581433 36.8362178 8.85455606 32.6724208 8.84526662 11.0704535 8.80810887 11.9013579 23.9638273 12.85284 41.4937713 13.7123429 57.15499 8.97966631 57.15499 7.70046008 41.4937713 6.26280232 23.9638273 4.93722003 7.77930359 4.89084397 7.24670913"></polygon>
                    <polygon id="Fill-188" fill="#495B77" points="36.9853941 5.90941709 4.65741782 5.90941709 6.46840284 0.645402101 35.6412614 0.645402101"></polygon>
                    <polygon id="Fill-189" fill="#2F3A5B" points="3.25724737 7.779381 38.49764 7.779381 38.49764 5.90910744 3.25724737 5.90910744"></polygon>
                    <polygon id="Fill-191" fill="#232D47" points="12.7504262 0.645556925 10.9587645 5.90957191 10.9587645 7.77984547 3.25724737 7.77984547 3.25724737 5.90957191 4.65703135 5.90957191 6.46801637 0.645556925"></polygon>
                    <polygon id="Fill-192" fill="#7F8EA3" points="38.4972535 5.90941709 38.4972535 7.77969065 36.9382451 7.77969065 36.9289699 7.83542727 32.7558977 7.77969065 32.7558977 5.90941709 31.2254878 0.645402101 35.6412614 0.645402101 36.9853941 5.90941709"></polygon>
                </g>
                <polygon id="Fill-28" fill="#7344C7" opacity="0.300000012" transform="translate(296.655302, 240.705825) scale(-1, 1) rotate(-2.000000) translate(-296.655302, -240.705825) " points="300.314396 244.371683 292.254116 243.442871 292.996208 237.039967 301.056487 237.968421"></polygon>
                <polygon id="Fill-36" stroke="#065FAD" stroke-width="2.96999981" opacity="0.200000003" transform="translate(324.256470, 6.822737) scale(-1, 1) rotate(-2.000000) translate(-324.256470, -6.822737) " points="327.85469 12.6454747 317.85136 9.24770896 320.65825 1 330.66158 4.39776572"></polygon>
                <polygon id="Fill-36" stroke="#75BD29" stroke-width="2.96999981" opacity="0.39125279" transform="translate(48.593973, 177.839950) scale(-1, 1) rotate(-38.000000) translate(-48.593973, -177.839950) " points="52.195101 183.661727 42.1873658 180.262251 44.9928457 172.018173 55.0005809 175.417649"></polygon>
                <ellipse id="Oval" stroke="#75BD29" stroke-width="2.96999981" opacity="0.39125279" transform="translate(236.054934, 500.615753) scale(-1, 1) rotate(-135.000000) translate(-236.054934, -500.615753) " cx="236.054934" cy="500.615753" rx="4.94366197" ry="4.96515698"></ellipse>
                <ellipse id="Oval" stroke="#75BD29" stroke-width="2.96999981" opacity="0.200000003" transform="translate(151.321012, 12.366200) scale(-1, 1) rotate(-135.000000) translate(-151.321012, -12.366200) " cx="151.321012" cy="12.3661999" rx="4.94366197" ry="4.96515698"></ellipse>
                <ellipse id="Oval" stroke="#7344C7" stroke-width="2.96999981" opacity="0.200000003" transform="translate(403.564098, 351.570141) scale(-1, 1) rotate(-135.000000) translate(-403.564098, -351.570141) " cx="403.564098" cy="351.570141" rx="4.25704225" ry="4.27801472"></ellipse>
                <polygon id="Triangle" stroke="#75BD29" stroke-width="2.96999981" opacity="0.342308408" transform="translate(117.339478, 450.847415) scale(-1, 1) rotate(-224.000000) translate(-117.339478, -450.847415) " points="117.28404 446.682586 122.493044 455.012107 112.185912 455.012244"></polygon>
                <g id="Group-95" transform="translate(294.752953, 397.891308)">
                    <path d="M129.502243,45.0499993 C147.553484,44.9297867 168.090699,61.4498937 199.788122,61.1497769 C214.097896,61.0146414 221.957643,53.1104585 225.985055,66.4598557 C229.329699,77.5459406 175.167223,65.53339 171.394911,67.8874834 C163.883217,72.5745296 146.345511,75.9234856 119.437465,74.3843504 C95.7865298,73.0313373 60.4918645,75.388747 51.1607076,75.388747 C23.6511766,75.388747 10.3126158,73.2734205 9.04962087,66.3147716 C6.57114955,52.6532363 39.8383537,54.9969666 67.3478847,54.9969666 C94.8574157,54.9969666 123.614519,45.0893793 129.502243,45.0499993" id="Fill-42" fill="#DDE2E9" opacity="0.673814174"></path>
                    <path d="M215.567889,66.2790394 C214.240702,66.2831847 212.690511,66.3076417 210.974422,66.3445345 C207.001198,66.4145895 202.131373,66.5215372 197.062303,66.4145895 C195.54921,66.3818419 194.019444,66.3325133 192.489678,66.2541679 C187.978743,66.0323964 183.467809,65.588439 179.436646,64.7577288 C178.329128,64.5313976 177.258292,64.2768786 176.237059,63.9850522 C169.485246,62.0894246 164.714209,58.7877245 164.714209,53.1219823 L173.917399,36.7125538 C173.917399,36.7125538 167.529896,54.285557 178.705109,57.5420737 C179.457487,57.7596999 180.292815,57.9159762 181.214843,57.9943216 C181.686277,58.0349452 182.182305,58.0556715 182.699174,58.0556715 C186.225556,58.0556715 189.30593,57.7762809 192.034916,57.34849 C193.613868,57.101847 195.077776,56.8017301 196.433724,56.480887 C199.410307,55.781996 201.882942,54.9678669 204.032952,54.3183045 C207.146255,53.3682108 209.577208,52.7638318 211.846847,53.3275872 C217.635366,54.7668217 229.211569,66.2583131 215.567889,66.2790394" id="Fill-44" fill="#F4B132"></path>
                    <path d="M27.6569131,56.6190485 C27.6569131,56.6190485 18.9747605,57.0298438 19.5945868,66.2812364 L39.9842442,66.2812364" id="Fill-46" fill="#F49540"></path>
                    <path d="M171.122554,46.4405269 C167.815008,52.4026553 156.713991,66.2954961 147.969731,66.2954961 C147.31239,66.2954961 146.357432,66.2954961 145.179053,66.2913509 C136.054227,66.2751843 73.549315,66.1926937 73.549315,66.1926937 L83.8029168,41.7290238 L91.6459905,23.0164884 C91.6543271,22.9509933 98.5424432,20.2743985 105.326769,14.9825589 L105.335105,14.9746829 C106.468049,14.094644 107.596825,13.1366743 108.692671,12.1090642 C116.341085,4.91330636 136.806606,-7.21572612 158.099117,6.14693592 C179.391628,19.509598 174.430517,40.4788132 171.122554,46.4405269" id="Fill-48" fill="#F4B132"></path>
                    <path d="M142.442314,27.9390268 C142.442314,27.9390268 121.3553,55.9187067 90.5269686,53.4079224 C59.6990538,50.8975526 66.7276416,66.8626092 67.3478847,66.2810292 C67.9681278,65.6994491 122.749597,66.2810292 122.749597,66.2810292 L141.148057,66.2965558 L142.442314,27.9390268 Z" id="Fill-50" fill="#F49540"></path>
                    <path d="M171.122554,46.4405269 C167.815008,52.4026553 156.713991,66.2954961 147.969731,66.2954961 C147.31239,66.2954961 146.357432,66.2954961 145.179053,66.2913509 C142.640142,66.2872056 139.072077,66.2789151 135.239742,66.262334 C125.296261,66.2337317 113.587506,66.1926937 113.587506,66.1926937 C113.587506,66.1926937 110.139488,54.8694998 123.369256,54.8694998 L136.599858,54.8694998 C136.599858,54.8694998 128.946859,39.2455981 145.902254,24.4437016 L158.099117,6.14693592 C163.341588,9.43620019 166.992185,13.1860029 169.468573,17.0630652 L169.468573,17.0672104 C169.473158,17.0713557 169.473158,17.0713557 169.473158,17.0755009 C177.047376,28.9334334 173.615614,41.9466499 171.122554,46.4405269" id="Fill-52" fill="#F4B132"></path>
                    <path d="M105.326935,14.9826832 C93.0892228,26.622575 92.0638209,47.1188159 92.0638209,47.1188159 L83.8026667,41.7287336 L91.6461572,23.0166128 C91.654077,22.9511176 98.54261,20.2745229 105.326935,14.9826832" id="Fill-54" fill="#F49540"></path>
                    <path d="M90.5005416,29.0692736 C92.7664296,38.6817183 94.0152523,50.6424532 87.3872381,58.9151498 C79.6558749,68.5690472 64.2635926,69.1406786 53.050865,68.5777522 C43.612166,68.1002182 32.7091431,65.3664189 27.6567464,56.6207481 C16.4940383,37.292227 35.512325,25.7795948 35.512325,25.7795948 C35.5164933,25.7551377 35.5210784,25.7265354 35.5248299,25.7016639 C36.5502317,19.8017145 30.7041907,9.53473304 30.5553823,9.27150899 L30.551214,9.26736373 C30.551214,9.26736373 43.3679036,5.70285415 53.5677342,16.2575167 C53.5677342,16.2575167 62.8001024,12.4169327 72.9995162,17.9019415 C72.9995162,17.9019415 86.5027248,7.84512482 97.5291294,10.4475194 C90.6039154,22.7332428 90.5005416,29.0692736 90.5005416,29.0692736" id="Fill-56" fill="#F4B132"></path>
                    <path d="M41.2926319,52.039033 C41.2926319,52.039033 39.9842025,54.187107 41.2926319,57.9547344" id="Stroke-58" stroke="#BA5808" stroke-width="0.5"></path>
                    <path d="M67.3477597,49.8348321 C67.3477597,49.8348321 85.9054491,36.7130097 107.865305,41.2002543" id="Stroke-60" stroke="#BA5808" stroke-width="0.5"></path>
                    <path d="M73.5493567,52.066143 C73.5493567,52.066143 87.6069493,46.5803051 101.663708,54.9968422" id="Stroke-62" stroke="#BA5808" stroke-width="0.5"></path>
                    <path d="M29.7736176,43.5902458 C29.7736176,43.5902458 25.5898947,38.1197454 11.9457976,39.2489143" id="Stroke-64" stroke="#BA5808" stroke-width="0.5"></path>
                    <path d="M29.7736176,49.0903848 C29.7736176,49.0903848 12.604389,45.5370674 0.614690211,52.0662674" id="Stroke-66" stroke="#BA5808" stroke-width="0.5"></path>
                    <path d="M38.0621993,44.2934063 C37.3244101,45.6688038 38.0621993,51.6164237 41.2926319,52.0392403 C44.2712993,52.4288947 48.7426349,48.5327643 48.7426349,46.5455264 C48.7426349,44.8322902 39.0955209,42.3654456 38.0621993,44.2934063" id="Fill-68" fill="#ED7D18"></path>
                    <path d="M35.5249966,25.7016639 C36.5503985,19.8017145 30.7043574,9.53473304 30.5551322,9.27150899 C30.7748017,9.3622902 37.8484072,12.4049115 41.8174626,22.3220329 C41.8174626,22.3220329 38.8117013,23.8023055 35.5249966,25.7016639" id="Fill-70" fill="#ED7D18"></path>
                    <path d="M97.5292962,10.4475609 C90.6040822,22.7332842 90.5007083,29.069315 90.5007083,29.069315 C86.9038821,22.6839556 78.4076357,20.9856423 78.4076357,20.9856423 C83.4721205,10.9122446 97.5292962,10.4475609 97.5292962,10.4475609" id="Fill-72" fill="#ED7D18"></path>
                    <path d="M181.214843,57.9941973 C180.70631,60.9091445 180.081899,63.104889 179.436646,64.7576044 C178.329128,64.5316877 177.258292,64.2767542 176.237059,63.9849279 C177.60968,61.8016191 178.345385,59.5648365 178.705109,57.5419493 C179.457487,57.75999 180.292815,57.9162664 181.214843,57.9941973" id="Fill-74" fill="#ED7D18"></path>
                    <path d="M197.062095,66.4146724 C195.549002,66.3819248 194.019236,66.3325962 192.48947,66.2542508 C193.19683,62.5251743 192.774998,59.5521935 192.034708,57.3485729 C193.614077,57.1019299 195.077567,56.8018131 196.433515,56.4809699 C197.889086,60.0790561 197.719436,63.5938225 197.062095,66.4146724" id="Fill-76" fill="#ED7D18"></path>
                    <path d="M215.567889,66.2790394 C214.240702,66.2831847 212.690511,66.3076417 210.974422,66.3445345 C209.908171,60.5556781 206.335938,56.4439942 204.032952,54.3183045 C207.146255,53.3682108 209.577208,52.7638318 211.846847,53.3275872 C217.635366,54.7668217 229.211569,66.2583131 215.567889,66.2790394" id="Fill-78" fill="#FFFFFF"></path>
                    <path d="M171.122554,46.4405269 C167.815008,52.4026553 156.713991,66.2954961 147.969731,66.2954961 C147.31239,66.2954961 146.357432,66.2954961 145.179053,66.2913509 C142.640142,66.2872056 128.718436,66.2469966 124.885684,66.2304155 C175.601393,57.5419493 169.758269,17.7909729 169.473158,17.0755009 C177.047376,28.9334334 173.615614,41.9466499 171.122554,46.4405269" id="Fill-80" fill="#F49540"></path>
                </g>
            </g>
        </g>
    </g>
</svg>