<svg id="play-circle" xmlns="http://www.w3.org/2000/svg" width="88" height="88" viewBox="0 0 88 88">
  <path id="Shape" d="M44,88A44.012,44.012,0,0,1,26.871,3.457,44.013,44.013,0,0,1,61.129,84.543,43.74,43.74,0,0,1,44,88ZM44,5.677A38.323,38.323,0,1,0,82.323,44,38.366,38.366,0,0,0,44,5.677ZM31.244,66.715h0a4.351,4.351,0,0,1-2.973-1.2,4.194,4.194,0,0,1-1.3-3.066v-36.9a4.2,4.2,0,0,1,1.306-3.072,4.353,4.353,0,0,1,2.97-1.193,4.186,4.186,0,0,1,2.058.539L64.527,40.806a4.272,4.272,0,0,1,0,7.452L33.3,66.177A4.207,4.207,0,0,1,31.244,66.715ZM33.7,28.9a1.064,1.064,0,0,0-1.057,1.068V58.158a1.068,1.068,0,0,0,1.069,1.066,1.049,1.049,0,0,0,.529-.143L58.1,45.384a1.037,1.037,0,0,0,.528-.893,1.063,1.063,0,0,0-.51-.934l-23.863-14.5A1.052,1.052,0,0,0,33.7,28.9Z" fill="#fff"/>
</svg>
