<?xml version="1.0" encoding="UTF-8"?>
<svg width="39px" height="39px" viewBox="0 0 39 39" version="1.1" xmlns="http://www.w3.org/2000/svg" xmlns:xlink="http://www.w3.org/1999/xlink">
    <!-- Generator: Sketch 55.2 (78181) - https://sketchapp.com -->
    <title>sm-youtube</title>
    <desc>Created with Sketch.</desc>
    <g id="Page-1" stroke="none" stroke-width="1" fill="none" fill-rule="evenodd">
        <g id="Landing-Slide-1" transform="translate(-655.000000, -9303.000000)">
            <g id="sm-youtube" transform="translate(655.200000, 9303.600000)">
                <path d="M38.4,19.2 C38.4,29.8042901 29.8039045,38.4 19.2002484,38.4 C8.59609548,38.4 3.90798505e-14,29.8042901 3.90798505e-14,19.2 C3.90798505e-14,8.59570989 8.59609548,7.21200877e-13 19.2002484,7.21200877e-13 C29.8039045,7.21200877e-13 38.4,8.59570989 38.4,19.2" id="Fill-1" fill="#C8102E"></path>
                <path d="M17.5308959,21.1542082 C19.2727429,20.171901 20.9994653,19.1983644 22.7488746,18.2127682 C20.9974487,17.2184014 19.2702222,16.238835 17.5308959,15.2515944 L17.5308959,21.1542082 Z M12.9284875,24.4278347 C12.2947678,24.2019917 11.8677506,23.7492095 11.6388654,23.0651027 C11.0802644,21.3953997 10.9154065,14.4112613 11.9902597,13.0370179 C12.3577869,12.5661463 12.8311861,12.2898724 13.3943245,12.224641 C16.2911849,11.8864248 25.2444296,11.9346631 26.276934,12.3386588 C26.8809087,12.5749169 27.3104466,13.0052244 27.5433651,13.6635676 C28.1549021,15.3891832 28.1755724,21.6683846 27.4632049,23.3315097 C27.2696103,23.7820992 26.954515,24.1000335 26.5542179,24.3275209 C25.4743231,24.9436556 14.3501976,24.9359813 12.9284875,24.4278347 L12.9284875,24.4278347 Z" id="Fill-24" fill="#FFFFFF"></path>
            </g>
        </g>
    </g>
</svg>