<?xml version="1.0" encoding="UTF-8"?>
<svg width="16px" height="12px" viewBox="0 0 16 12" version="1.1" xmlns="http://www.w3.org/2000/svg" xmlns:xlink="http://www.w3.org/1999/xlink">
    <!-- Generator: Sketch 55.2 (78181) - https://sketchapp.com -->
    <title>social-twitter</title>
    <desc>Created with Sketch.</desc>
    <g id="Page-1" stroke="none" stroke-width="1" fill="none" fill-rule="evenodd">
        <g id="Landing-Slide-1" transform="translate(-1372.000000, -325.000000)" fill="#B2B2B2">
            <path d="M1376.74775,334.446709 C1375.076,334.392933 1374.03122,333.287344 1373.75482,332.38911 C1374.2201,332.470685 1374.67797,332.454279 1375.13336,332.350374 C1375.14572,332.348551 1375.15709,332.341259 1375.17984,332.331233 C1374.27499,332.13755 1373.57583,331.690484 1373.09077,330.970894 C1372.76888,330.492839 1372.6151,329.969666 1372.61955,329.394541 C1373.07148,329.617391 1373.54418,329.741804 1374.051,329.754108 C1373.37013,329.302029 1372.91375,328.710954 1372.72685,327.955362 C1372.54143,327.201593 1372.66158,326.484281 1373.07198,325.807985 C1374.81394,327.698789 1377.01822,328.735563 1379.70607,328.906004 C1379.68778,328.788883 1379.66751,328.685433 1379.65465,328.581528 C1379.56515,327.884724 1379.71596,327.233493 1380.12488,326.642874 C1380.63664,325.903688 1381.36794,325.443405 1382.30641,325.303042 C1383.38828,325.139437 1384.33269,325.423809 1385.12233,326.129272 C1385.17524,326.176667 1385.21924,326.192162 1385.29341,326.176667 C1385.9545,326.044507 1386.5785,325.824847 1387.16443,325.513131 C1387.17877,325.50584 1387.1931,325.498548 1387.20695,325.493079 C1387.20992,325.491257 1387.21535,325.491712 1387.22871,325.491712 C1386.97456,326.181224 1386.51076,326.712144 1385.85165,327.104979 C1386.47417,327.042089 1387.069,326.889421 1387.64256,326.660647 C1387.64751,326.66566 1387.65146,326.670217 1387.65591,326.673863 C1387.53279,326.822885 1387.41314,326.974641 1387.28557,327.118651 C1386.94439,327.506473 1386.55279,327.847355 1386.11618,328.142665 C1386.07959,328.168185 1386.06179,328.191883 1386.06328,328.235633 C1386.08108,328.675863 1386.06229,329.115638 1386.00345,329.552678 C1385.87983,330.473698 1385.60047,331.352336 1385.17425,332.192237 C1384.73369,333.05857 1384.15913,333.841506 1383.43574,334.529651 C1382.21049,335.696762 1380.73454,336.450076 1379.01532,336.799617 C1378.42593,336.919017 1377.82764,336.980084 1377.22342,336.996034 C1375.36872,337.046164 1373.65395,336.620973 1372.07615,335.722739 C1372.05587,335.711346 1372.0361,335.698585 1372,335.677166 C1373.1234,335.788819 1374.19043,335.656203 1375.2184,335.268837 C1375.76379,335.062849 1376.26912,334.792604 1376.74775,334.446709" id="social-twitter"></path>
        </g>
    </g>
</svg>