<?xml version="1.0" encoding="UTF-8"?>
<svg width="16px" height="13px" viewBox="0 0 16 13" version="1.1" xmlns="http://www.w3.org/2000/svg" xmlns:xlink="http://www.w3.org/1999/xlink">
    <!-- Generator: Sketch 55.2 (78181) - https://sketchapp.com -->
    <title>social-youtube</title>
    <desc>Created with Sketch.</desc>
    <g id="Page-1" stroke="none" stroke-width="1" fill="none" fill-rule="evenodd">
        <g id="Landing-Slide-1" transform="translate(-1372.000000, -368.000000)" fill="#B2B2B2">
            <path d="M1377.89976,377.010413 C1379.52299,376.109304 1381.13212,375.216242 1382.76239,374.312116 C1381.13024,373.399945 1379.52064,372.501351 1377.89976,371.595717 L1377.89976,377.010413 Z M1373.61078,380.013437 C1373.02021,379.806263 1372.62228,379.390908 1372.40898,378.76335 C1371.88842,377.231667 1371.73479,370.824847 1372.73644,369.5642 C1373.07894,369.132251 1373.5201,368.878814 1374.04489,368.818975 C1376.74447,368.508716 1385.088,368.552967 1386.05019,368.923568 C1386.61303,369.140297 1387.01332,369.535035 1387.23038,370.138958 C1387.80027,371.721932 1387.81953,377.482087 1387.15567,379.007736 C1386.97526,379.421079 1386.68163,379.712732 1386.30859,379.921415 C1385.30224,380.48662 1374.93567,380.47958 1373.61078,380.013437 L1373.61078,380.013437 Z" id="social-youtube"></path>
        </g>
    </g>
</svg>