<?xml version="1.0" encoding="UTF-8"?>
<svg width="16px" height="14px" viewBox="0 0 16 14" version="1.1" xmlns="http://www.w3.org/2000/svg" xmlns:xlink="http://www.w3.org/1999/xlink">
    <!-- Generator: Sketch 55.2 (78181) - https://sketchapp.com -->
    <title>social-redit</title>
    <desc>Created with Sketch.</desc>
    <g id="Page-1" stroke="none" stroke-width="1" fill="none" fill-rule="evenodd">
        <g id="Landing-Slide-1" transform="translate(-1372.000000, -456.000000)" fill="#B2B2B2">
            <path d="M1383.00098,465.789055 C1382.3282,465.789055 1381.78003,465.25656 1381.78003,464.603577 C1381.78003,463.93841 1382.3282,463.403658 1383.00098,463.403658 C1383.68631,463.403658 1384.23774,463.935702 1384.23774,464.603577 C1384.23448,465.253401 1383.68631,465.789055 1383.00098,465.789055 M1383.02608,467.428057 C1381.89208,468.528246 1378.69232,468.528246 1377.55878,467.428057 C1377.43417,467.321558 1377.43417,467.134282 1377.55878,467.013794 C1377.66757,466.907746 1377.86053,466.907746 1377.97025,467.013794 C1378.83599,467.875262 1381.70843,467.890154 1382.61135,467.013794 C1382.72061,466.907746 1382.91403,466.907746 1383.02283,467.013794 C1383.15023,467.134282 1383.15023,467.321558 1383.02608,467.428057 M1376.34992,464.600869 C1376.34992,463.935702 1376.89809,463.400499 1377.58667,463.400499 C1378.25992,463.400499 1378.80762,463.932543 1378.80762,464.600869 C1378.80762,465.253401 1378.25992,465.78591 1377.58667,465.78591 C1376.90134,465.789055 1376.34992,465.253401 1376.34992,464.600869 M1386.03522,461.414022 C1385.56795,461.414022 1385.15693,461.601298 1384.85425,461.894622 C1383.74257,461.147775 1382.24404,460.666724 1380.58372,460.615731 L1381.4462,456.842237 L1384.19403,457.441068 C1384.19403,458.094052 1384.7422,458.626095 1385.41498,458.626095 C1386.10078,458.626095 1386.6522,458.078708 1386.6522,457.426176 C1386.6522,456.773193 1386.10357,456.225806 1385.41498,456.225806 C1384.93562,456.225806 1384.52135,456.506946 1384.31538,456.890523 L1381.2816,456.237539 C1381.1291,456.198279 1380.97892,456.303876 1380.93847,456.452342 L1379.99138,460.612572 C1378.34361,460.67936 1376.86089,461.159959 1375.74595,461.906355 C1375.44327,461.601298 1375.01645,461.414022 1374.54918,461.414022 C1372.81772,461.414022 1372.25048,463.669454 1373.83595,464.44067 C1373.78016,464.67939 1373.75505,464.933453 1373.75505,465.187516 C1373.75505,467.720929 1376.69537,469.774194 1380.30615,469.774194 C1383.93227,469.774194 1386.87305,467.720929 1386.87305,465.187516 C1386.87305,464.933453 1386.84516,464.667206 1386.77634,464.428034 C1388.33113,463.654563 1387.75785,461.414022 1386.03522,461.414022" id="social-redit"></path>
        </g>
    </g>
</svg>