<?xml version="1.0" encoding="UTF-8"?>
<svg width="16px" height="13px" viewBox="0 0 16 13" version="1.1" xmlns="http://www.w3.org/2000/svg" xmlns:xlink="http://www.w3.org/1999/xlink">
    <!-- Generator: Sketch 55.2 (78181) - https://sketchapp.com -->
    <title>social-medium</title>
    <desc>Created with Sketch.</desc>
    <g id="Page-1" stroke="none" stroke-width="1" fill="none" fill-rule="evenodd">
        <g id="Landing-Slide-1" transform="translate(-1372.000000, -412.000000)" fill="#B2B2B2">
            <path d="M1373.85483,415.266658 C1373.87412,415.086195 1373.79987,414.905732 1373.65715,414.783145 L1372.1972,413.118876 L1372.1972,412.870968 L1376.73568,412.870968 L1380.24381,420.142801 L1383.32861,412.870968 L1387.65591,412.870968 L1387.65591,413.118876 L1386.40666,414.250871 C1386.30011,414.326975 1386.24466,414.455942 1386.26732,414.581264 L1386.26732,422.902607 C1386.24466,423.027929 1386.30011,423.15644 1386.40666,423.232545 L1387.62698,424.364995 L1387.62698,424.612903 L1381.4868,424.612903 L1381.4868,424.364995 L1382.75244,423.205657 C1382.87539,423.088994 1382.87539,423.052537 1382.87539,422.874809 L1382.87539,416.150744 L1379.35714,424.591485 L1378.88125,424.591485 L1374.78972,416.150744 L1374.78972,421.807526 C1374.75453,422.045864 1374.83842,422.284203 1375.01633,422.455552 L1376.66095,424.340386 L1376.66095,424.588295 L1372,424.588295 L1372,424.343576 L1373.64413,422.455552 C1373.81915,422.284203 1373.90016,422.042674 1373.85483,421.807526 L1373.85483,415.266658 Z" id="social-medium"></path>
        </g>
    </g>
</svg>