<svg xmlns="http://www.w3.org/2000/svg" width="14.783" height="11.087" viewBox="0 0 14.783 11.087">
  <path id="Fill_5" data-name="Fill 5" d="M4.483,8.676A3.012,3.012,0,0,1,1.657,6.733a3.257,3.257,0,0,0,1.3-.037A.212.212,0,0,0,3,6.679,3.038,3.038,0,0,1,1.03,5.394,2.563,2.563,0,0,1,.585,3.906a3.19,3.19,0,0,0,1.352.34,2.819,2.819,0,0,1-1.25-1.7A2.585,2.585,0,0,1,1.012.519,8.958,8.958,0,0,0,7.276,3.444c-.017-.111-.036-.208-.049-.306a2.549,2.549,0,0,1,.444-1.831A2.941,2.941,0,0,1,9.732.042a3.121,3.121,0,0,1,2.659.78.161.161,0,0,0,.162.045A6.417,6.417,0,0,0,14.319.241c.014-.007.027-.014.04-.019s.008,0,.021,0a2.917,2.917,0,0,1-1.3,1.523,6.232,6.232,0,0,0,1.691-.42l.013.012c-.116.141-.229.284-.35.42a5.764,5.764,0,0,1-1.1.967.093.093,0,0,0-.05.088,7.146,7.146,0,0,1-.056,1.244,7.753,7.753,0,0,1-.783,2.492A8.072,8.072,0,0,1,10.8,8.754,8.324,8.324,0,0,1,6.624,10.9a9.81,9.81,0,0,1-1.692.185,9.139,9.139,0,0,1-4.86-1.2L0,9.838a6.622,6.622,0,0,0,3.039-.386,6.156,6.156,0,0,0,1.444-.776" fill="#fff"/>
</svg>
