<svg xmlns="http://www.w3.org/2000/svg" width="14.047" height="11.087" viewBox="0 0 14.047 11.087">
  <path id="Fill_24" data-name="Fill 24" d="M6.856,11.087a29.644,29.644,0,0,1-5.478-.322A1.733,1.733,0,0,1,.3,9.584C-.177,8.109-.3,2.077.593.9a1.691,1.691,0,0,1,1.174-.7C2.759.075,4.759,0,6.985,0a31.871,31.871,0,0,1,5.551.293,1.8,1.8,0,0,1,1.058,1.147c.5,1.469.546,6.89-.067,8.374a1.754,1.754,0,0,1-.76.862C12.289,10.96,9.454,11.087,6.856,11.087ZM5.107,2.956V8.131L8.876,5.939l.666-.387L7.956,4.624l-.2-.114L5.107,2.956Z" transform="translate(0.068 0)" fill="#fff"/>
</svg>
