<svg id="icon-5" xmlns="http://www.w3.org/2000/svg" width="57" height="49" viewBox="0 0 57 49">
  <circle id="Oval_Copy_4" data-name="Oval Copy 4" cx="11" cy="11" r="11" transform="translate(35 23)" fill="#c8102e" opacity="0.241"/>
  <g id="altcoin">
    <path id="Path" d="M.926,2a1.08,1.08,0,0,0,.588-.2A.975.975,0,0,0,1.889.5.91.91,0,0,0,.634.115L.477.2A.964.964,0,0,0,.926,2Z" transform="translate(7 10)" fill="#75bd29"/>
    <path id="Shape" d="M10.505,21h0A10.373,10.373,0,0,1,1.39,15.7,10.113,10.113,0,0,1,0,10.384a10.715,10.715,0,0,1,1.424-5.1A10.367,10.367,0,0,1,10.509,0,10.54,10.54,0,0,1,20,6.026.755.755,0,0,1,19.321,7.1a.757.757,0,0,1-.683-.433A9.025,9.025,0,0,0,10.51,1.509,9.006,9.006,0,0,0,2.492,14.56H4.549V6.446a.759.759,0,0,1,.758-.756.741.741,0,0,1,.459.16l4.745,3.7,4.744-3.7a.741.741,0,0,1,.459-.16.759.759,0,0,1,.758.756V14.56h2.056a9.038,9.038,0,0,0,.965-4.057A.754.754,0,1,1,21,10.5,10.444,10.444,0,0,1,10.505,21ZM3.454,16.069a8.979,8.979,0,0,0,14.111,0H15.717a.755.755,0,0,1-.754-.754V7.989L10.973,11.1a.753.753,0,0,1-.926,0L6.057,7.989v7.326a.755.755,0,0,1-.754.754Z" transform="translate(5 13)" fill="#c8102e"/>
    <path id="Path-2" data-name="Path" d="M36.012,19.249l1.354-2.056a.766.766,0,1,0-1.279-.842l-1.648,2.5q-.72-.141-1.459-.213l-1.507-2.289a.766.766,0,1,0-1.279.842l.908,1.379a15.42,15.42,0,0,0-1.6.122,15.375,15.375,0,0,0-4.347-6.283,9.092,9.092,0,1,1,17.04,6.3.766.766,0,1,0,1.411.594,10.624,10.624,0,1,0-19.727-7.885,15.147,15.147,0,0,0-2.722-1.5,13.686,13.686,0,1,1,24.03,12.856.766.766,0,1,0,1.276.847A15.218,15.218,0,1,0,19.722,9.388a15.293,15.293,0,0,0-8.979-.011.766.766,0,0,0,.449,1.464,13.7,13.7,0,1,1-5.254,3.024A.766.766,0,0,0,4.9,12.74,15.217,15.217,0,1,0,30.408,24.731a9.135,9.135,0,1,1-6.085,14.685.766.766,0,1,0-1.206.943,10.665,10.665,0,1,0,7.3-17.169,15.189,15.189,0,0,0-.447-3.009,13.686,13.686,0,1,1-9.75,21.368.766.766,0,1,0-1.26.87,15.218,15.218,0,1,0,17.057-23.17Z" fill="#c8102e"/>
    <path id="Path-3" data-name="Path" d="M.775,12h6.45a.751.751,0,1,0,0-1.5H1.855L3.334,6.263l2.585-.526a.751.751,0,0,0,.6-.889.775.775,0,0,0-.917-.58l-1.69.344L5.174.991A.745.745,0,0,0,4.688.04.781.781,0,0,0,3.706.51L2.149,4.971.7,5.266a.751.751,0,0,0-.6.888.775.775,0,0,0,.917.58l.555-.113L.041,11.01A.755.755,0,0,0,.775,12Z" transform="translate(28 27)" fill="#c8102e"/>
    <path id="Shape-2" data-name="Shape" d="M3.5,8a.724.724,0,0,1-.4-.12L.321,6.034A.719.719,0,0,1,.1,5.071L2.877.355a.724.724,0,0,1,1.246,0L6.9,5.071a.718.718,0,0,1-.222.963L3.9,7.879A.722.722,0,0,1,3.5,8Zm0-5.86L1.689,5.214,3.5,6.416l1.811-1.2Z" transform="translate(30 8)" fill="#c8102e"/>
  </g>
</svg>
