<svg id="icon-1" xmlns="http://www.w3.org/2000/svg" width="49" height="43" viewBox="0 0 49 43">
  <circle id="Oval_Copy_2" data-name="Oval Copy 2" cx="11" cy="11" r="11" transform="translate(27 21)" fill="#c8102e" opacity="0.241"/>
  <g id="nodes">
    <path id="Shape" d="M25.68,38a2.835,2.835,0,0,1-2.757-2.227H15.077A2.834,2.834,0,0,1,12.32,38a2.823,2.823,0,0,1-2.377-4.335L4.335,28.057a2.788,2.788,0,0,1-1.5.444,2.886,2.886,0,0,1-1.966-.788A2.773,2.773,0,0,1,0,25.68a2.821,2.821,0,0,1,2.816-2.82,2.856,2.856,0,0,1,.514.047L4.954,19,3.33,15.094a2.863,2.863,0,0,1-.514.047A2.824,2.824,0,0,1,0,12.32a2.772,2.772,0,0,1,.867-2.033A2.887,2.887,0,0,1,2.833,9.5a2.785,2.785,0,0,1,1.5.444L9.943,4.335a2.78,2.78,0,0,1-.092-2.87,2.812,2.812,0,0,1,4.941.006,2.779,2.779,0,0,1-.1,2.877l1.692,1.693,4.9-2.034a.594.594,0,1,1,.456,1.1L17.29,6.95l4.277,4.277L24.08,5.141a2.772,2.772,0,0,1-1.086-3.158,2.812,2.812,0,0,1,5.155-.517,2.779,2.779,0,0,1-.092,2.87l5.608,5.608a2.787,2.787,0,0,1,1.5-.444,2.887,2.887,0,0,1,1.966.789A2.772,2.772,0,0,1,38,12.32a2.834,2.834,0,0,1-2.227,2.757v7.846a2.82,2.82,0,0,1-.632,5.577,2.716,2.716,0,0,1-2.278-1.215L15.3,34.586h7.627A2.82,2.82,0,1,1,25.68,38Zm0-4.453a1.633,1.633,0,1,0,1.633,1.633A1.635,1.635,0,0,0,25.68,33.547Zm-13.36,0a1.633,1.633,0,1,0,1.633,1.633A1.635,1.635,0,0,0,12.32,33.547Zm0-1.187h0a2.822,2.822,0,0,1,2.314,1.214l17.77-7.385a2.8,2.8,0,0,1,.405-2.038l-7.227-7.228-6.13,2.531L14.768,30.807a.594.594,0,0,1-1.1-.453l4.235-10.26-2.944,1.215a.594.594,0,1,1-.454-1.1l4.037-1.667,2.531-6.13L16.1,7.443,9.986,9.986,6.24,19,7.88,22.948l2.317-.956a.593.593,0,1,1,.453,1.1l-2.314.956,3.475,8.361A2.857,2.857,0,0,1,12.323,32.36ZM7.238,24.5l-1.643.679a2.8,2.8,0,0,1-.415,2.045l5.459,5.459L7.238,24.5Zm27.942-.451a1.633,1.633,0,1,0,1.633,1.633A1.635,1.635,0,0,0,35.18,24.047Zm-32.359,0A1.633,1.633,0,1,0,4.453,25.68,1.635,1.635,0,0,0,2.821,24.047Zm2.776-3.5-1.17,2.816a2.822,2.822,0,0,1,.715.716L6.782,23.4Zm24.523-5.5-3.346,1.382,6.709,6.709-3.362-8.091Zm2.74-1.131-1.642.679,3.369,8.1V15.077a2.813,2.813,0,0,1-1.727-1.156Zm-10.874-.595-1.891,4.581,4.581-1.892-2.69-2.689ZM8.431,10.632,5.594,11.811a2.829,2.829,0,0,1-1.167,2.826L5.6,17.453ZM25.177,5.594l-2.7,6.542,3.388,3.388,3.8-1.569L26.189,5.594a2.775,2.775,0,0,1-1.012,0Zm10,5.093a1.633,1.633,0,1,0,1.633,1.633A1.635,1.635,0,0,0,35.18,10.688Zm-32.359,0A1.633,1.633,0,1,0,4.453,12.32,1.635,1.635,0,0,0,2.821,10.688ZM27.362,5.32h0l3.4,8.181,1.643-.679a2.8,2.8,0,0,1,.415-2.045Zm-16.723,0L5.32,10.639,9.077,9.077Zm1.172.274L10.632,8.431l4.563-1.9L13.849,5.189a2.8,2.8,0,0,1-1.525.452A2.847,2.847,0,0,1,11.811,5.594ZM25.68,1.187a1.633,1.633,0,1,0,1.633,1.633A1.635,1.635,0,0,0,25.68,1.187Zm-13.36,0a1.633,1.633,0,1,0,1.633,1.633A1.635,1.635,0,0,0,12.32,1.187Z" transform="translate(0)" fill="#c8102e"/>
    <path id="Path" d="M.376.044a.594.594,0,1,0,.442,1.1A.594.594,0,1,0,.376.044Z" transform="translate(11.978 21.057)" fill="#c8102e"/>
  </g>
</svg>
