<?xml version="1.0" encoding="UTF-8"?>
<svg width="18px" height="14px" viewBox="0 0 18 14" version="1.1" xmlns="http://www.w3.org/2000/svg" xmlns:xlink="http://www.w3.org/1999/xlink">
    <!-- Generator: Sketch 55.2 (78181) - https://sketchapp.com -->
    <title>git</title>
    <desc>Created with Sketch.</desc>
    <g id="Page-1" stroke="none" stroke-width="1" fill="none" fill-rule="evenodd">
        <g id="BDAM-Slide-2" transform="translate(-1376.000000, -548.000000)" fill="#7775A5">
            <path d="M1387.96591,555.846504 C1387.03929,555.846504 1386.64783,557.053477 1386.64783,557.790309 C1386.64783,558.528056 1387.03929,559.734114 1387.96591,559.734114 C1388.89254,559.734114 1389.28447,558.528056 1389.28447,557.790309 C1389.28447,557.053477 1388.89254,555.846504 1387.96591,555.846504 M1390.9329,557.790309 C1390.9329,556.241496 1389.97407,554.876434 1388.29252,554.876434 C1387.61365,554.876434 1386.9637,554.99649 1386.28109,555.088135 C1385.74593,555.168784 1385.21076,555.20086 1384.66113,555.20086 C1384.11476,555.20086 1383.58006,555.168784 1383.04069,555.088135 C1382.36929,554.99649 1381.71187,554.876434 1381.02927,554.876434 C1379.34771,554.876434 1378.38889,556.241496 1378.38889,557.790309 C1378.38889,560.888391 1381.27702,561.364491 1383.79189,561.364491 L1385.52337,561.364491 C1388.0485,561.364491 1390.9329,560.891599 1390.9329,557.790309 M1393.2434,556.008716 C1393.2434,557.134584 1393.12816,558.326894 1392.61445,559.360658 C1391.25297,562.062831 1387.5096,561.999595 1384.82956,561.999595 C1382.1066,561.999595 1378.14067,562.094907 1376.72553,559.360658 C1376.2011,558.337433 1376,557.134584 1376,556.008716 C1376,554.530471 1376.49924,553.133333 1377.49072,552.000592 C1377.30362,551.443845 1377.21404,550.85777 1377.21404,550.279486 C1377.21404,549.52066 1377.38994,549.139414 1377.73848,548.451613 C1379.36544,548.451613 1380.40778,548.769623 1381.64702,549.721822 C1382.68843,549.478503 1383.75923,549.368986 1384.83329,549.368986 C1385.80332,549.368986 1386.78033,549.471629 1387.72189,549.693412 C1388.9434,548.751753 1389.98481,548.451613 1391.59404,548.451613 C1391.94631,549.139414 1392.11848,549.52066 1392.11848,550.279486 C1392.11848,550.85777 1392.02516,551.432847 1391.84226,551.979972 C1392.83001,553.123252 1393.2434,554.530471 1393.2434,556.008716 M1382.68516,557.790309 C1382.68516,558.528056 1382.2937,559.734114 1381.3666,559.734114 C1380.43998,559.734114 1380.04805,558.528056 1380.04805,557.790309 C1380.04805,557.053477 1380.43998,555.846504 1381.3666,555.846504 C1382.2937,555.846504 1382.68516,557.053477 1382.68516,557.790309" id="git"></path>
        </g>
    </g>
</svg>