<?xml version="1.0" encoding="UTF-8"?>
<svg width="303px" height="154px" viewBox="0 0 303 154" version="1.1" xmlns="http://www.w3.org/2000/svg" xmlns:xlink="http://www.w3.org/1999/xlink">
    <!-- Generator: Sketch 55.2 (78181) - https://sketchapp.com -->
    <title>Group 23</title>
    <desc>Created with Sketch.</desc>
    <defs>
        <rect id="path-1" x="0" y="0" width="213" height="64" rx="9"></rect>
        <filter x="-32.2%" y="-103.9%" width="164.3%" height="314.1%" filterUnits="objectBoundingBox" id="filter-2">
            <feOffset dx="0" dy="2" in="SourceAlpha" result="shadowOffsetOuter1"></feOffset>
            <feGaussianBlur stdDeviation="22.5" in="shadowOffsetOuter1" result="shadowBlurOuter1"></feGaussianBlur>
            <feComposite in="shadowBlurOuter1" in2="SourceAlpha" operator="out" result="shadowBlurOuter1"></feComposite>
            <feColorMatrix values="0 0 0 0 0   0 0 0 0 0   0 0 0 0 0  0 0 0 0.07 0" type="matrix" in="shadowBlurOuter1"></feColorMatrix>
        </filter>
    </defs>
    <g id="Page-1" stroke="none" stroke-width="1" fill="none" fill-rule="evenodd">
        <g id="Landing-Slide-1" transform="translate(-325.000000, -356.000000)">
            <g id="Group-23" transform="translate(370.000000, 399.000000)">
                <g id="button">
                    <use fill="black" fill-opacity="1" filter="url(#filter-2)" xlink:href="#path-1"></use>
                    <rect stroke="#FFFFFF" stroke-width="1" stroke-linejoin="square" fill="#FFFFFF" fill-rule="evenodd" x="0.5" y="0.5" width="212" height="63" rx="9"></rect>
                </g>
                <g id="Group-4" transform="translate(67.000000, 14.000000)" fill="#4A4A4A" fill-rule="nonzero">
                    <path d="M3.06967187,0.399902344 L6.21176172,0.399902344 C8.92855859,0.399902344 10.5345156,2.09472656 10.5345156,4.9765625 C10.5345156,7.86474609 8.93490625,9.55957031 6.21176172,9.55957031 L3.06967187,9.55957031 L3.06967187,0.399902344 Z M4.21225,1.42822266 L4.21225,8.53125 L6.13558984,8.53125 C8.21127344,8.53125 9.36654687,7.26171875 9.36654687,4.98925781 C9.36654687,2.69775391 8.21762109,1.42822266 6.13558984,1.42822266 L4.21225,1.42822266 Z M15.6687539,9.62304688 C13.7454141,9.62304688 12.5139688,8.25830078 12.5139688,6.13818359 C12.5139688,4.01171875 13.7454141,2.65332031 15.6687539,2.65332031 C17.5920938,2.65332031 18.8235391,4.01171875 18.8235391,6.13818359 C18.8235391,8.25830078 17.5920938,9.62304688 15.6687539,9.62304688 Z M15.6687539,8.63916016 C16.9446329,8.63916016 17.7000039,7.70605469 17.7000039,6.13818359 C17.7000039,4.56396484 16.9446329,3.63720703 15.6687539,3.63720703 C14.392875,3.63720703 13.6375039,4.5703125 13.6375039,6.13818359 C13.6375039,7.70605469 14.3992227,8.63916016 15.6687539,8.63916016 Z M29.6833634,2.71679688 L27.7663712,9.55957031 L26.6491837,9.55957031 L25.0876602,4.24023438 L25.0622696,4.24023438 L23.5007462,9.55957031 L22.3835587,9.55957031 L20.4665665,2.71679688 L21.5583634,2.71679688 L22.9485001,8.30908203 L22.9738907,8.30908203 L24.5417618,2.71679688 L25.6081681,2.71679688 L27.1760391,8.30908203 L27.2014298,8.30908203 L28.5915665,2.71679688 L29.6833634,2.71679688 Z M31.6628165,9.55957031 L31.6628165,2.71679688 L32.7038322,2.71679688 L32.7038322,3.82763672 L32.7292228,3.82763672 C33.1608634,3.05322266 33.8400626,2.65332031 34.9001212,2.65332031 C36.4045157,2.65332031 37.2741447,3.61816406 37.2741447,5.17333984 L37.2741447,9.55957031 L36.1696525,9.55957031 L36.1696525,5.36376953 C36.1696525,4.24658203 35.6491447,3.63720703 34.5700431,3.63720703 C33.4465079,3.63720703 32.7673087,4.41162109 32.7673087,5.5859375 L32.7673087,9.55957031 L31.6628165,9.55957031 Z M39.8439299,9.55957031 L39.8439299,0 L40.948422,0 L40.948422,9.55957031 L39.8439299,9.55957031 Z M46.3683049,9.62304688 C44.4449651,9.62304688 43.2135197,8.25830078 43.2135197,6.13818359 C43.2135197,4.01171875 44.4449651,2.65332031 46.3683049,2.65332031 C48.2916447,2.65332031 49.5230901,4.01171875 49.5230901,6.13818359 C49.5230901,8.25830078 48.2916447,9.62304688 46.3683049,9.62304688 Z M46.3683049,8.63916016 C47.6441838,8.63916016 48.3995549,7.70605469 48.3995549,6.13818359 C48.3995549,4.56396484 47.6441838,3.63720703 46.3683049,3.63720703 C45.092426,3.63720703 44.3370549,4.5703125 44.3370549,6.13818359 C44.3370549,7.70605469 45.0987736,8.63916016 46.3683049,8.63916016 Z M53.9590862,8.66455078 C55.0762737,8.66455078 55.8951213,7.94091797 55.8951213,6.95703125 L55.8951213,6.40478516 L54.1050823,6.51904297 C53.076762,6.58251953 52.5435588,6.95703125 52.5435588,7.6171875 C52.5435588,8.25195312 53.0958049,8.66455078 53.9590862,8.66455078 Z M53.7242229,9.62304688 C52.3340862,9.62304688 51.413676,8.82324219 51.413676,7.61083984 C51.413676,6.43652344 52.3150432,5.74462891 53.9781292,5.64306641 L55.8951213,5.52880859 L55.8951213,4.95751953 C55.8951213,4.10693359 55.3365276,3.63720703 54.3272502,3.63720703 C53.5337932,3.63720703 52.9434612,4.04345703 52.8101604,4.69091797 L51.7501018,4.69091797 C51.7818401,3.53564453 52.9053752,2.65332031 54.3399456,2.65332031 C55.9585979,2.65332031 56.9996135,3.51660156 56.9996135,4.86230469 L56.9996135,9.55957031 L55.9522502,9.55957031 L55.9522502,8.37255859 L55.9268596,8.37255859 C55.5396526,9.13427734 54.682719,9.62304688 53.7242229,9.62304688 Z M62.1021136,9.62304688 C60.3818987,9.62304688 59.1694964,8.2265625 59.1694964,6.13818359 C59.1694964,4.04980469 60.3755511,2.65332031 62.0767229,2.65332031 C63.054262,2.65332031 63.8413714,3.07861328 64.2603167,3.82763672 L64.2857073,3.82763672 L64.2857073,0 L65.3901995,0 L65.3901995,9.55957031 L64.3364886,9.55957031 L64.3364886,8.40429688 L64.3174456,8.40429688 C63.8731097,9.19140625 63.0923479,9.62304688 62.1021136,9.62304688 Z M62.2988909,3.63720703 C61.0991839,3.63720703 60.2993792,4.62744141 60.2993792,6.13818359 C60.2993792,7.65527344 61.0991839,8.63916016 62.2988909,8.63916016 C63.4859026,8.63916016 64.292055,7.62988281 64.292055,6.13818359 C64.292055,4.65283203 63.4859026,3.63720703 62.2988909,3.63720703 Z M74.960434,9.62304688 C73.0370941,9.62304688 71.8056488,8.25830078 71.8056488,6.13818359 C71.8056488,4.01171875 73.0370941,2.65332031 74.960434,2.65332031 C76.8837738,2.65332031 78.1152191,4.01171875 78.1152191,6.13818359 C78.1152191,8.25830078 76.8837738,9.62304688 74.960434,9.62304688 Z M74.960434,8.63916016 C76.2363129,8.63916016 76.991684,7.70605469 76.991684,6.13818359 C76.991684,4.56396484 76.2363129,3.63720703 74.960434,3.63720703 C73.6845551,3.63720703 72.929184,4.5703125 72.929184,6.13818359 C72.929184,7.70605469 73.6909027,8.63916016 74.960434,8.63916016 Z M80.3168403,9.55957031 L80.3168403,2.71679688 L81.3578559,2.71679688 L81.3578559,3.82763672 L81.3832465,3.82763672 C81.8148871,3.05322266 82.4940864,2.65332031 83.5541449,2.65332031 C85.0585395,2.65332031 85.9281684,3.61816406 85.9281684,5.17333984 L85.9281684,9.55957031 L84.8236762,9.55957031 L84.8236762,5.36376953 C84.8236762,4.24658203 84.3031684,3.63720703 83.2240668,3.63720703 C82.1005317,3.63720703 81.4213324,4.41162109 81.4213324,5.5859375 L81.4213324,9.55957031 L80.3168403,9.55957031 Z" id="Downloadon" opacity="0.523507254"></path>
                    <path d="M10.857,23.9785703 L13.965,23.9785703 L13.965,29.9425703 C13.166996,30.5445733 12.2430052,31.0065687 11.193,31.3285703 C10.1429947,31.6505719 9.08600532,31.8115703 8.022,31.8115703 C6.49599237,31.8115703 5.12400609,31.4860736 3.906,30.8350703 C2.68799391,30.1840671 1.73250346,29.2810761 1.0395,28.1260703 C0.346496535,26.9710645 -2.84217094e-14,25.6655776 -2.84217094e-14,24.2095703 C-2.84217094e-14,22.753563 0.346496535,21.4480761 1.0395,20.2930703 C1.73250346,19.1380645 2.69499384,18.2350736 3.927,17.5840703 C5.15900616,16.9330671 6.5449923,16.6075703 8.085,16.6075703 C9.37300644,16.6075703 10.5419947,16.8245681 11.592,17.2585703 C12.6420052,17.6925725 13.5239964,18.3225662 14.238,19.1485703 L12.054,21.1645703 C11.0039947,20.0585648 9.73700742,19.5055703 8.253,19.5055703 C7.31499531,19.5055703 6.48200364,19.7015684 5.754,20.0935703 C5.02599636,20.4855723 4.45900203,21.0385667 4.053,21.7525703 C3.64699797,22.4665739 3.444,23.2855657 3.444,24.2095703 C3.444,25.1195749 3.64699797,25.9315667 4.053,26.6455703 C4.45900203,27.3595739 5.02249639,27.9160683 5.7435,28.3150703 C6.4645036,28.7140723 7.28699538,28.9135703 8.211,28.9135703 C9.1910049,28.9135703 10.0729961,28.7035724 10.857,28.2835703 L10.857,23.9785703 Z M22.26,31.7275703 C21.069994,31.7275703 20.0025047,31.4790728 19.0575,30.9820703 C18.1124953,30.4850678 17.3740027,29.7955747 16.842,28.9135703 C16.3099973,28.0315659 16.044,27.0305759 16.044,25.9105703 C16.044,24.7905647 16.3099973,23.7895747 16.842,22.9075703 C17.3740027,22.0255659 18.1124953,21.3360728 19.0575,20.8390703 C20.0025047,20.3420678 21.069994,20.0935703 22.26,20.0935703 C23.4500059,20.0935703 24.5139953,20.3420678 25.452,20.8390703 C26.3900047,21.3360728 27.1249973,22.0255659 27.657,22.9075703 C28.1890027,23.7895747 28.455,24.7905647 28.455,25.9105703 C28.455,27.0305759 28.1890027,28.0315659 27.657,28.9135703 C27.1249973,29.7955747 26.3900047,30.4850678 25.452,30.9820703 C24.5139953,31.4790728 23.4500059,31.7275703 22.26,31.7275703 Z M22.26,29.0395703 C23.1000042,29.0395703 23.7894973,28.7560731 24.3285,28.1890703 C24.8675027,27.6220675 25.137,26.8625751 25.137,25.9105703 C25.137,24.9585656 24.8675027,24.1990731 24.3285,23.6320703 C23.7894973,23.0650675 23.1000042,22.7815703 22.26,22.7815703 C21.4199958,22.7815703 20.7270027,23.0650675 20.181,23.6320703 C19.6349973,24.1990731 19.362,24.9585656 19.362,25.9105703 C19.362,26.8625751 19.6349973,27.6220675 20.181,28.1890703 C20.7270027,28.7560731 21.4199958,29.0395703 22.26,29.0395703 Z M36.015,31.7275703 C34.824994,31.7275703 33.7575047,31.4790728 32.8125,30.9820703 C31.8674953,30.4850678 31.1290027,29.7955747 30.597,28.9135703 C30.0649973,28.0315659 29.799,27.0305759 29.799,25.9105703 C29.799,24.7905647 30.0649973,23.7895747 30.597,22.9075703 C31.1290027,22.0255659 31.8674953,21.3360728 32.8125,20.8390703 C33.7575047,20.3420678 34.824994,20.0935703 36.015,20.0935703 C37.2050059,20.0935703 38.2689953,20.3420678 39.207,20.8390703 C40.1450047,21.3360728 40.8799973,22.0255659 41.412,22.9075703 C41.9440027,23.7895747 42.21,24.7905647 42.21,25.9105703 C42.21,27.0305759 41.9440027,28.0315659 41.412,28.9135703 C40.8799973,29.7955747 40.1450047,30.4850678 39.207,30.9820703 C38.2689953,31.4790728 37.2050059,31.7275703 36.015,31.7275703 Z M36.015,29.0395703 C36.8550042,29.0395703 37.5444973,28.7560731 38.0835,28.1890703 C38.6225027,27.6220675 38.892,26.8625751 38.892,25.9105703 C38.892,24.9585656 38.6225027,24.1990731 38.0835,23.6320703 C37.5444973,23.0650675 36.8550042,22.7815703 36.015,22.7815703 C35.1749958,22.7815703 34.4820027,23.0650675 33.936,23.6320703 C33.3899973,24.1990731 33.117,24.9585656 33.117,25.9105703 C33.117,26.8625751 33.3899973,27.6220675 33.936,28.1890703 C34.4820027,28.7560731 35.1749958,29.0395703 36.015,29.0395703 Z M56.049,20.2615703 L56.049,29.6695703 C56.049,31.7415807 55.5100054,33.2815653 54.432,34.2895703 C53.3539946,35.2975754 51.7790104,35.8015703 49.707,35.8015703 C48.6149945,35.8015703 47.5790049,35.6685716 46.599,35.4025703 C45.6189951,35.136569 44.8070032,34.7515728 44.163,34.2475703 L45.465,31.8955703 C45.9410024,32.2875723 46.5429964,32.5990692 47.271,32.8300703 C47.9990036,33.0610715 48.7269964,33.1765703 49.455,33.1765703 C50.5890057,33.1765703 51.4254973,32.9210729 51.9645,32.4100703 C52.5035027,31.8990678 52.773,31.1255755 52.773,30.0895703 L52.773,29.6065703 C51.9189957,30.544575 50.7290076,31.0135703 49.203,31.0135703 C48.1669948,31.0135703 47.2185043,30.7860726 46.3575,30.3310703 C45.4964957,29.876068 44.8140025,29.2355744 44.31,28.4095703 C43.8059975,27.5835662 43.554,26.6315757 43.554,25.5535703 C43.554,24.4755649 43.8059975,23.5235744 44.31,22.6975703 C44.8140025,21.8715662 45.4964957,21.2310726 46.3575,20.7760703 C47.2185043,20.321068 48.1669948,20.0935703 49.203,20.0935703 C50.8410082,20.0935703 52.0869957,20.6325649 52.941,21.7105703 L52.941,20.2615703 L56.049,20.2615703 Z M49.854,28.3255703 C50.7220043,28.3255703 51.4324972,28.0700729 51.9855,27.5590703 C52.5385028,27.0480678 52.815,26.3795744 52.815,25.5535703 C52.815,24.7275662 52.5385028,24.0590729 51.9855,23.5480703 C51.4324972,23.0370678 50.7220043,22.7815703 49.854,22.7815703 C48.9859957,22.7815703 48.2720028,23.0370678 47.712,23.5480703 C47.1519972,24.0590729 46.872,24.7275662 46.872,25.5535703 C46.872,26.3795744 47.1519972,27.0480678 47.712,27.5590703 C48.2720028,28.0700729 48.9859957,28.3255703 49.854,28.3255703 Z M59.094,15.9775703 L62.37,15.9775703 L62.37,31.5595703 L59.094,31.5595703 L59.094,15.9775703 Z M76.482,25.9525703 C76.482,25.9945705 76.4610002,26.2885676 76.419,26.8345703 L67.872,26.8345703 C68.0260008,27.5345738 68.3899971,28.0875683 68.964,28.4935703 C69.5380029,28.8995723 70.2519957,29.1025703 71.106,29.1025703 C71.6940029,29.1025703 72.2154977,29.0150712 72.6705,28.8400703 C73.1255023,28.6650694 73.548998,28.3885722 73.941,28.0105703 L75.684,29.9005703 C74.6199947,31.1185764 73.0660102,31.7275703 71.022,31.7275703 C69.7479936,31.7275703 68.6210049,31.4790728 67.641,30.9820703 C66.6609951,30.4850678 65.9050027,29.7955747 65.373,28.9135703 C64.8409973,28.0315659 64.575,27.0305759 64.575,25.9105703 C64.575,24.8045648 64.8374974,23.8070748 65.3625,22.9180703 C65.8875026,22.0290659 66.6084954,21.3360728 67.5255,20.8390703 C68.4425046,20.3420678 69.4679943,20.0935703 70.602,20.0935703 C71.7080055,20.0935703 72.7089955,20.3315679 73.605,20.8075703 C74.5010045,21.2835727 75.2044974,21.9660659 75.7155,22.8550703 C76.2265026,23.7440748 76.482,24.7765644 76.482,25.9525703 Z M70.623,22.5715703 C69.8809963,22.5715703 69.2580025,22.7815682 68.754,23.2015703 C68.2499975,23.6215724 67.9420006,24.1955667 67.83,24.9235703 L73.395,24.9235703 C73.2829994,24.2095667 72.9750025,23.6390724 72.471,23.2120703 C71.9669975,22.7850682 71.3510036,22.5715703 70.623,22.5715703 Z M91.203,16.8595703 C92.5050065,16.8595703 93.6354952,17.0765681 94.5945,17.5105703 C95.5535048,17.9445725 96.2919974,18.5605663 96.81,19.3585703 C97.3280026,20.1565743 97.587,21.1015649 97.587,22.1935703 C97.587,23.2715757 97.3280026,24.2130663 96.81,25.0180703 C96.2919974,25.8230743 95.5535048,26.4390682 94.5945,26.8660703 C93.6354952,27.2930724 92.5050065,27.5065703 91.203,27.5065703 L88.242,27.5065703 L88.242,31.5595703 L84.84,31.5595703 L84.84,16.8595703 L91.203,16.8595703 Z M91.014,24.7345703 C92.0360051,24.7345703 92.8129973,24.5140725 93.345,24.0730703 C93.8770027,23.6320681 94.143,23.0055744 94.143,22.1935703 C94.143,21.3675662 93.8770027,20.7340725 93.345,20.2930703 C92.8129973,19.8520681 92.0360051,19.6315703 91.014,19.6315703 L88.242,19.6315703 L88.242,24.7345703 L91.014,24.7345703 Z M99.981,15.9775703 L103.257,15.9775703 L103.257,31.5595703 L99.981,31.5595703 L99.981,15.9775703 Z M110.859,20.0935703 C112.609009,20.0935703 113.952995,20.5100661 114.891,21.3430703 C115.829005,22.1760745 116.298,23.4325619 116.298,25.1125703 L116.298,31.5595703 L113.232,31.5595703 L113.232,30.1525703 C112.615997,31.2025756 111.468008,31.7275703 109.788,31.7275703 C108.919996,31.7275703 108.167503,31.5805718 107.5305,31.2865703 C106.893497,30.9925688 106.407002,30.5865729 106.071,30.0685703 C105.734998,29.5505677 105.567,28.9625736 105.567,28.3045703 C105.567,27.2545651 105.962496,26.4285733 106.7535,25.8265703 C107.544504,25.2245673 108.765992,24.9235703 110.418,24.9235703 L113.022,24.9235703 C113.022,24.2095667 112.805002,23.6600722 112.371,23.2750703 C111.936998,22.8900684 111.286004,22.6975703 110.418,22.6975703 C109.815997,22.6975703 109.224503,22.7920694 108.6435,22.9810703 C108.062497,23.1700713 107.569002,23.4255687 107.163,23.7475703 L105.987,21.4585703 C106.603003,21.0245681 107.341496,20.6885715 108.2025,20.4505703 C109.063504,20.2125691 109.948995,20.0935703 110.859,20.0935703 Z M110.607,29.5225703 C111.167003,29.5225703 111.663998,29.3930716 112.098,29.1340703 C112.532002,28.875069 112.839999,28.4935728 113.022,27.9895703 L113.022,26.8345703 L110.775,26.8345703 C109.430993,26.8345703 108.759,27.2755659 108.759,28.1575703 C108.759,28.5775724 108.923498,28.9100691 109.2525,29.1550703 C109.581502,29.4000715 110.032997,29.5225703 110.607,29.5225703 Z M130.473,20.2615703 L125.37,32.2525703 C124.851997,33.5545768 124.211504,34.4715677 123.4485,35.0035703 C122.685496,35.535573 121.765005,35.8015703 120.687,35.8015703 C120.098997,35.8015703 119.518003,35.7105712 118.944,35.5285703 C118.369997,35.3465694 117.901002,35.0945719 117.537,34.7725703 L118.734,32.4415703 C118.986001,32.6655714 119.276498,32.8405697 119.6055,32.9665703 C119.934502,33.0925709 120.259998,33.1555703 120.582,33.1555703 C121.030002,33.1555703 121.393999,33.0470714 121.674,32.8300703 C121.954001,32.6130692 122.205999,32.2525728 122.43,31.7485703 L122.472,31.6435703 L117.579,20.2615703 L120.96,20.2615703 L124.131,27.9265703 L127.323,20.2615703 L130.473,20.2615703 Z" id="GooglePlay"></path>
                </g>
                <path d="M18,49.2637152 L18,14.7403058 C18,13.5355809 18.6984406,12.4942128 19.7119977,12 L39.6821408,31.9961212 L19.7039662,52 C18.6947493,51.5042845 18,50.4653329 18,49.2637152 Z M46.0177352,38.3396961 L24.1816563,50.9630792 L41.4032451,33.7192455 L46.0177352,38.3396961 Z M52.8052056,29.5817164 C53.531493,30.1383556 54,31.0154533 54,32.0020105 C54,32.9737429 53.5456901,33.839062 52.838062,34.3967166 L48.1998423,37.0781701 L43.1241465,31.9961212 L48.1963944,26.9172809 L52.8052056,29.5817164 Z M24.1944541,13.0418962 L46.0142873,25.6558361 L41.4032451,30.2727938 L24.1944541,13.0418962 Z" id="logo" fill="#78C029" fill-rule="nonzero"></path>
            </g>
        </g>
    </g>
</svg>