<?xml version="1.0" encoding="UTF-8"?>
<svg width="48px" height="45px" viewBox="0 0 48 45" version="1.1" xmlns="http://www.w3.org/2000/svg" xmlns:xlink="http://www.w3.org/1999/xlink">
    <!-- Generator: Sketch 55.2 (78181) - https://sketchapp.com -->
    <title>icon-2</title>
    <desc>Created with Sketch.</desc>
    <g id="Page-1" stroke="none" stroke-width="1" fill="none" fill-rule="evenodd">
        <g id="Landing-Slide-1" transform="translate(-580.000000, -2955.000000)" fill="#C8102E">
            <g id="icon-2" transform="translate(580.000000, 2955.000000)">
                <circle id="Oval" opacity="0.240676153" cx="37.5" cy="34.5" r="10.5"></circle>
                <g id="transfer" fill-rule="nonzero">
                    <path d="M27.3117207,30.1 C26.9040777,30.1 26.5735661,30.4208903 26.5735661,30.8166667 L26.5735661,32.9666667 L3.69077307,32.9666667 C3.28313004,32.9666667 2.95261845,33.2875569 2.95261845,33.6833333 C2.95261845,34.0791097 3.28313004,34.4 3.69077307,34.4 L26.5735661,34.4 L26.5735661,39.4166667 C26.5735661,40.6039957 25.5820312,41.5666667 24.3591022,41.5666667 L3.69077307,41.5666667 C2.46784408,41.5666667 1.47630923,40.6039957 1.47630923,39.4166667 L1.47630923,3.58333333 C1.47630923,2.39600425 2.46784408,1.43333333 3.69077307,1.43333333 L24.3591022,1.43333333 C25.5820312,1.43333333 26.5735661,2.39600425 26.5735661,3.58333333 L26.5735661,7.88333333 C26.5735661,8.27910972 26.9040777,8.6 27.3117207,8.6 C27.7193637,8.6 28.0498753,8.27910972 28.0498753,7.88333333 L28.0498753,3.58333333 C28.0498753,1.60445147 26.3973173,0 24.3591022,0 L3.69077307,0 C1.65255803,0 0,1.60445147 0,3.58333333 L0,39.4166667 C0,41.3955485 1.65255803,43 3.69077307,43 L24.3591022,43 C26.3973173,43 28.0498753,41.3955485 28.0498753,39.4166667 L28.0498753,30.8166667 C28.0498753,30.4208903 27.7193637,30.1 27.3117207,30.1 Z" id="Path"></path>
                    <path d="M16.9775561,37.2666667 C17.3851991,37.2666667 17.7157107,36.9457764 17.7157107,36.55 C17.7157107,36.1542236 17.3851991,35.8333333 16.9775561,35.8333333 L11.0723192,35.8333333 C10.2570332,35.8333333 9.59600998,36.4751139 9.59600998,37.2666667 L9.59600998,38.7 C9.59600998,39.4915528 10.2570332,40.1333333 11.0723192,40.1333333 L16.9775561,40.1333333 C17.3851991,40.1333333 17.7157107,39.8124431 17.7157107,39.4166667 C17.7157107,39.0208903 17.3851991,38.7 16.9775561,38.7 L11.0723192,38.7 L11.0723192,37.2666667 L16.9775561,37.2666667 Z" id="Path"></path>
                    <path d="M27.3117207,22.9333333 C26.4964346,22.9333333 25.8354115,22.2915528 25.8354115,21.5 C25.8354115,21.1042236 25.5048999,20.7833333 25.0972569,20.7833333 C24.6896138,20.7833333 24.3591022,21.1042236 24.3591022,21.5 C24.3634274,22.8038575 25.2735057,23.940446 26.5735661,24.2662353 L26.5735661,25.0833333 C26.5735661,25.4791097 26.9040777,25.8 27.3117207,25.8 C27.7193637,25.8 28.0498753,25.4791097 28.0498753,25.0833333 L28.0498753,24.2662353 C29.4713996,23.891455 30.3912095,22.5568034 30.2052291,21.1381674 C30.0192488,19.7191813 28.7847861,18.6504801 27.3117207,18.6333333 C26.4964346,18.6333333 25.8354115,17.9915528 25.8354115,17.2 C25.8354115,16.4084472 26.4964346,15.7666667 27.3117207,15.7666667 C28.1270067,15.7666667 28.7880299,16.4084472 28.7880299,17.2 C28.7880299,17.5957764 29.1185415,17.9166667 29.5261845,17.9166667 C29.9338276,17.9166667 30.2643392,17.5957764 30.2643392,17.2 C30.260014,15.8961425 29.3499357,14.759554 28.0498753,14.4337647 L28.0498753,13.6166667 C28.0498753,13.2208903 27.7193637,12.9 27.3117207,12.9 C26.9040777,12.9 26.5735661,13.2208903 26.5735661,13.6166667 L26.5735661,14.4337647 C25.1520418,14.808545 24.2322319,16.1431966 24.4182123,17.5618326 C24.6041926,18.9808187 25.8386553,20.0495199 27.3117207,20.0666667 C28.1270067,20.0666667 28.7880299,20.7084472 28.7880299,21.5 C28.7880299,22.2915528 28.1270067,22.9333333 27.3117207,22.9333333 Z" id="Path"></path>
                    <path d="M27.3117207,10.0333323 C24.1947475,10.0319336 21.2713236,11.5006103 19.4720718,13.9715007 C17.6724595,16.442391 17.2215652,19.607902 18.2621181,22.4602214 C18.3983596,22.8343017 18.8215009,23.0302653 19.2067974,22.8976399 C19.592094,22.7650147 19.7935727,22.3541911 19.6569708,21.9801107 C19.3477244,21.1357178 19.1902178,20.2461832 19.19202,19.35 C19.1934617,15.5892497 21.9305448,12.3527018 25.7301668,11.6202881 C29.5294284,10.8878743 33.3330151,12.8629069 34.8143703,16.3377604 C36.2957256,19.8129639 35.0425206,23.8197184 31.8210236,25.9084799 C28.5995266,27.9972412 24.3072007,27.5857178 21.5690364,24.9255127 C21.2760092,24.682308 20.8395321,24.6984049 20.5666888,24.9633056 C20.2942058,25.2278564 20.2772658,25.6519775 20.5281231,25.9361247 C23.5989616,28.9193196 28.3508319,29.5271566 32.1129695,27.4187988 C35.8747468,25.3100911 37.70896,21.010791 36.5837067,16.9371989 C35.4588139,12.8636068 31.6555876,10.0319336 27.3117207,10.0333323 L27.3117207,10.0333323 Z" id="Path"></path>
                    <path d="M10.3341646,13.6166667 L15.5012469,13.6166667 C15.9088899,13.6166667 16.2394015,13.2957764 16.2394015,12.9 C16.2394015,12.5042236 15.9088899,12.1833333 15.5012469,12.1833333 L11.0723192,12.1833333 L11.0723192,11.4666667 C11.0715984,11.190918 10.9079645,10.9403646 10.6517008,10.8217366 C10.3975998,10.7045085 10.0970036,10.7381023 9.87642218,10.9078207 L6.18564911,13.7744873 C6.01120251,13.9102621 5.90956203,14.1160238 5.90956203,14.3333333 C5.90956203,14.5506429 6.01120251,14.7564046 6.18564911,14.8921793 L9.87642218,17.758846 C10.0065364,17.8603272 10.1676472,17.9156168 10.3341646,17.9166667 C10.4444552,17.9184163 10.5533042,17.8939209 10.6517008,17.84493 C10.9079645,17.7263021 11.0715984,17.4757487 11.0723192,17.2 L11.0723192,16.4833333 L15.5012469,16.4833333 C15.9088899,16.4833333 16.2394015,16.1624431 16.2394015,15.7666667 C16.2394015,15.3708903 15.9088899,15.05 15.5012469,15.05 L10.3341646,15.05 C9.94850759,15.0489502 9.62700675,15.3362467 9.59600998,15.7092773 L7.82451097,14.3333333 L9.59600998,12.9573893 C9.62700675,13.33042 9.94850759,13.6177165 10.3341646,13.6166667 Z" id="Path"></path>
                    <path d="M11.4929376,26.44493 C11.5913342,26.4939209 11.7001832,26.5184163 11.8104738,26.5166667 C11.9769912,26.5156168 12.138102,26.4603272 12.2682162,26.358846 L15.9589893,23.4921793 C16.1334359,23.3564046 16.2350764,23.1506429 16.2350764,22.9333333 C16.2350764,22.7160238 16.1334359,22.5102621 15.9589893,22.3744873 L12.2682162,19.5078207 C12.0476348,19.3381023 11.7470387,19.3045085 11.4929376,19.4217366 C11.2366739,19.5403646 11.07304,19.790918 11.0723192,20.0666667 L11.0723192,20.7833333 L6.64339152,20.7833333 C6.2357485,20.7833333 5.90523691,21.1042236 5.90523691,21.5 C5.90523691,21.8957764 6.2357485,22.2166667 6.64339152,22.2166667 L11.8104738,22.2166667 C12.1961308,22.2177165 12.5176317,21.93042 12.5486284,21.5573893 L14.3201274,22.9333333 L12.5486284,24.3092773 C12.5176317,23.9362467 12.1961308,23.6489502 11.8104738,23.65 L6.64339152,23.65 C6.2357485,23.65 5.90523691,23.9708903 5.90523691,24.3666667 C5.90523691,24.7624431 6.2357485,25.0833333 6.64339152,25.0833333 L11.0723192,25.0833333 L11.0723192,25.8 C11.07304,26.0757487 11.2366739,26.3263021 11.4929376,26.44493 Z" id="Path"></path>
                    <path d="M5.90523691,4.3 C5.90523691,4.69577639 5.57472532,5.01666667 5.16708229,5.01666667 C4.75943927,5.01666667 4.42892768,4.69577639 4.42892768,4.3 C4.42892768,3.90422361 4.75943927,3.58333333 5.16708229,3.58333333 C5.57472532,3.58333333 5.90523691,3.90422361 5.90523691,4.3 Z" id="Path"></path>
                    <path d="M8.85785536,4.3 C8.85785536,4.69577639 8.52734377,5.01666667 8.11970075,5.01666667 C7.71205772,5.01666667 7.38154613,4.69577639 7.38154613,4.3 C7.38154613,3.90422361 7.71205772,3.58333333 8.11970075,3.58333333 C8.52734377,3.58333333 8.85785536,3.90422361 8.85785536,4.3 Z" id="Path"></path>
                    <path d="M20.6683292,9.31666667 C20.6683292,8.92089028 20.3378176,8.6 19.9301746,8.6 L15.5012469,8.6 C15.0936039,8.6 14.7630923,8.92089028 14.7630923,9.31666667 C14.7630923,9.71244306 15.0936039,10.0333333 15.5012469,10.0333333 L19.9301746,10.0333333 C20.3378176,10.0333333 20.6683292,9.71244306 20.6683292,9.31666667 Z" id="Path"></path>
                    <path d="M13.286783,30.1 L18.4538653,30.1 C18.8615084,30.1 19.19202,29.7791097 19.19202,29.3833333 C19.19202,28.9875569 18.8615084,28.6666667 18.4538653,28.6666667 L13.286783,28.6666667 C12.87914,28.6666667 12.5486284,28.9875569 12.5486284,29.3833333 C12.5486284,29.7791097 12.87914,30.1 13.286783,30.1 Z" id="Path"></path>
                </g>
            </g>
        </g>
    </g>
</svg>