<?xml version="1.0" encoding="UTF-8"?>
<svg width="49px" height="39px" viewBox="0 0 49 39" version="1.1" xmlns="http://www.w3.org/2000/svg" xmlns:xlink="http://www.w3.org/1999/xlink">
    <!-- Generator: Sketch 55.2 (78181) - https://sketchapp.com -->
    <title>icon-6</title>
    <desc>Created with Sketch.</desc>
    <g id="Page-1" stroke="none" stroke-width="1" fill="none" fill-rule="evenodd">
        <g id="Landing-Slide-1" transform="translate(-987.000000, -3112.000000)" fill="#C8102E">
            <g id="icon-6" transform="translate(987.000000, 3112.000000)">
                <g id="credit-card-copy" fill-rule="nonzero">
                    <path d="M22.416645,24.2 L33.083355,24.2 C33.4833576,24.2 33.75,23.9066932 33.75,23.4666901 L33.75,16.8666432 C33.75,16.4266401 33.4833576,16.1333333 33.083355,16.1333333 L22.416645,16.1333333 C22.0166424,16.1333333 21.75,16.4266401 21.75,16.8666432 L21.75,23.4666901 C21.75,23.9066073 22.0166424,24.2 22.416645,24.2 Z M23.0832899,17.5999531 L32.4167101,17.5999531 L32.4167101,22.7332943 L23.0832899,22.7332943 L23.0832899,17.5999531 Z" id="Shape"></path>
                    <path d="M3.67497627,14.6666667 L9.07502373,14.6666667 C9.48002531,14.6666667 9.75,14.3733505 9.75,13.9333333 C9.75,13.4933161 9.48002531,13.2 9.07502373,13.2 L3.67497627,13.2 C3.26997469,13.2 3,13.4933161 3,13.9333333 C3,14.3733505 3.26997469,14.6666667 3.67497627,14.6666667 Z" id="Path"></path>
                    <path d="M11.1749763,14.6666667 L16.5750237,14.6666667 C16.9800253,14.6666667 17.25,14.3733505 17.25,13.9333333 C17.25,13.4933161 16.9800253,13.2 16.5750237,13.2 L11.1749763,13.2 C10.7699747,13.2 10.5,13.4933161 10.5,13.9333333 C10.5,14.3733505 10.7699747,14.6666667 11.1749763,14.6666667 Z" id="Path"></path>
                    <path d="M3.69997812,17.6 L12.8000219,17.6 C13.2200252,17.6 13.5,17.3066839 13.5,16.8666667 C13.5,16.4266495 13.2200252,16.1333333 12.8000219,16.1333333 L3.69997812,16.1333333 C3.27997484,16.1333333 3,16.4266495 3,16.8666667 C3,17.3066839 3.27997484,17.6 3.69997812,17.6 Z" id="Path"></path>
                    <path d="M18.0000176,16.1333333 L15.7499824,16.1333333 C15.2999754,16.1333333 15,16.4266495 15,16.8666667 C15,17.3066839 15.2999754,17.6 15.7499824,17.6 L18.0000176,17.6 C18.4500246,17.6 18.75,17.3066839 18.75,16.8666667 C18.75,16.4266495 18.4500246,16.1333333 18.0000176,16.1333333 Z" id="Path"></path>
                    <path d="M41.3570847,7.13875489 C40.8672651,6.53263196 40.2374617,6.19587069 39.4676748,6.12855001 L37.7881993,5.93266497 L37.7881993,4.04074063 L37.7881993,2.69385339 C37.7881993,1.21224586 36.5285926,0 34.9891007,0 L2.79909854,0 C1.25960664,0 0,1.21216694 0,2.69385339 L0,4.04081955 L0,9.42860525 L0,24.2449173 C0,25.461346 0.849332421,26.4956222 2.00528393,26.8270957 C1.97002151,28.1894517 3.04109718,29.3721806 4.47865606,29.4979827 L36.8085599,33 C36.8785107,33 37.0184943,33 37.0884451,33 C38.4880354,33 39.747642,31.9897951 39.8875437,30.7102286 L41.9868881,9.09184398 C42.0568389,8.41832144 41.8469044,7.67747822 41.3570847,7.13875489 Z M1.39959027,4.71426317 L36.388691,4.71426317 L36.388691,6.46531128 L36.388691,8.75508271 L1.39959027,8.75508271 L1.39959027,4.71426317 Z M2.79909854,1.34688723 L34.9890187,1.34688723 C35.7588057,1.34688723 36.388609,1.95301017 36.388609,2.69385339 L36.388609,3.36729701 L1.39959027,3.36729701 L1.39959027,2.69385339 C1.39959027,1.95301017 2.02939359,1.34688723 2.79909854,1.34688723 Z M1.39959027,24.2448384 L1.39959027,10.1019699 L36.388691,10.1019699 L36.388691,24.2448384 C36.388691,24.9856816 35.7588877,25.5918045 34.9891007,25.5918045 L2.86913135,25.5918045 L2.79918054,25.5918045 C2.02939359,25.5918045 1.39959027,24.9856816 1.39959027,24.2448384 Z M40.5872978,8.8224034 L38.4879534,30.440788 C38.4180026,31.1816312 37.7181664,31.7203545 36.9484615,31.6530338 L4.6885085,28.1510165 C3.98875437,28.0836959 3.49885267,27.5448936 3.42890186,26.9387707 L34.9890187,26.9387707 C36.5285106,26.9387707 37.7881173,25.7265248 37.7881173,24.2449173 L37.7881173,9.42852633 L37.7881173,7.20607558 L39.397642,7.34079587 C39.74756,7.34079587 40.0973961,7.54283685 40.3073305,7.81219851 C40.517347,8.08156017 40.6573306,8.48564213 40.5872978,8.8224034 Z" id="Shape"></path>
                </g>
                <ellipse id="Oval-Copy-6" opacity="0.240676153" cx="38" cy="28.5" rx="11" ry="10.5"></ellipse>
            </g>
        </g>
    </g>
</svg>