<?xml version="1.0" encoding="UTF-8"?>
<svg width="16px" height="13px" viewBox="0 0 16 13" version="1.1" xmlns="http://www.w3.org/2000/svg" xmlns:xlink="http://www.w3.org/1999/xlink">
    <!-- Generator: Sketch 55.2 (78181) - https://sketchapp.com -->
    <title>medium</title>
    <desc>Created with Sketch.</desc>
    <g id="Page-1" stroke="none" stroke-width="1" fill="none" fill-rule="evenodd">
        <g id="BDAM-Slide-2" transform="translate(-1376.000000, -413.000000)" fill="#7775A5">
            <path d="M1377.85483,416.266658 C1377.87412,416.086195 1377.79987,415.905732 1377.65715,415.783145 L1376.1972,414.118876 L1376.1972,413.870968 L1380.73568,413.870968 L1384.24381,421.142801 L1387.32861,413.870968 L1391.65591,413.870968 L1391.65591,414.118876 L1390.40666,415.250871 C1390.30011,415.326975 1390.24466,415.455942 1390.26732,415.581264 L1390.26732,423.902607 C1390.24466,424.027929 1390.30011,424.15644 1390.40666,424.232545 L1391.62698,425.364995 L1391.62698,425.612903 L1385.4868,425.612903 L1385.4868,425.364995 L1386.75244,424.205657 C1386.87539,424.088994 1386.87539,424.052537 1386.87539,423.874809 L1386.87539,417.150744 L1383.35714,425.591485 L1382.88125,425.591485 L1378.78972,417.150744 L1378.78972,422.807526 C1378.75453,423.045864 1378.83842,423.284203 1379.01633,423.455552 L1380.66095,425.340386 L1380.66095,425.588295 L1376,425.588295 L1376,425.343576 L1377.64413,423.455552 C1377.81915,423.284203 1377.90016,423.042674 1377.85483,422.807526 L1377.85483,416.266658 Z" id="medium"></path>
        </g>
    </g>
</svg>