<svg xmlns="http://www.w3.org/2000/svg" width="47" height="40" viewBox="0 0 47 40">
  <g id="Group_2" data-name="Group 2" transform="translate(-761 -5946)">
    <circle id="Oval_Copy_4" data-name="Oval Copy 4" cx="9" cy="9" r="9" transform="translate(790 5964)" fill="#75bd29" opacity="0.241"/>
    <g id="altcoin" transform="translate(761 5946)">
      <path id="Path" d="M.756,1.633a.881.881,0,0,0,.48-.163A.8.8,0,0,0,1.542.411.743.743,0,0,0,.517.094L.39.166A.787.787,0,0,0,.756,1.633Z" transform="translate(5.714 8.163)" fill="#75bd29"/>
      <path id="Shape" d="M8.575,17.143h0a8.466,8.466,0,0,1-7.439-4.329A8.256,8.256,0,0,1,0,8.477,8.746,8.746,0,0,1,1.164,4.313,8.463,8.463,0,0,1,8.58,0a8.6,8.6,0,0,1,7.748,4.919.617.617,0,0,1-.293.82.609.609,0,0,1-.263.059.618.618,0,0,1-.557-.354A7.368,7.368,0,0,0,8.58,1.232,7.351,7.351,0,0,0,2.034,11.885H3.713V5.261a.619.619,0,0,1,.619-.617.605.605,0,0,1,.375.131L8.58,7.793l3.873-3.018a.6.6,0,0,1,.374-.131.619.619,0,0,1,.618.617v6.624h1.679a7.379,7.379,0,0,0,.788-3.312.616.616,0,1,1,1.231,0,8.527,8.527,0,0,1-8.568,8.57ZM2.82,13.118a7.33,7.33,0,0,0,11.519,0H12.83a.617.617,0,0,1-.616-.616V6.522L8.958,9.06a.616.616,0,0,1-.756,0L4.945,6.522V12.5a.617.617,0,0,1-.616.616Z" transform="translate(4.082 10.612)" fill="#75bd29"/>
      <path id="Path-2" data-name="Path" d="M29.4,15.713,30.5,14.035a.625.625,0,1,0-1.044-.688l-1.345,2.042q-.588-.115-1.191-.174l-1.23-1.868a.625.625,0,1,0-1.044.688l.741,1.125a12.588,12.588,0,0,0-1.3.1,12.551,12.551,0,0,0-3.549-5.129,7.422,7.422,0,1,1,13.91,5.144.625.625,0,1,0,1.152.485A8.672,8.672,0,1,0,19.5,9.323,12.365,12.365,0,0,0,17.275,8.1,11.172,11.172,0,1,1,36.891,18.591a.625.625,0,1,0,1.041.691A12.423,12.423,0,1,0,16.1,7.664,12.484,12.484,0,0,0,8.77,7.655.625.625,0,0,0,9.137,8.85a11.183,11.183,0,1,1-4.289,2.469A.625.625,0,0,0,4,10.4a12.422,12.422,0,1,0,20.822,9.789,7.457,7.457,0,1,1-4.967,11.988.625.625,0,1,0-.985.77,8.706,8.706,0,1,0,5.955-14.015,12.4,12.4,0,0,0-.365-2.456A11.172,11.172,0,1,1,16.5,33.918a.625.625,0,1,0-1.029.71A12.423,12.423,0,1,0,29.4,15.713Z" fill="#75bd29"/>
      <path id="Path-3" data-name="Path" d="M.633,9.8H5.9a.613.613,0,1,0,0-1.225H1.514L2.721,5.113l2.11-.429a.613.613,0,0,0,.489-.725.632.632,0,0,0-.749-.473l-1.38.281L4.224.809a.608.608,0,0,0-.4-.776.637.637,0,0,0-.8.384L1.754,4.058.572,4.3a.613.613,0,0,0-.489.725A.632.632,0,0,0,.831,5.5l.453-.092L.034,8.987a.616.616,0,0,0,.6.809Z" transform="translate(22.857 22.041)" fill="#75bd29"/>
      <path id="Shape-2" data-name="Shape" d="M2.857,6.531a.59.59,0,0,1-.327-.1L.263,4.926A.586.586,0,0,1,.081,4.14L2.349.29a.59.59,0,0,1,1.016,0L5.633,4.14a.586.586,0,0,1-.181.786L3.184,6.432A.591.591,0,0,1,2.857,6.531Zm0-4.784h0L1.379,4.256l1.479.982,1.478-.982L2.858,1.747Z" transform="translate(24.49 6.531)" fill="#75bd29"/>
    </g>
  </g>
</svg>
