<svg xmlns="http://www.w3.org/2000/svg" width="14.045" height="12.565" viewBox="0 0 14.045 12.565">
  <path id="Fill_28" data-name="Fill 28" d="M6.967,12.565c-3.432,0-6.224-1.908-6.224-4.253a2.982,2.982,0,0,1,.076-.693,1.437,1.437,0,0,1-.851-1.64A1.512,1.512,0,0,1,1.5,4.811a1.63,1.63,0,0,1,1.138.457,8.049,8.049,0,0,1,4.034-1.2L7.567.21A.283.283,0,0,1,7.833,0a.255.255,0,0,1,.061.008l2.883.606A1.207,1.207,0,0,1,11.821,0,1.147,1.147,0,0,1,13,1.113a1.147,1.147,0,0,1-1.176,1.112,1.132,1.132,0,0,1-1.16-1.1L8.05.572l-.819,3.5a7.905,7.905,0,0,1,4.057,1.186,1.626,1.626,0,0,1,1.122-.446,1.517,1.517,0,0,1,1.529,1.165,1.426,1.426,0,0,1-.824,1.631,2.565,2.565,0,0,1,.092.7C13.207,10.657,10.407,12.565,6.967,12.565ZM4.641,9.608a.246.246,0,0,0-.188.089.359.359,0,0,0,0,.464,3.28,3.28,0,0,0,2.5.925,3.28,3.28,0,0,0,2.5-.925.356.356,0,0,0,0-.464.243.243,0,0,0-.376,0,2.851,2.851,0,0,1-2.125.731A2.819,2.819,0,0,1,4.829,9.7.246.246,0,0,0,4.641,9.608Zm.1-2.957A1.109,1.109,0,1,0,4.739,8.87h.005a1.109,1.109,0,0,0,0-2.218Zm5.16,0A1.109,1.109,0,1,0,11.02,7.768,1.11,1.11,0,0,0,9.9,6.652Z" transform="translate(0.068)" fill="#fff"/>
</svg>
