<?xml version="1.0" encoding="UTF-8"?>
<svg width="16px" height="14px" viewBox="0 0 16 14" version="1.1" xmlns="http://www.w3.org/2000/svg" xmlns:xlink="http://www.w3.org/1999/xlink">
    <!-- Generator: Sketch 55.2 (78181) - https://sketchapp.com -->
    <title>reddit</title>
    <desc>Created with Sketch.</desc>
    <g id="Page-1" stroke="none" stroke-width="1" fill="none" fill-rule="evenodd">
        <g id="BDAM-Slide-2" transform="translate(-1376.000000, -457.000000)" fill="#7775A5">
            <path d="M1387.00098,466.789055 C1386.3282,466.789055 1385.78003,466.25656 1385.78003,465.603577 C1385.78003,464.93841 1386.3282,464.403658 1387.00098,464.403658 C1387.68631,464.403658 1388.23774,464.935702 1388.23774,465.603577 C1388.23448,466.253401 1387.68631,466.789055 1387.00098,466.789055 M1387.02608,468.428057 C1385.89208,469.528246 1382.69232,469.528246 1381.55878,468.428057 C1381.43417,468.321558 1381.43417,468.134282 1381.55878,468.013794 C1381.66757,467.907746 1381.86053,467.907746 1381.97025,468.013794 C1382.83599,468.875262 1385.70843,468.890154 1386.61135,468.013794 C1386.72061,467.907746 1386.91403,467.907746 1387.02283,468.013794 C1387.15023,468.134282 1387.15023,468.321558 1387.02608,468.428057 M1380.34992,465.600869 C1380.34992,464.935702 1380.89809,464.400499 1381.58667,464.400499 C1382.25992,464.400499 1382.80762,464.932543 1382.80762,465.600869 C1382.80762,466.253401 1382.25992,466.78591 1381.58667,466.78591 C1380.90134,466.789055 1380.34992,466.253401 1380.34992,465.600869 M1390.03522,462.414022 C1389.56795,462.414022 1389.15693,462.601298 1388.85425,462.894622 C1387.74257,462.147775 1386.24404,461.666724 1384.58372,461.615731 L1385.4462,457.842237 L1388.19403,458.441068 C1388.19403,459.094052 1388.7422,459.626095 1389.41498,459.626095 C1390.10078,459.626095 1390.6522,459.078708 1390.6522,458.426176 C1390.6522,457.773193 1390.10357,457.225806 1389.41498,457.225806 C1388.93562,457.225806 1388.52135,457.506946 1388.31538,457.890523 L1385.2816,457.237539 C1385.1291,457.198279 1384.97892,457.303876 1384.93847,457.452342 L1383.99138,461.612572 C1382.34361,461.67936 1380.86089,462.159959 1379.74595,462.906355 C1379.44327,462.601298 1379.01645,462.414022 1378.54918,462.414022 C1376.81772,462.414022 1376.25048,464.669454 1377.83595,465.44067 C1377.78016,465.67939 1377.75505,465.933453 1377.75505,466.187516 C1377.75505,468.720929 1380.69537,470.774194 1384.30615,470.774194 C1387.93227,470.774194 1390.87305,468.720929 1390.87305,466.187516 C1390.87305,465.933453 1390.84516,465.667206 1390.77634,465.428034 C1392.33113,464.654563 1391.75785,462.414022 1390.03522,462.414022" id="reddit"></path>
        </g>
    </g>
</svg>