<?xml version="1.0" encoding="UTF-8"?>
<svg width="40px" height="40px" viewBox="0 0 40 40" version="1.1" xmlns="http://www.w3.org/2000/svg" xmlns:xlink="http://www.w3.org/1999/xlink">
    <!-- Generator: Sketch 55.2 (78181) - https://sketchapp.com -->
    <title>sm-githum</title>
    <desc>Created with Sketch.</desc>
    <defs>
        <polygon id="path-1" points="0.173948718 0.36174359 39.8123077 0.36174359 39.8123077 39.9996923 0.173948718 39.9996923"></polygon>
    </defs>
    <g id="Page-1" stroke="none" stroke-width="1" fill="none" fill-rule="evenodd">
        <g id="Landing-Slide-1" transform="translate(-844.000000, -9302.000000)">
            <g id="sm-githum" transform="translate(844.000000, 9302.000000)">
                <g id="Group-19">
                    <mask id="mask-2" fill="white">
                        <use xlink:href="#path-1"></use>
                    </mask>
                    <g id="Clip-18"></g>
                    <path d="M39.8124103,20.1807179 C39.8124103,31.1268718 30.9390769,39.9996923 19.9934359,39.9996923 C9.04728205,39.9996923 0.173948718,31.1268718 0.173948718,20.1807179 C0.173948718,9.2345641 9.04728205,0.36174359 19.9934359,0.36174359 C30.9390769,0.36174359 39.8124103,9.2345641 39.8124103,20.1807179" id="Fill-17" fill="#C8102E" mask="url(#mask-2)"></path>
                </g>
                <path d="M24.5236789,21.0963631 C23.4919068,21.0963631 23.0560273,22.4504726 23.0560273,23.2771272 C23.0560273,24.10481 23.4919068,25.4578914 24.5236789,25.4578914 C25.5554509,25.4578914 25.99185,24.10481 25.99185,23.2771272 C25.99185,22.4504726 25.5554509,21.0963631 24.5236789,21.0963631 M27.8273236,23.2771272 C27.8273236,21.5395075 26.7597045,20.0080373 24.8873448,20.0080373 C24.1314392,20.0080373 23.4077441,20.1427286 22.6476824,20.2455463 C22.0517899,20.3360259 21.4558974,20.3720121 20.8438997,20.3720121 C20.2355386,20.3720121 19.6401656,20.3360259 19.0395974,20.2455463 C18.2920042,20.1427286 17.5599968,20.0080373 16.7999351,20.0080373 C14.9275753,20.0080373 13.8599562,21.5395075 13.8599562,23.2771272 C13.8599562,26.7528808 17.0758016,27.2870189 19.8760289,27.2870189 L21.8039776,27.2870189 C24.6156344,27.2870189 27.8273236,26.7564794 27.8273236,23.2771272 M30.4,21.2783505 C30.4,22.5414663 30.2716779,23.8791251 29.6996834,25.0389091 C28.1837162,28.07049 24.0155857,27.9995458 21.0314474,27.9995458 C17.9995129,27.9995458 13.5835701,28.1064763 12.0078578,25.0389091 C11.4239143,23.8909491 11.2,22.5414663 11.2,21.2783505 C11.2,19.6199004 11.7558893,18.052444 12.859875,16.7816168 C12.6515464,16.1569991 12.551798,15.4994796 12.551798,14.8506997 C12.551798,13.9993689 12.7476581,13.5716471 13.1357415,12.8 C14.9473172,12.8 16.1079308,13.1567775 17.4877831,14.2250538 C18.6473577,13.9520727 19.8396623,13.8292055 21.0356035,13.8292055 C22.1156912,13.8292055 23.2035717,13.9443614 24.2519685,14.1931803 C25.6120789,13.1367281 26.7716535,12.8 28.5634873,12.8 C28.9557269,13.5716471 29.1474308,13.9993689 29.1474308,14.8506997 C29.1474308,15.4994796 29.0435263,16.1446609 28.8398734,16.7584828 C29.9397029,18.0411341 30.4,19.6199004 30.4,21.2783505 M18.6437211,23.2771272 C18.6437211,24.10481 18.2078415,25.4578914 17.17555,25.4578914 C16.1437779,25.4578914 15.7073788,24.10481 15.7073788,23.2771272 C15.7073788,22.4504726 16.1437779,21.0963631 17.17555,21.0963631 C18.2078415,21.0963631 18.6437211,22.4504726 18.6437211,23.2771272" id="Fill-22" fill="#FFFFFF"></path>
            </g>
        </g>
    </g>
</svg>