<?xml version="1.0" encoding="UTF-8"?>
<svg width="39px" height="39px" viewBox="0 0 39 39" version="1.1" xmlns="http://www.w3.org/2000/svg" xmlns:xlink="http://www.w3.org/1999/xlink">
    <!-- Generator: Sketch 55.2 (78181) - https://sketchapp.com -->
    <title>sm-linkeidn</title>
    <desc>Created with Sketch.</desc>
    <g id="Page-1" stroke="none" stroke-width="1" fill="none" fill-rule="evenodd">
        <g id="Landing-Slide-1" transform="translate(-798.000000, -9303.000000)">
            <g id="sm-linkeidn" transform="translate(798.400000, 9303.600000)">
                <path d="M38.4,19.2 C38.4,29.8042901 29.8039045,38.4 19.2002484,38.4 C8.59609548,38.4 3.90798505e-14,29.8042901 3.90798505e-14,19.2 C3.90798505e-14,8.59570989 8.59609548,7.21200877e-13 19.2002484,7.21200877e-13 C29.8039045,7.21200877e-13 38.4,8.59570989 38.4,19.2" id="Fill-15" fill="#C8102E"></path>
                <path d="M27.9964569,26.4 L24.8521878,26.4 L24.8521878,21.4597342 C24.8521878,20.2826366 24.8283983,18.7729141 23.2137463,18.7729141 C21.5753047,18.7729141 21.3242491,20.0517736 21.3242491,21.3751857 L21.3242491,26.4 L18.1764369,26.4 L18.1764369,16.2516471 L21.1987213,16.2516471 L21.1987213,17.6358125 L21.2427572,17.6358125 C21.6633766,16.8384239 22.6913886,15.9974953 24.2245488,15.9974953 C27.41336,15.9974953 28,18.0975386 28,20.8253672 L28,26.4 L27.9964569,26.4 Z M14.6247086,14.8674816 C13.6174492,14.8674816 12.8,14.0326283 12.8,13.0251341 C12.8,12.0176398 13.6174492,11.2 14.6247086,11.2 C15.6324742,11.2 16.4499234,12.0176398 16.4499234,13.0251341 C16.4499234,14.0326283 15.6324742,14.8674816 14.6247086,14.8674816 L14.6247086,14.8674816 Z M13.0505495,26.4 L16.2024109,26.4 L16.2024109,16.2516471 L13.0505495,16.2516471 L13.0505495,26.4 Z" id="Fill-26" fill="#FFFFFF"></path>
            </g>
        </g>
    </g>
</svg>