<?xml version="1.0" encoding="UTF-8"?>
<svg width="39px" height="39px" viewBox="0 0 39 39" version="1.1" xmlns="http://www.w3.org/2000/svg" xmlns:xlink="http://www.w3.org/1999/xlink">
    <!-- Generator: Sketch 55.2 (78181) - https://sketchapp.com -->
    <title>sm-medium</title>
    <desc>Created with Sketch.</desc>
    <g id="Page-1" stroke="none" stroke-width="1" fill="none" fill-rule="evenodd">
        <g id="Landing-Slide-1" transform="translate(-702.000000, -9303.000000)">
            <g id="sm-medium" transform="translate(702.400000, 9303.600000)">
                <path d="M38.4,19.2 C38.4,29.8042901 29.8039045,38.4 19.2002484,38.4 C8.59609548,38.4 3.90798505e-14,29.8042901 3.90798505e-14,19.2 C3.90798505e-14,8.59570989 8.59609548,7.21200877e-13 19.2002484,7.21200877e-13 C29.8039045,7.21200877e-13 38.4,8.59570989 38.4,19.2" id="Fill-11" fill="#C8102E"></path>
                <path d="M12.3903791,14.6115656 C12.4110745,14.4148413 12.3313972,14.2181169 12.1782514,14.0844834 L10.6116104,12.2702476 L10.6116104,12 L15.4817529,12 L19.2462443,19.9270977 L22.5564719,12 L27.2,12 L27.2,12.2702476 L25.8594561,13.5042459 C25.7451141,13.5872079 25.6856149,13.7277963 25.7099319,13.8644105 L25.7099319,22.9355895 C25.6856149,23.0722037 25.7451141,23.2122953 25.8594561,23.2952573 L27.1689569,24.5297524 L27.1689569,24.8 L20.5800622,24.8 L20.5800622,24.5297524 L21.9381972,23.2659474 C22.0701303,23.138772 22.0701303,23.0990297 22.0701303,22.905286 L22.0701303,15.5753163 L18.2947738,24.7766514 L17.7841151,24.7766514 L13.3935881,15.5753163 L13.3935881,21.7418303 C13.355819,22.0016456 13.445844,22.2614608 13.636759,22.4482496 L15.4015583,24.5029263 L15.4015583,24.773174 L10.4,24.773174 L10.4,24.5064038 L12.164282,22.4482496 C12.3520926,22.2614608 12.4390133,21.9981681 12.3903791,21.7418303 L12.3903791,14.6115656 Z" id="Fill-20" fill="#FFFFFF"></path>
            </g>
        </g>
    </g>
</svg>