<?xml version="1.0" encoding="UTF-8"?>
<svg width="40px" height="39px" viewBox="0 0 40 39" version="1.1" xmlns="http://www.w3.org/2000/svg" xmlns:xlink="http://www.w3.org/1999/xlink">
    <!-- Generator: Sketch 55.2 (78181) - https://sketchapp.com -->
    <title>sm-redit</title>
    <desc>Created with Sketch.</desc>
    <g id="Page-1" stroke="none" stroke-width="1" fill="none" fill-rule="evenodd">
        <g id="Landing-Slide-1" transform="translate(-748.000000, -9303.000000)">
            <g id="sm-redit" transform="translate(748.800000, 9303.600000)">
                <path d="M38.4,19.2 C38.4,29.8042901 29.8039045,38.4 19.2002484,38.4 C8.59609548,38.4 3.90798505e-14,29.8042901 3.90798505e-14,19.2 C3.90798505e-14,8.59570989 8.59609548,7.21200877e-13 19.2002484,7.21200877e-13 C29.8039045,7.21200877e-13 38.4,8.59570989 38.4,19.2" id="Fill-13" fill="#C8102E"></path>
                <path d="M22.6777774,21.9290544 C21.9130533,21.9290544 21.2899644,21.3316457 21.2899644,20.5990607 C21.2899644,19.8528062 21.9130533,19.2528661 22.6777774,19.2528661 C23.4567706,19.2528661 24.083559,19.8497685 24.083559,20.5990607 C24.0798596,21.3281018 23.4567706,21.9290544 22.6777774,21.9290544 M22.7063158,23.767858 C21.4173303,25.002165 17.7802668,25.002165 16.4918098,23.767858 C16.3501746,23.6483762 16.3501746,23.4382707 16.4918098,23.3030943 C16.6154763,23.1841188 16.8347994,23.1841188 16.9595228,23.3030943 C17.94357,24.26958 21.208577,24.2862872 22.2349033,23.3030943 C22.3590983,23.1841188 22.5789499,23.1841188 22.7026164,23.3030943 C22.8474224,23.4382707 22.8474224,23.6483762 22.7063158,23.767858 M15.1177375,20.596023 C15.1177375,19.8497685 15.7408264,19.2493222 16.5235191,19.2493222 C17.2887717,19.2493222 17.9113321,19.8462246 17.9113321,20.596023 C17.9113321,21.3281018 17.2887717,21.925526 16.5235191,21.925526 C15.7445259,21.9290544 15.1177375,21.3281018 15.1177375,20.596023 M26.1266987,17.0206841 C25.595567,17.0206841 25.1283824,17.2307897 24.7843358,17.5598708 C23.5207178,16.7219798 21.8173967,16.1822869 19.9301614,16.1250774 L20.9105091,11.8915765 L24.033881,12.5634081 C24.033881,13.2959931 24.6569699,13.8928954 25.421694,13.8928954 C26.2012157,13.8928954 26.8280041,13.2787796 26.8280041,12.5467009 C26.8280041,11.8141158 26.2043867,11.2 25.421694,11.2 C24.8768215,11.2 24.4059375,11.5154115 24.1718167,11.9457483 L20.7234238,11.2131632 C20.5500793,11.169117 20.3793773,11.2875862 20.3333987,11.4541518 L19.2568659,16.1215335 C17.3838998,16.1964627 15.6985473,16.7356493 14.4312299,17.573034 C14.0871833,17.2307897 13.6020301,17.0206841 13.0708984,17.0206841 C11.1028041,17.0206841 10.4580471,19.5510642 12.2601957,20.4162942 C12.196777,20.6841155 12.1682386,20.9691503 12.1682386,21.2541851 C12.1682386,24.0964327 15.5104051,26.4 19.6146532,26.4 C23.7363415,26.4 27.0790365,24.0964327 27.0790365,21.2541851 C27.0790365,20.9691503 27.0473271,20.670446 26.9691107,20.4021184 C28.736379,19.534357 28.0847517,17.0206841 26.1266987,17.0206841" id="Fill-28" fill="#FFFFFF"></path>
            </g>
        </g>
    </g>
</svg>