<?xml version="1.0" encoding="UTF-8"?>
<svg width="39px" height="39px" viewBox="0 0 39 39" version="1.1" xmlns="http://www.w3.org/2000/svg" xmlns:xlink="http://www.w3.org/1999/xlink">
    <!-- Generator: Sketch 55.2 (78181) - https://sketchapp.com -->
    <title>sm-telegram</title>
    <desc>Created with Sketch.</desc>
    <g id="Page-1" stroke="none" stroke-width="1" fill="none" fill-rule="evenodd">
        <g id="Landing-Slide-1" transform="translate(-560.000000, -9303.000000)">
            <g id="sm-telegram" transform="translate(560.000000, 9303.600000)">
                <path d="M38.4,19.2 C38.4,29.8042901 29.8034077,38.4 19.2002484,38.4 C8.59609548,38.4 3.90798505e-14,29.8042901 3.90798505e-14,19.2 C3.90798505e-14,8.59570989 8.59609548,7.21200877e-13 19.2002484,7.21200877e-13 C29.8034077,7.21200877e-13 38.4,8.59570989 38.4,19.2" id="Fill-7" fill="#C8102E"></path>
                <path d="M27.1567501,13.1652456 L24.862586,24.0271971 C24.6899177,24.7937536 24.238704,24.9850201 23.5975057,24.6233525 L20.1020843,22.0375284 L18.4159702,23.6665231 C18.2294488,23.8538152 18.073602,24.010306 17.7134227,24.010306 L17.9647566,20.4363544 L24.4425418,14.5592557 C24.7235608,14.3068832 24.3811925,14.1672835 24.0046864,14.4191592 L15.9966339,19.4825057 L12.5492035,18.3984965 C11.7991597,18.1640087 11.7858014,17.6458503 12.7050503,17.2846795 L26.1895103,12.0683197 C26.8143819,11.8328383 27.3600931,12.2079194 27.1567501,13.1652456" id="Fill-9" fill="#FFFFFF"></path>
            </g>
        </g>
    </g>
</svg>