<?xml version="1.0" encoding="UTF-8"?>
<svg width="39px" height="39px" viewBox="0 0 39 39" version="1.1" xmlns="http://www.w3.org/2000/svg" xmlns:xlink="http://www.w3.org/1999/xlink">
    <!-- Generator: Sketch 55.2 (78181) - https://sketchapp.com -->
    <title>sm-twitter</title>
    <desc>Created with Sketch.</desc>
    <g id="Page-1" stroke="none" stroke-width="1" fill="none" fill-rule="evenodd">
        <g id="Landing-Slide-1" transform="translate(-611.000000, -9303.000000)">
            <g id="sm-twitter" transform="translate(611.200000, 9303.600000)">
                <path d="M38.4,19.2 C38.4,29.8042901 29.8039045,38.4 19.2002484,38.4 C8.59609548,38.4 3.90798505e-14,29.8042901 3.90798505e-14,19.2 C3.90798505e-14,8.59570989 8.59609548,7.21200877e-13 19.2002484,7.21200877e-13 C29.8039045,7.21200877e-13 38.4,8.59570989 38.4,19.2" id="Fill-3" fill="#C8102E"></path>
                <path d="M15.4947036,22.016632 C13.7007864,21.9580107 12.5796545,20.7527973 12.2830559,19.7736236 C12.782339,19.862549 13.2736633,19.8446646 13.7623346,19.7313964 C13.7755993,19.7294092 13.7878028,19.7214606 13.8122098,19.7105312 C12.8412342,19.4993953 12.0909832,19.012044 11.5704766,18.227612 C11.225064,17.706479 11.0600512,17.1361636 11.0648265,16.5092142 C11.5497837,16.7521447 12.0570256,16.8877685 12.600878,16.9011818 C11.8702587,16.4083658 11.3805262,15.7640287 11.179964,14.9403503 C10.9809936,14.1186591 11.1099264,13.3367111 11.5503142,12.5994742 C13.4195749,14.6606574 15.7849351,15.7908554 18.6692101,15.976655 C18.6495784,15.8489799 18.6278243,15.7362085 18.614029,15.6229403 C18.5179926,14.8633478 18.6798219,14.1534344 19.1186179,13.5095941 C19.6677763,12.7038002 20.4525156,12.202042 21.4595711,12.0490305 C22.6204971,11.8706828 23.6339197,12.18068 24.4812684,12.9497114 C24.5380412,13.0013776 24.5852636,13.0182685 24.6648517,13.0013776 C25.3742475,12.8573084 26.0438493,12.6178555 26.6725958,12.2780509 C26.6879828,12.2701022 26.7033699,12.2621536 26.7182263,12.2561921 C26.7214098,12.2542049 26.7272463,12.2547017 26.7415722,12.2547017 C26.4688501,13.0063455 25.9711588,13.5851063 25.2638853,14.0133395 C25.9318953,13.9447825 26.5701923,13.7783577 27.1856741,13.528969 C27.19098,13.5344337 27.1952247,13.5394016 27.2,13.5433759 C27.0678836,13.7058263 26.9394814,13.8712575 26.8025898,14.0282433 C26.4364842,14.4510118 26.0162587,14.822611 25.5477497,15.1445312 C25.5084862,15.1723514 25.4893851,15.1981845 25.4909768,15.2458764 C25.510078,15.7257759 25.4899157,16.2051785 25.4267757,16.6816005 C25.2941288,17.6856138 24.9943467,18.6434255 24.5369801,19.5590101 C24.0642264,20.5034086 23.4476834,21.3568944 22.6714335,22.1070478 C21.3566371,23.3793279 19.7728326,24.2005223 17.927979,24.5815605 C17.2955184,24.7117196 16.6535072,24.7782895 16.005129,24.7956771 C14.0148944,24.8503241 12.174816,24.3868187 10.4817105,23.4076449 C10.4599564,23.3952252 10.4387329,23.381315 10.4,23.3579659 C11.6054954,23.4796795 12.7505037,23.3351135 13.8535957,22.9128417 C14.438834,22.6882925 14.9810947,22.3936958 15.4947036,22.016632" id="Fill-5" fill="#FFFFFF"></path>
            </g>
        </g>
    </g>
</svg>