<?xml version="1.0" encoding="UTF-8"?>
<svg width="18px" height="14px" viewBox="0 0 18 14" version="1.1" xmlns="http://www.w3.org/2000/svg" xmlns:xlink="http://www.w3.org/1999/xlink">
    <!-- Generator: Sketch 55.2 (78181) - https://sketchapp.com -->
    <title>social-githum</title>
    <desc>Created with Sketch.</desc>
    <g id="Page-1" stroke="none" stroke-width="1" fill="none" fill-rule="evenodd">
        <g id="Landing-Slide-1" transform="translate(-1372.000000, -547.000000)" fill="#B2B2B2">
            <path d="M1383.96591,554.846504 C1383.03929,554.846504 1382.64783,556.053477 1382.64783,556.790309 C1382.64783,557.528056 1383.03929,558.734114 1383.96591,558.734114 C1384.89254,558.734114 1385.28447,557.528056 1385.28447,556.790309 C1385.28447,556.053477 1384.89254,554.846504 1383.96591,554.846504 M1386.9329,556.790309 C1386.9329,555.241496 1385.97407,553.876434 1384.29252,553.876434 C1383.61365,553.876434 1382.9637,553.99649 1382.28109,554.088135 C1381.74593,554.168784 1381.21076,554.20086 1380.66113,554.20086 C1380.11476,554.20086 1379.58006,554.168784 1379.04069,554.088135 C1378.36929,553.99649 1377.71187,553.876434 1377.02927,553.876434 C1375.34771,553.876434 1374.38889,555.241496 1374.38889,556.790309 C1374.38889,559.888391 1377.27702,560.364491 1379.79189,560.364491 L1381.52337,560.364491 C1384.0485,560.364491 1386.9329,559.891599 1386.9329,556.790309 M1389.2434,555.008716 C1389.2434,556.134584 1389.12816,557.326894 1388.61445,558.360658 C1387.25297,561.062831 1383.5096,560.999595 1380.82956,560.999595 C1378.1066,560.999595 1374.14067,561.094907 1372.72553,558.360658 C1372.2011,557.337433 1372,556.134584 1372,555.008716 C1372,553.530471 1372.49924,552.133333 1373.49072,551.000592 C1373.30362,550.443845 1373.21404,549.85777 1373.21404,549.279486 C1373.21404,548.52066 1373.38994,548.139414 1373.73848,547.451613 C1375.36544,547.451613 1376.40778,547.769623 1377.64702,548.721822 C1378.68843,548.478503 1379.75923,548.368986 1380.83329,548.368986 C1381.80332,548.368986 1382.78033,548.471629 1383.72189,548.693412 C1384.9434,547.751753 1385.98481,547.451613 1387.59404,547.451613 C1387.94631,548.139414 1388.11848,548.52066 1388.11848,549.279486 C1388.11848,549.85777 1388.02516,550.432847 1387.84226,550.979972 C1388.83001,552.123252 1389.2434,553.530471 1389.2434,555.008716 M1378.68516,556.790309 C1378.68516,557.528056 1378.2937,558.734114 1377.3666,558.734114 C1376.43998,558.734114 1376.04805,557.528056 1376.04805,556.790309 C1376.04805,556.053477 1376.43998,554.846504 1377.3666,554.846504 C1378.2937,554.846504 1378.68516,556.053477 1378.68516,556.790309" id="social-githum"></path>
        </g>
    </g>
</svg>