<?xml version="1.0" encoding="UTF-8"?>
<svg width="15px" height="14px" viewBox="0 0 15 14" version="1.1" xmlns="http://www.w3.org/2000/svg" xmlns:xlink="http://www.w3.org/1999/xlink">
    <!-- Generator: Sketch 55.2 (78181) - https://sketchapp.com -->
    <title>socil-linkedin</title>
    <desc>Created with Sketch.</desc>
    <g id="Page-1" stroke="none" stroke-width="1" fill="none" fill-rule="evenodd">
        <g id="Landing-Slide-1" transform="translate(-1372.000000, -502.000000)" fill="#B2B2B2">
            <path d="M1386.44845,515.83871 L1383.64584,515.83871 L1383.64584,511.435247 C1383.64584,510.386051 1383.62463,509.040373 1382.18543,509.040373 C1380.72502,509.040373 1380.50124,510.180274 1380.50124,511.359885 L1380.50124,515.83871 L1377.69547,515.83871 L1377.69547,506.793064 L1380.38935,506.793064 L1380.38935,508.026828 L1380.4286,508.026828 C1380.80352,507.316082 1381.71983,506.566528 1383.0864,506.566528 C1385.92872,506.566528 1386.45161,508.438383 1386.45161,510.869809 L1386.45161,515.83871 L1386.44845,515.83871 Z M1374.52966,505.5593 C1373.63185,505.5593 1372.90323,504.815161 1372.90323,503.91714 C1372.90323,503.019119 1373.63185,502.290323 1374.52966,502.290323 C1375.42793,502.290323 1376.15655,503.019119 1376.15655,503.91714 C1376.15655,504.815161 1375.42793,505.5593 1374.52966,505.5593 L1374.52966,505.5593 Z M1373.12655,515.83871 L1375.93594,515.83871 L1375.93594,506.793064 L1373.12655,506.793064 L1373.12655,515.83871 Z" id="socil-linkedin"></path>
        </g>
    </g>
</svg>