<svg xmlns="http://www.w3.org/2000/svg" width="15.656" height="11.742" viewBox="0 0 15.656 11.742">
  <path id="Fill_5" data-name="Fill 5" d="M4.748,9.189A3.19,3.19,0,0,1,1.755,7.131a3.449,3.449,0,0,0,1.379-.039.224.224,0,0,0,.046-.019,3.217,3.217,0,0,1-2.089-1.36A2.714,2.714,0,0,1,.62,4.136a3.378,3.378,0,0,0,1.431.36A2.986,2.986,0,0,1,.727,2.7,2.738,2.738,0,0,1,1.072.55a9.488,9.488,0,0,0,6.634,3.1c-.018-.117-.039-.221-.051-.324a2.7,2.7,0,0,1,.47-1.939A3.115,3.115,0,0,1,10.306.045a3.3,3.3,0,0,1,2.816.826.171.171,0,0,0,.171.047A6.8,6.8,0,0,0,15.164.255c.014-.007.029-.015.043-.02s.008,0,.022,0a3.089,3.089,0,0,1-1.377,1.613A6.6,6.6,0,0,0,15.643,1.4l.013.013c-.123.149-.243.3-.37.445a6.1,6.1,0,0,1-1.169,1.024.1.1,0,0,0-.053.093A7.568,7.568,0,0,1,14,4.295a8.211,8.211,0,0,1-.829,2.64,8.549,8.549,0,0,1-1.739,2.337,8.815,8.815,0,0,1-4.42,2.27,10.39,10.39,0,0,1-1.792.2A9.679,9.679,0,0,1,.076,10.465L0,10.419a7.014,7.014,0,0,0,3.218-.408,6.519,6.519,0,0,0,1.529-.822" fill="#7775a5"/>
</svg>
