<?xml version="1.0" encoding="UTF-8"?>
<svg width="19px" height="19px" viewBox="0 0 19 19" version="1.1" xmlns="http://www.w3.org/2000/svg" xmlns:xlink="http://www.w3.org/1999/xlink">
    <!-- Generator: Sketch 55.2 (78181) - https://sketchapp.com -->
    <title>united-kingdom</title>
    <desc>Created with Sketch.</desc>
    <g id="Page-1" stroke="none" stroke-width="1" fill="none" fill-rule="evenodd">
        <g id="Landing-Slide-2" transform="translate(-1328.000000, -32.000000)" fill-rule="nonzero">
            <g id="united-kingdom" transform="translate(1328.000000, 32.000000)">
                <circle id="Oval" fill="#F0F0F0" cx="9.5" cy="9.5" r="9.5"></circle>
                <g id="Group" transform="translate(0.863636, 0.863636)" fill="#0052B4">
                    <path d="M1.642511,3.3691952 C0.9072204,4.32585181 0.352781525,5.42847691 0.0299469391,6.62631791 L4.89963371,6.62631791 L1.642511,3.3691952 Z" id="Path"></path>
                    <path d="M18.1064167,6.62631791 C17.7835821,5.42851347 17.2291067,4.32588838 16.4938526,3.36923176 L13.2368031,6.62631791 L18.1064167,6.62631791 Z" id="Path"></path>
                    <path d="M0.0299469391,11.5101554 C0.35281809,12.7079599 0.907256965,13.810585 1.642511,14.767205 L4.89952401,11.5101554 L0.0299469391,11.5101554 L0.0299469391,11.5101554 Z" id="Path"></path>
                    <path d="M14.7671684,1.64254756 C13.8105118,0.907256965 12.7079233,0.35281809 11.5100823,0.0299469391 L11.5100823,4.89959714 L14.7671684,1.64254756 Z" id="Path"></path>
                    <path d="M3.3691952,16.4938161 C4.32585181,17.2291067 5.42847691,17.7835455 6.62628134,18.1064167 L6.62628134,13.2368031 L3.3691952,16.4938161 Z" id="Path"></path>
                    <path d="M6.62624478,0.0299469391 C5.42844034,0.35281809 4.32581525,0.907256965 3.3691952,1.642511 L6.62624478,4.89956058 L6.62624478,0.0299469391 Z" id="Path"></path>
                    <path d="M11.5101189,18.1064167 C12.7079233,17.7835455 13.8105484,17.2291067 14.7671684,16.4938526 L11.5101189,13.2368031 L11.5101189,18.1064167 Z" id="Path"></path>
                    <path d="M13.2368031,11.5101554 L16.4938526,14.7672416 C17.2291067,13.8106215 17.7835821,12.7079599 18.1064167,11.5101554 L13.2368031,11.5101554 Z" id="Path"></path>
                </g>
                <g id="Group" fill="#D80027">
                    <path d="M18.919584,8.26088086 L10.7391934,8.26088086 L10.7391563,8.26088086 L10.7391563,0.0804160156 C10.3335137,0.027609375 9.9199668,0 9.5,0 C9.07995898,0 8.66648633,0.027609375 8.26088086,0.0804160156 L8.26088086,8.26080664 L8.26088086,8.26084375 L0.0804160156,8.26084375 C0.027609375,8.66648633 0,9.0800332 0,9.5 C0,9.92004102 0.027609375,10.3335137 0.0804160156,10.7391191 L8.26080664,10.7391191 L8.26084375,10.7391191 L8.26084375,18.919584 C8.66648633,18.9723906 9.07995898,19 9.5,19 C9.9199668,19 10.3335137,18.9724277 10.7391191,18.919584 L10.7391191,10.7391934 L10.7391191,10.7391563 L18.919584,10.7391563 C18.9723906,10.3335137 19,9.92004102 19,9.5 C19,9.0800332 18.9723906,8.66648633 18.919584,8.26088086 Z" id="Path"></path>
                    <path d="M11.9782754,11.9782754 L11.9782754,11.9782754 L16.217502,16.2175391 C16.4124746,16.0226406 16.5984668,15.818873 16.7759238,15.6076465 L13.1465527,11.9782754 L11.9782754,11.9782754 L11.9782754,11.9782754 Z" id="Path"></path>
                    <path d="M7.02172461,11.9783125 L7.02165039,11.9783125 L2.78246094,16.217502 C2.97735938,16.4124746 3.18112695,16.5984668 3.39235352,16.7759238 L7.02172461,13.1464785 L7.02172461,11.9783125 Z" id="Path"></path>
                    <path d="M7.02172461,7.02179883 L7.02172461,7.02172461 L2.78249805,2.78246094 C2.58752539,2.97735938 2.4015332,3.18112695 2.22407617,3.39235352 L5.85348437,7.02179883 L7.02172461,7.02179883 L7.02172461,7.02179883 Z" id="Path"></path>
                    <path d="M11.9782754,7.02179883 L11.9782754,7.02179883 L16.2175391,2.78249805 C16.0226406,2.58752539 15.818873,2.4015332 15.6076465,2.22411328 L11.9782754,5.85352148 L11.9782754,7.02179883 L11.9782754,7.02179883 Z" id="Path"></path>
                </g>
            </g>
        </g>
    </g>
</svg>