<?xml version="1.0" encoding="UTF-8"?>
<svg width="16px" height="13px" viewBox="0 0 16 13" version="1.1" xmlns="http://www.w3.org/2000/svg" xmlns:xlink="http://www.w3.org/1999/xlink">
    <!-- Generator: Sketch 55.2 (78181) - https://sketchapp.com -->
    <title>youtube</title>
    <desc>Created with Sketch.</desc>
    <g id="Page-1" stroke="none" stroke-width="1" fill="none" fill-rule="evenodd">
        <g id="BDAM-Slide-2" transform="translate(-1376.000000, -369.000000)" fill="#7775A5">
            <path d="M1381.89976,378.010413 C1383.52299,377.109304 1385.13212,376.216242 1386.76239,375.312116 C1385.13024,374.399945 1383.52064,373.501351 1381.89976,372.595717 L1381.89976,378.010413 Z M1377.61078,381.013437 C1377.02021,380.806263 1376.62228,380.390908 1376.40898,379.76335 C1375.88842,378.231667 1375.73479,371.824847 1376.73644,370.5642 C1377.07894,370.132251 1377.5201,369.878814 1378.04489,369.818975 C1380.74447,369.508716 1389.088,369.552967 1390.05019,369.923568 C1390.61303,370.140297 1391.01332,370.535035 1391.23038,371.138958 C1391.80027,372.721932 1391.81953,378.482087 1391.15567,380.007736 C1390.97526,380.421079 1390.68163,380.712732 1390.30859,380.921415 C1389.30224,381.48662 1378.93567,381.47958 1377.61078,381.013437 L1377.61078,381.013437 Z" id="youtube"></path>
        </g>
    </g>
</svg>